<?xml version="1.0" encoding="utf-8" standalone="no"?>
<!DOCTYPE svg PUBLIC "-//W3C//DTD SVG 1.1//EN"
  "http://www.w3.org/Graphics/SVG/1.1/DTD/svg11.dtd">
<svg xmlns:xlink="http://www.w3.org/1999/xlink" width="792pt" height="302.4pt" viewBox="0 0 792 302.4" xmlns="http://www.w3.org/2000/svg" version="1.1">
 <metadata>
  <rdf:RDF xmlns:dc="http://purl.org/dc/elements/1.1/" xmlns:cc="http://creativecommons.org/ns#" xmlns:rdf="http://www.w3.org/1999/02/22-rdf-syntax-ns#">
   <cc:Work>
    <dc:type rdf:resource="http://purl.org/dc/dcmitype/StillImage"/>
    <dc:date>2026-06-22T11:59:23.889716</dc:date>
    <dc:format>image/svg+xml</dc:format>
    <dc:creator>
     <cc:Agent>
      <dc:title>Matplotlib v3.10.9, https://matplotlib.org/</dc:title>
     </cc:Agent>
    </dc:creator>
   </cc:Work>
  </rdf:RDF>
 </metadata>
 <defs>
  <style type="text/css">*{stroke-linejoin: round; stroke-linecap: butt}</style>
 </defs>
 <g id="figure_1">
  <g id="patch_1">
   <path d="M 0 302.4 
L 792 302.4 
L 792 0 
L 0 0 
z
" style="fill: #ffffff"/>
  </g>
  <g id="axes_1">
   <g id="patch_2">
    <path d="M 50.002685 260.44 
L 370.053409 260.44 
L 370.053409 50.64 
L 50.002685 50.64 
z
" style="fill: #ffffff"/>
   </g>
   <g id="matplotlib.axis_1">
    <g id="xtick_1">
     <g id="line2d_1">
      <path d="M 93.645965 260.44 
L 93.645965 50.64 
" clip-path="url(#p8dc5cc9e7c)" style="fill: none; stroke: #b0b0b0; stroke-opacity: 0.3; stroke-width: 0.8; stroke-linecap: square"/>
     </g>
     <g id="line2d_2">
      <defs>
       <path id="m7b5540e638" d="M 0 0 
L 0 3.5 
" style="stroke: #000000; stroke-width: 0.8"/>
      </defs>
      <g>
       <use xlink:href="#m7b5540e638" x="93.645965" y="260.44" style="stroke: #000000; stroke-width: 0.8"/>
      </g>
     </g>
     <g id="text_1">
      <!-- 5 -->
      <g transform="translate(90.464715 275.038438) scale(0.1 -0.1)">
       <defs>
        <path id="DejaVuSans-35" d="M 691 4666 
L 3169 4666 
L 3169 4134 
L 1269 4134 
L 1269 2991 
Q 1406 3038 1543 3061 
Q 1681 3084 1819 3084 
Q 2600 3084 3056 2656 
Q 3513 2228 3513 1497 
Q 3513 744 3044 326 
Q 2575 -91 1722 -91 
Q 1428 -91 1123 -41 
Q 819 9 494 109 
L 494 744 
Q 775 591 1075 516 
Q 1375 441 1709 441 
Q 2250 441 2565 725 
Q 2881 1009 2881 1497 
Q 2881 1984 2565 2268 
Q 2250 2553 1709 2553 
Q 1456 2553 1204 2497 
Q 953 2441 691 2322 
L 691 4666 
z
" transform="scale(0.015625)"/>
       </defs>
       <use xlink:href="#DejaVuSans-35"/>
      </g>
     </g>
    </g>
    <g id="xtick_2">
     <g id="line2d_3">
      <path d="M 142.138499 260.44 
L 142.138499 50.64 
" clip-path="url(#p8dc5cc9e7c)" style="fill: none; stroke: #b0b0b0; stroke-opacity: 0.3; stroke-width: 0.8; stroke-linecap: square"/>
     </g>
     <g id="line2d_4">
      <g>
       <use xlink:href="#m7b5540e638" x="142.138499" y="260.44" style="stroke: #000000; stroke-width: 0.8"/>
      </g>
     </g>
     <g id="text_2">
      <!-- 10 -->
      <g transform="translate(135.775999 275.038438) scale(0.1 -0.1)">
       <defs>
        <path id="DejaVuSans-31" d="M 794 531 
L 1825 531 
L 1825 4091 
L 703 3866 
L 703 4441 
L 1819 4666 
L 2450 4666 
L 2450 531 
L 3481 531 
L 3481 0 
L 794 0 
L 794 531 
z
" transform="scale(0.015625)"/>
        <path id="DejaVuSans-30" d="M 2034 4250 
Q 1547 4250 1301 3770 
Q 1056 3291 1056 2328 
Q 1056 1369 1301 889 
Q 1547 409 2034 409 
Q 2525 409 2770 889 
Q 3016 1369 3016 2328 
Q 3016 3291 2770 3770 
Q 2525 4250 2034 4250 
z
M 2034 4750 
Q 2819 4750 3233 4129 
Q 3647 3509 3647 2328 
Q 3647 1150 3233 529 
Q 2819 -91 2034 -91 
Q 1250 -91 836 529 
Q 422 1150 422 2328 
Q 422 3509 836 4129 
Q 1250 4750 2034 4750 
z
" transform="scale(0.015625)"/>
       </defs>
       <use xlink:href="#DejaVuSans-31"/>
       <use xlink:href="#DejaVuSans-30" transform="translate(63.623047 0)"/>
      </g>
     </g>
    </g>
    <g id="xtick_3">
     <g id="line2d_5">
      <path d="M 190.631033 260.44 
L 190.631033 50.64 
" clip-path="url(#p8dc5cc9e7c)" style="fill: none; stroke: #b0b0b0; stroke-opacity: 0.3; stroke-width: 0.8; stroke-linecap: square"/>
     </g>
     <g id="line2d_6">
      <g>
       <use xlink:href="#m7b5540e638" x="190.631033" y="260.44" style="stroke: #000000; stroke-width: 0.8"/>
      </g>
     </g>
     <g id="text_3">
      <!-- 15 -->
      <g transform="translate(184.268533 275.038438) scale(0.1 -0.1)">
       <use xlink:href="#DejaVuSans-31"/>
       <use xlink:href="#DejaVuSans-35" transform="translate(63.623047 0)"/>
      </g>
     </g>
    </g>
    <g id="xtick_4">
     <g id="line2d_7">
      <path d="M 239.123567 260.44 
L 239.123567 50.64 
" clip-path="url(#p8dc5cc9e7c)" style="fill: none; stroke: #b0b0b0; stroke-opacity: 0.3; stroke-width: 0.8; stroke-linecap: square"/>
     </g>
     <g id="line2d_8">
      <g>
       <use xlink:href="#m7b5540e638" x="239.123567" y="260.44" style="stroke: #000000; stroke-width: 0.8"/>
      </g>
     </g>
     <g id="text_4">
      <!-- 20 -->
      <g transform="translate(232.761067 275.038438) scale(0.1 -0.1)">
       <defs>
        <path id="DejaVuSans-32" d="M 1228 531 
L 3431 531 
L 3431 0 
L 469 0 
L 469 531 
Q 828 903 1448 1529 
Q 2069 2156 2228 2338 
Q 2531 2678 2651 2914 
Q 2772 3150 2772 3378 
Q 2772 3750 2511 3984 
Q 2250 4219 1831 4219 
Q 1534 4219 1204 4116 
Q 875 4013 500 3803 
L 500 4441 
Q 881 4594 1212 4672 
Q 1544 4750 1819 4750 
Q 2544 4750 2975 4387 
Q 3406 4025 3406 3419 
Q 3406 3131 3298 2873 
Q 3191 2616 2906 2266 
Q 2828 2175 2409 1742 
Q 1991 1309 1228 531 
z
" transform="scale(0.015625)"/>
       </defs>
       <use xlink:href="#DejaVuSans-32"/>
       <use xlink:href="#DejaVuSans-30" transform="translate(63.623047 0)"/>
      </g>
     </g>
    </g>
    <g id="xtick_5">
     <g id="line2d_9">
      <path d="M 287.616101 260.44 
L 287.616101 50.64 
" clip-path="url(#p8dc5cc9e7c)" style="fill: none; stroke: #b0b0b0; stroke-opacity: 0.3; stroke-width: 0.8; stroke-linecap: square"/>
     </g>
     <g id="line2d_10">
      <g>
       <use xlink:href="#m7b5540e638" x="287.616101" y="260.44" style="stroke: #000000; stroke-width: 0.8"/>
      </g>
     </g>
     <g id="text_5">
      <!-- 25 -->
      <g transform="translate(281.253601 275.038438) scale(0.1 -0.1)">
       <use xlink:href="#DejaVuSans-32"/>
       <use xlink:href="#DejaVuSans-35" transform="translate(63.623047 0)"/>
      </g>
     </g>
    </g>
    <g id="xtick_6">
     <g id="line2d_11">
      <path d="M 336.108635 260.44 
L 336.108635 50.64 
" clip-path="url(#p8dc5cc9e7c)" style="fill: none; stroke: #b0b0b0; stroke-opacity: 0.3; stroke-width: 0.8; stroke-linecap: square"/>
     </g>
     <g id="line2d_12">
      <g>
       <use xlink:href="#m7b5540e638" x="336.108635" y="260.44" style="stroke: #000000; stroke-width: 0.8"/>
      </g>
     </g>
     <g id="text_6">
      <!-- 30 -->
      <g transform="translate(329.746135 275.038438) scale(0.1 -0.1)">
       <defs>
        <path id="DejaVuSans-33" d="M 2597 2516 
Q 3050 2419 3304 2112 
Q 3559 1806 3559 1356 
Q 3559 666 3084 287 
Q 2609 -91 1734 -91 
Q 1441 -91 1130 -33 
Q 819 25 488 141 
L 488 750 
Q 750 597 1062 519 
Q 1375 441 1716 441 
Q 2309 441 2620 675 
Q 2931 909 2931 1356 
Q 2931 1769 2642 2001 
Q 2353 2234 1838 2234 
L 1294 2234 
L 1294 2753 
L 1863 2753 
Q 2328 2753 2575 2939 
Q 2822 3125 2822 3475 
Q 2822 3834 2567 4026 
Q 2313 4219 1838 4219 
Q 1578 4219 1281 4162 
Q 984 4106 628 3988 
L 628 4550 
Q 988 4650 1302 4700 
Q 1616 4750 1894 4750 
Q 2613 4750 3031 4423 
Q 3450 4097 3450 3541 
Q 3450 3153 3228 2886 
Q 3006 2619 2597 2516 
z
" transform="scale(0.015625)"/>
       </defs>
       <use xlink:href="#DejaVuSans-33"/>
       <use xlink:href="#DejaVuSans-30" transform="translate(63.623047 0)"/>
      </g>
     </g>
    </g>
    <g id="text_7">
     <!-- dimensione galleria N -->
     <g transform="translate(155.530391 288.716563) scale(0.1 -0.1)">
      <defs>
       <path id="DejaVuSans-64" d="M 2906 2969 
L 2906 4863 
L 3481 4863 
L 3481 0 
L 2906 0 
L 2906 525 
Q 2725 213 2448 61 
Q 2172 -91 1784 -91 
Q 1150 -91 751 415 
Q 353 922 353 1747 
Q 353 2572 751 3078 
Q 1150 3584 1784 3584 
Q 2172 3584 2448 3432 
Q 2725 3281 2906 2969 
z
M 947 1747 
Q 947 1113 1208 752 
Q 1469 391 1925 391 
Q 2381 391 2643 752 
Q 2906 1113 2906 1747 
Q 2906 2381 2643 2742 
Q 2381 3103 1925 3103 
Q 1469 3103 1208 2742 
Q 947 2381 947 1747 
z
" transform="scale(0.015625)"/>
       <path id="DejaVuSans-69" d="M 603 3500 
L 1178 3500 
L 1178 0 
L 603 0 
L 603 3500 
z
M 603 4863 
L 1178 4863 
L 1178 4134 
L 603 4134 
L 603 4863 
z
" transform="scale(0.015625)"/>
       <path id="DejaVuSans-6d" d="M 3328 2828 
Q 3544 3216 3844 3400 
Q 4144 3584 4550 3584 
Q 5097 3584 5394 3201 
Q 5691 2819 5691 2113 
L 5691 0 
L 5113 0 
L 5113 2094 
Q 5113 2597 4934 2840 
Q 4756 3084 4391 3084 
Q 3944 3084 3684 2787 
Q 3425 2491 3425 1978 
L 3425 0 
L 2847 0 
L 2847 2094 
Q 2847 2600 2669 2842 
Q 2491 3084 2119 3084 
Q 1678 3084 1418 2786 
Q 1159 2488 1159 1978 
L 1159 0 
L 581 0 
L 581 3500 
L 1159 3500 
L 1159 2956 
Q 1356 3278 1631 3431 
Q 1906 3584 2284 3584 
Q 2666 3584 2933 3390 
Q 3200 3197 3328 2828 
z
" transform="scale(0.015625)"/>
       <path id="DejaVuSans-65" d="M 3597 1894 
L 3597 1613 
L 953 1613 
Q 991 1019 1311 708 
Q 1631 397 2203 397 
Q 2534 397 2845 478 
Q 3156 559 3463 722 
L 3463 178 
Q 3153 47 2828 -22 
Q 2503 -91 2169 -91 
Q 1331 -91 842 396 
Q 353 884 353 1716 
Q 353 2575 817 3079 
Q 1281 3584 2069 3584 
Q 2775 3584 3186 3129 
Q 3597 2675 3597 1894 
z
M 3022 2063 
Q 3016 2534 2758 2815 
Q 2500 3097 2075 3097 
Q 1594 3097 1305 2825 
Q 1016 2553 972 2059 
L 3022 2063 
z
" transform="scale(0.015625)"/>
       <path id="DejaVuSans-6e" d="M 3513 2113 
L 3513 0 
L 2938 0 
L 2938 2094 
Q 2938 2591 2744 2837 
Q 2550 3084 2163 3084 
Q 1697 3084 1428 2787 
Q 1159 2491 1159 1978 
L 1159 0 
L 581 0 
L 581 3500 
L 1159 3500 
L 1159 2956 
Q 1366 3272 1645 3428 
Q 1925 3584 2291 3584 
Q 2894 3584 3203 3211 
Q 3513 2838 3513 2113 
z
" transform="scale(0.015625)"/>
       <path id="DejaVuSans-73" d="M 2834 3397 
L 2834 2853 
Q 2591 2978 2328 3040 
Q 2066 3103 1784 3103 
Q 1356 3103 1142 2972 
Q 928 2841 928 2578 
Q 928 2378 1081 2264 
Q 1234 2150 1697 2047 
L 1894 2003 
Q 2506 1872 2764 1633 
Q 3022 1394 3022 966 
Q 3022 478 2636 193 
Q 2250 -91 1575 -91 
Q 1294 -91 989 -36 
Q 684 19 347 128 
L 347 722 
Q 666 556 975 473 
Q 1284 391 1588 391 
Q 1994 391 2212 530 
Q 2431 669 2431 922 
Q 2431 1156 2273 1281 
Q 2116 1406 1581 1522 
L 1381 1569 
Q 847 1681 609 1914 
Q 372 2147 372 2553 
Q 372 3047 722 3315 
Q 1072 3584 1716 3584 
Q 2034 3584 2315 3537 
Q 2597 3491 2834 3397 
z
" transform="scale(0.015625)"/>
       <path id="DejaVuSans-6f" d="M 1959 3097 
Q 1497 3097 1228 2736 
Q 959 2375 959 1747 
Q 959 1119 1226 758 
Q 1494 397 1959 397 
Q 2419 397 2687 759 
Q 2956 1122 2956 1747 
Q 2956 2369 2687 2733 
Q 2419 3097 1959 3097 
z
M 1959 3584 
Q 2709 3584 3137 3096 
Q 3566 2609 3566 1747 
Q 3566 888 3137 398 
Q 2709 -91 1959 -91 
Q 1206 -91 779 398 
Q 353 888 353 1747 
Q 353 2609 779 3096 
Q 1206 3584 1959 3584 
z
" transform="scale(0.015625)"/>
       <path id="DejaVuSans-20" transform="scale(0.015625)"/>
       <path id="DejaVuSans-67" d="M 2906 1791 
Q 2906 2416 2648 2759 
Q 2391 3103 1925 3103 
Q 1463 3103 1205 2759 
Q 947 2416 947 1791 
Q 947 1169 1205 825 
Q 1463 481 1925 481 
Q 2391 481 2648 825 
Q 2906 1169 2906 1791 
z
M 3481 434 
Q 3481 -459 3084 -895 
Q 2688 -1331 1869 -1331 
Q 1566 -1331 1297 -1286 
Q 1028 -1241 775 -1147 
L 775 -588 
Q 1028 -725 1275 -790 
Q 1522 -856 1778 -856 
Q 2344 -856 2625 -561 
Q 2906 -266 2906 331 
L 2906 616 
Q 2728 306 2450 153 
Q 2172 0 1784 0 
Q 1141 0 747 490 
Q 353 981 353 1791 
Q 353 2603 747 3093 
Q 1141 3584 1784 3584 
Q 2172 3584 2450 3431 
Q 2728 3278 2906 2969 
L 2906 3500 
L 3481 3500 
L 3481 434 
z
" transform="scale(0.015625)"/>
       <path id="DejaVuSans-61" d="M 2194 1759 
Q 1497 1759 1228 1600 
Q 959 1441 959 1056 
Q 959 750 1161 570 
Q 1363 391 1709 391 
Q 2188 391 2477 730 
Q 2766 1069 2766 1631 
L 2766 1759 
L 2194 1759 
z
M 3341 1997 
L 3341 0 
L 2766 0 
L 2766 531 
Q 2569 213 2275 61 
Q 1981 -91 1556 -91 
Q 1019 -91 701 211 
Q 384 513 384 1019 
Q 384 1609 779 1909 
Q 1175 2209 1959 2209 
L 2766 2209 
L 2766 2266 
Q 2766 2663 2505 2880 
Q 2244 3097 1772 3097 
Q 1472 3097 1187 3025 
Q 903 2953 641 2809 
L 641 3341 
Q 956 3463 1253 3523 
Q 1550 3584 1831 3584 
Q 2591 3584 2966 3190 
Q 3341 2797 3341 1997 
z
" transform="scale(0.015625)"/>
       <path id="DejaVuSans-6c" d="M 603 4863 
L 1178 4863 
L 1178 0 
L 603 0 
L 603 4863 
z
" transform="scale(0.015625)"/>
       <path id="DejaVuSans-72" d="M 2631 2963 
Q 2534 3019 2420 3045 
Q 2306 3072 2169 3072 
Q 1681 3072 1420 2755 
Q 1159 2438 1159 1844 
L 1159 0 
L 581 0 
L 581 3500 
L 1159 3500 
L 1159 2956 
Q 1341 3275 1631 3429 
Q 1922 3584 2338 3584 
Q 2397 3584 2469 3576 
Q 2541 3569 2628 3553 
L 2631 2963 
z
" transform="scale(0.015625)"/>
       <path id="DejaVuSans-4e" d="M 628 4666 
L 1478 4666 
L 3547 763 
L 3547 4666 
L 4159 4666 
L 4159 0 
L 3309 0 
L 1241 3903 
L 1241 0 
L 628 0 
L 628 4666 
z
" transform="scale(0.015625)"/>
      </defs>
      <use xlink:href="#DejaVuSans-64"/>
      <use xlink:href="#DejaVuSans-69" transform="translate(63.476562 0)"/>
      <use xlink:href="#DejaVuSans-6d" transform="translate(91.259766 0)"/>
      <use xlink:href="#DejaVuSans-65" transform="translate(188.671875 0)"/>
      <use xlink:href="#DejaVuSans-6e" transform="translate(250.195312 0)"/>
      <use xlink:href="#DejaVuSans-73" transform="translate(313.574219 0)"/>
      <use xlink:href="#DejaVuSans-69" transform="translate(365.673828 0)"/>
      <use xlink:href="#DejaVuSans-6f" transform="translate(393.457031 0)"/>
      <use xlink:href="#DejaVuSans-6e" transform="translate(454.638672 0)"/>
      <use xlink:href="#DejaVuSans-65" transform="translate(518.017578 0)"/>
      <use xlink:href="#DejaVuSans-20" transform="translate(579.541016 0)"/>
      <use xlink:href="#DejaVuSans-67" transform="translate(611.328125 0)"/>
      <use xlink:href="#DejaVuSans-61" transform="translate(674.804688 0)"/>
      <use xlink:href="#DejaVuSans-6c" transform="translate(736.083984 0)"/>
      <use xlink:href="#DejaVuSans-6c" transform="translate(763.867188 0)"/>
      <use xlink:href="#DejaVuSans-65" transform="translate(791.650391 0)"/>
      <use xlink:href="#DejaVuSans-72" transform="translate(853.173828 0)"/>
      <use xlink:href="#DejaVuSans-69" transform="translate(894.287109 0)"/>
      <use xlink:href="#DejaVuSans-61" transform="translate(922.070312 0)"/>
      <use xlink:href="#DejaVuSans-20" transform="translate(983.349609 0)"/>
      <use xlink:href="#DejaVuSans-4e" transform="translate(1015.136719 0)"/>
     </g>
    </g>
   </g>
   <g id="matplotlib.axis_2">
    <g id="ytick_1">
     <g id="line2d_13">
      <path d="M 50.002685 214.855702 
L 370.053409 214.855702 
" clip-path="url(#p8dc5cc9e7c)" style="fill: none; stroke: #b0b0b0; stroke-opacity: 0.3; stroke-width: 0.8; stroke-linecap: square"/>
     </g>
     <g id="line2d_14">
      <defs>
       <path id="me31e1729a1" d="M 0 0 
L -3.5 0 
" style="stroke: #000000; stroke-width: 0.8"/>
      </defs>
      <g>
       <use xlink:href="#me31e1729a1" x="50.002685" y="214.855702" style="stroke: #000000; stroke-width: 0.8"/>
      </g>
     </g>
     <g id="text_8">
      <!-- $\mathdefault{10^{2}}$ -->
      <g transform="translate(25.402685 218.654921) scale(0.1 -0.1)">
       <use xlink:href="#DejaVuSans-31" transform="translate(0 0.765625)"/>
       <use xlink:href="#DejaVuSans-30" transform="translate(63.623047 0.765625)"/>
       <use xlink:href="#DejaVuSans-32" transform="translate(128.203125 39.046875) scale(0.7)"/>
      </g>
     </g>
    </g>
    <g id="ytick_2">
     <g id="line2d_15">
      <path d="M 50.002685 131.145182 
L 370.053409 131.145182 
" clip-path="url(#p8dc5cc9e7c)" style="fill: none; stroke: #b0b0b0; stroke-opacity: 0.3; stroke-width: 0.8; stroke-linecap: square"/>
     </g>
     <g id="line2d_16">
      <g>
       <use xlink:href="#me31e1729a1" x="50.002685" y="131.145182" style="stroke: #000000; stroke-width: 0.8"/>
      </g>
     </g>
     <g id="text_9">
      <!-- $\mathdefault{10^{3}}$ -->
      <g transform="translate(25.402685 134.944401) scale(0.1 -0.1)">
       <use xlink:href="#DejaVuSans-31" transform="translate(0 0.765625)"/>
       <use xlink:href="#DejaVuSans-30" transform="translate(63.623047 0.765625)"/>
       <use xlink:href="#DejaVuSans-33" transform="translate(128.203125 39.046875) scale(0.7)"/>
      </g>
     </g>
    </g>
    <g id="ytick_3">
     <g id="line2d_17">
      <defs>
       <path id="m02160b8ee1" d="M 0 0 
L -2 0 
" style="stroke: #000000; stroke-width: 0.6"/>
      </defs>
      <g>
       <use xlink:href="#m02160b8ee1" x="50.002685" y="258.626154" style="stroke: #000000; stroke-width: 0.6"/>
      </g>
     </g>
    </g>
    <g id="ytick_4">
     <g id="line2d_18">
      <g>
       <use xlink:href="#m02160b8ee1" x="50.002685" y="248.167467" style="stroke: #000000; stroke-width: 0.6"/>
      </g>
     </g>
    </g>
    <g id="ytick_5">
     <g id="line2d_19">
      <g>
       <use xlink:href="#m02160b8ee1" x="50.002685" y="240.05508" style="stroke: #000000; stroke-width: 0.6"/>
      </g>
     </g>
    </g>
    <g id="ytick_6">
     <g id="line2d_20">
      <g>
       <use xlink:href="#m02160b8ee1" x="50.002685" y="233.426777" style="stroke: #000000; stroke-width: 0.6"/>
      </g>
     </g>
    </g>
    <g id="ytick_7">
     <g id="line2d_21">
      <g>
       <use xlink:href="#m02160b8ee1" x="50.002685" y="227.822626" style="stroke: #000000; stroke-width: 0.6"/>
      </g>
     </g>
    </g>
    <g id="ytick_8">
     <g id="line2d_22">
      <g>
       <use xlink:href="#m02160b8ee1" x="50.002685" y="222.96809" style="stroke: #000000; stroke-width: 0.6"/>
      </g>
     </g>
    </g>
    <g id="ytick_9">
     <g id="line2d_23">
      <g>
       <use xlink:href="#m02160b8ee1" x="50.002685" y="218.686086" style="stroke: #000000; stroke-width: 0.6"/>
      </g>
     </g>
    </g>
    <g id="ytick_10">
     <g id="line2d_24">
      <g>
       <use xlink:href="#m02160b8ee1" x="50.002685" y="189.656325" style="stroke: #000000; stroke-width: 0.6"/>
      </g>
     </g>
    </g>
    <g id="ytick_11">
     <g id="line2d_25">
      <g>
       <use xlink:href="#m02160b8ee1" x="50.002685" y="174.915634" style="stroke: #000000; stroke-width: 0.6"/>
      </g>
     </g>
    </g>
    <g id="ytick_12">
     <g id="line2d_26">
      <g>
       <use xlink:href="#m02160b8ee1" x="50.002685" y="164.456947" style="stroke: #000000; stroke-width: 0.6"/>
      </g>
     </g>
    </g>
    <g id="ytick_13">
     <g id="line2d_27">
      <g>
       <use xlink:href="#m02160b8ee1" x="50.002685" y="156.344559" style="stroke: #000000; stroke-width: 0.6"/>
      </g>
     </g>
    </g>
    <g id="ytick_14">
     <g id="line2d_28">
      <g>
       <use xlink:href="#m02160b8ee1" x="50.002685" y="149.716256" style="stroke: #000000; stroke-width: 0.6"/>
      </g>
     </g>
    </g>
    <g id="ytick_15">
     <g id="line2d_29">
      <g>
       <use xlink:href="#m02160b8ee1" x="50.002685" y="144.112105" style="stroke: #000000; stroke-width: 0.6"/>
      </g>
     </g>
    </g>
    <g id="ytick_16">
     <g id="line2d_30">
      <g>
       <use xlink:href="#m02160b8ee1" x="50.002685" y="139.257569" style="stroke: #000000; stroke-width: 0.6"/>
      </g>
     </g>
    </g>
    <g id="ytick_17">
     <g id="line2d_31">
      <g>
       <use xlink:href="#m02160b8ee1" x="50.002685" y="134.975565" style="stroke: #000000; stroke-width: 0.6"/>
      </g>
     </g>
    </g>
    <g id="ytick_18">
     <g id="line2d_32">
      <g>
       <use xlink:href="#m02160b8ee1" x="50.002685" y="105.945804" style="stroke: #000000; stroke-width: 0.6"/>
      </g>
     </g>
    </g>
    <g id="ytick_19">
     <g id="line2d_33">
      <g>
       <use xlink:href="#m02160b8ee1" x="50.002685" y="91.205113" style="stroke: #000000; stroke-width: 0.6"/>
      </g>
     </g>
    </g>
    <g id="ytick_20">
     <g id="line2d_34">
      <g>
       <use xlink:href="#m02160b8ee1" x="50.002685" y="80.746427" style="stroke: #000000; stroke-width: 0.6"/>
      </g>
     </g>
    </g>
    <g id="ytick_21">
     <g id="line2d_35">
      <g>
       <use xlink:href="#m02160b8ee1" x="50.002685" y="72.634039" style="stroke: #000000; stroke-width: 0.6"/>
      </g>
     </g>
    </g>
    <g id="ytick_22">
     <g id="line2d_36">
      <g>
       <use xlink:href="#m02160b8ee1" x="50.002685" y="66.005736" style="stroke: #000000; stroke-width: 0.6"/>
      </g>
     </g>
    </g>
    <g id="ytick_23">
     <g id="line2d_37">
      <g>
       <use xlink:href="#m02160b8ee1" x="50.002685" y="60.401585" style="stroke: #000000; stroke-width: 0.6"/>
      </g>
     </g>
    </g>
    <g id="ytick_24">
     <g id="line2d_38">
      <g>
       <use xlink:href="#m02160b8ee1" x="50.002685" y="55.547049" style="stroke: #000000; stroke-width: 0.6"/>
      </g>
     </g>
    </g>
    <g id="ytick_25">
     <g id="line2d_39">
      <g>
       <use xlink:href="#m02160b8ee1" x="50.002685" y="51.265045" style="stroke: #000000; stroke-width: 0.6"/>
      </g>
     </g>
    </g>
    <g id="text_10">
     <!-- tempo/query (ms) -->
     <g transform="translate(19.322997 200.765) rotate(-90) scale(0.1 -0.1)">
      <defs>
       <path id="DejaVuSans-74" d="M 1172 4494 
L 1172 3500 
L 2356 3500 
L 2356 3053 
L 1172 3053 
L 1172 1153 
Q 1172 725 1289 603 
Q 1406 481 1766 481 
L 2356 481 
L 2356 0 
L 1766 0 
Q 1100 0 847 248 
Q 594 497 594 1153 
L 594 3053 
L 172 3053 
L 172 3500 
L 594 3500 
L 594 4494 
L 1172 4494 
z
" transform="scale(0.015625)"/>
       <path id="DejaVuSans-70" d="M 1159 525 
L 1159 -1331 
L 581 -1331 
L 581 3500 
L 1159 3500 
L 1159 2969 
Q 1341 3281 1617 3432 
Q 1894 3584 2278 3584 
Q 2916 3584 3314 3078 
Q 3713 2572 3713 1747 
Q 3713 922 3314 415 
Q 2916 -91 2278 -91 
Q 1894 -91 1617 61 
Q 1341 213 1159 525 
z
M 3116 1747 
Q 3116 2381 2855 2742 
Q 2594 3103 2138 3103 
Q 1681 3103 1420 2742 
Q 1159 2381 1159 1747 
Q 1159 1113 1420 752 
Q 1681 391 2138 391 
Q 2594 391 2855 752 
Q 3116 1113 3116 1747 
z
" transform="scale(0.015625)"/>
       <path id="DejaVuSans-2f" d="M 1625 4666 
L 2156 4666 
L 531 -594 
L 0 -594 
L 1625 4666 
z
" transform="scale(0.015625)"/>
       <path id="DejaVuSans-71" d="M 947 1747 
Q 947 1113 1208 752 
Q 1469 391 1925 391 
Q 2381 391 2643 752 
Q 2906 1113 2906 1747 
Q 2906 2381 2643 2742 
Q 2381 3103 1925 3103 
Q 1469 3103 1208 2742 
Q 947 2381 947 1747 
z
M 2906 525 
Q 2725 213 2448 61 
Q 2172 -91 1784 -91 
Q 1150 -91 751 415 
Q 353 922 353 1747 
Q 353 2572 751 3078 
Q 1150 3584 1784 3584 
Q 2172 3584 2448 3432 
Q 2725 3281 2906 2969 
L 2906 3500 
L 3481 3500 
L 3481 -1331 
L 2906 -1331 
L 2906 525 
z
" transform="scale(0.015625)"/>
       <path id="DejaVuSans-75" d="M 544 1381 
L 544 3500 
L 1119 3500 
L 1119 1403 
Q 1119 906 1312 657 
Q 1506 409 1894 409 
Q 2359 409 2629 706 
Q 2900 1003 2900 1516 
L 2900 3500 
L 3475 3500 
L 3475 0 
L 2900 0 
L 2900 538 
Q 2691 219 2414 64 
Q 2138 -91 1772 -91 
Q 1169 -91 856 284 
Q 544 659 544 1381 
z
M 1991 3584 
L 1991 3584 
z
" transform="scale(0.015625)"/>
       <path id="DejaVuSans-79" d="M 2059 -325 
Q 1816 -950 1584 -1140 
Q 1353 -1331 966 -1331 
L 506 -1331 
L 506 -850 
L 844 -850 
Q 1081 -850 1212 -737 
Q 1344 -625 1503 -206 
L 1606 56 
L 191 3500 
L 800 3500 
L 1894 763 
L 2988 3500 
L 3597 3500 
L 2059 -325 
z
" transform="scale(0.015625)"/>
       <path id="DejaVuSans-28" d="M 1984 4856 
Q 1566 4138 1362 3434 
Q 1159 2731 1159 2009 
Q 1159 1288 1364 580 
Q 1569 -128 1984 -844 
L 1484 -844 
Q 1016 -109 783 600 
Q 550 1309 550 2009 
Q 550 2706 781 3412 
Q 1013 4119 1484 4856 
L 1984 4856 
z
" transform="scale(0.015625)"/>
       <path id="DejaVuSans-29" d="M 513 4856 
L 1013 4856 
Q 1481 4119 1714 3412 
Q 1947 2706 1947 2009 
Q 1947 1309 1714 600 
Q 1481 -109 1013 -844 
L 513 -844 
Q 928 -128 1133 580 
Q 1338 1288 1338 2009 
Q 1338 2731 1133 3434 
Q 928 4138 513 4856 
z
" transform="scale(0.015625)"/>
      </defs>
      <use xlink:href="#DejaVuSans-74"/>
      <use xlink:href="#DejaVuSans-65" transform="translate(39.208984 0)"/>
      <use xlink:href="#DejaVuSans-6d" transform="translate(100.732422 0)"/>
      <use xlink:href="#DejaVuSans-70" transform="translate(198.144531 0)"/>
      <use xlink:href="#DejaVuSans-6f" transform="translate(261.621094 0)"/>
      <use xlink:href="#DejaVuSans-2f" transform="translate(322.802734 0)"/>
      <use xlink:href="#DejaVuSans-71" transform="translate(356.494141 0)"/>
      <use xlink:href="#DejaVuSans-75" transform="translate(419.970703 0)"/>
      <use xlink:href="#DejaVuSans-65" transform="translate(483.349609 0)"/>
      <use xlink:href="#DejaVuSans-72" transform="translate(544.873047 0)"/>
      <use xlink:href="#DejaVuSans-79" transform="translate(585.986328 0)"/>
      <use xlink:href="#DejaVuSans-20" transform="translate(645.166016 0)"/>
      <use xlink:href="#DejaVuSans-28" transform="translate(676.953125 0)"/>
      <use xlink:href="#DejaVuSans-6d" transform="translate(715.966797 0)"/>
      <use xlink:href="#DejaVuSans-73" transform="translate(813.378906 0)"/>
      <use xlink:href="#DejaVuSans-29" transform="translate(865.478516 0)"/>
     </g>
    </g>
   </g>
   <g id="line2d_40">
    <path d="M 64.550445 239.478004 
L 83.947459 249.936691 
L 122.741486 250.805776 
L 200.32954 250.513766 
L 355.505649 250.903636 
" clip-path="url(#p8dc5cc9e7c)" style="fill: none; stroke: #2a9d8f; stroke-width: 1.5; stroke-linecap: square"/>
    <defs>
     <path id="m411c670bc4" d="M 0 3 
C 0.795609 3 1.55874 2.683901 2.12132 2.12132 
C 2.683901 1.55874 3 0.795609 3 0 
C 3 -0.795609 2.683901 -1.55874 2.12132 -2.12132 
C 1.55874 -2.683901 0.795609 -3 0 -3 
C -0.795609 -3 -1.55874 -2.683901 -2.12132 -2.12132 
C -2.683901 -1.55874 -3 -0.795609 -3 0 
C -3 0.795609 -2.683901 1.55874 -2.12132 2.12132 
C -1.55874 2.683901 -0.795609 3 0 3 
z
" style="stroke: #2a9d8f"/>
    </defs>
    <g clip-path="url(#p8dc5cc9e7c)">
     <use xlink:href="#m411c670bc4" x="64.550445" y="239.478004" style="fill: #2a9d8f; stroke: #2a9d8f"/>
     <use xlink:href="#m411c670bc4" x="83.947459" y="249.936691" style="fill: #2a9d8f; stroke: #2a9d8f"/>
     <use xlink:href="#m411c670bc4" x="122.741486" y="250.805776" style="fill: #2a9d8f; stroke: #2a9d8f"/>
     <use xlink:href="#m411c670bc4" x="200.32954" y="250.513766" style="fill: #2a9d8f; stroke: #2a9d8f"/>
     <use xlink:href="#m411c670bc4" x="355.505649" y="250.903636" style="fill: #2a9d8f; stroke: #2a9d8f"/>
    </g>
   </g>
   <g id="line2d_41">
    <path d="M 64.550445 175.798795 
L 83.947459 131.994834 
L 122.741486 120.054892 
L 200.32954 88.144459 
L 355.505649 60.176364 
" clip-path="url(#p8dc5cc9e7c)" style="fill: none; stroke: #e76f51; stroke-width: 1.5; stroke-linecap: square"/>
    <defs>
     <path id="m64964527fa" d="M -3 3 
L 3 3 
L 3 -3 
L -3 -3 
z
" style="stroke: #e76f51; stroke-linejoin: miter"/>
    </defs>
    <g clip-path="url(#p8dc5cc9e7c)">
     <use xlink:href="#m64964527fa" x="64.550445" y="175.798795" style="fill: #e76f51; stroke: #e76f51; stroke-linejoin: miter"/>
     <use xlink:href="#m64964527fa" x="83.947459" y="131.994834" style="fill: #e76f51; stroke: #e76f51; stroke-linejoin: miter"/>
     <use xlink:href="#m64964527fa" x="122.741486" y="120.054892" style="fill: #e76f51; stroke: #e76f51; stroke-linejoin: miter"/>
     <use xlink:href="#m64964527fa" x="200.32954" y="88.144459" style="fill: #e76f51; stroke: #e76f51; stroke-linejoin: miter"/>
     <use xlink:href="#m64964527fa" x="355.505649" y="60.176364" style="fill: #e76f51; stroke: #e76f51; stroke-linejoin: miter"/>
    </g>
   </g>
   <g id="patch_3">
    <path d="M 50.002685 260.44 
L 50.002685 50.64 
" style="fill: none; stroke: #000000; stroke-width: 0.8; stroke-linejoin: miter; stroke-linecap: square"/>
   </g>
   <g id="patch_4">
    <path d="M 370.053409 260.44 
L 370.053409 50.64 
" style="fill: none; stroke: #000000; stroke-width: 0.8; stroke-linejoin: miter; stroke-linecap: square"/>
   </g>
   <g id="patch_5">
    <path d="M 50.002685 260.44 
L 370.053409 260.44 
" style="fill: none; stroke: #000000; stroke-width: 0.8; stroke-linejoin: miter; stroke-linecap: square"/>
   </g>
   <g id="patch_6">
    <path d="M 50.002685 50.64 
L 370.053409 50.64 
" style="fill: none; stroke: #000000; stroke-width: 0.8; stroke-linejoin: miter; stroke-linecap: square"/>
   </g>
   <g id="text_11">
    <!-- (A) prima/dopo vs N  (PCA 8c/3bit, ~6 bit) -->
    <g transform="translate(84.418047 44.64) scale(0.12 -0.12)">
     <defs>
      <path id="DejaVuSans-41" d="M 2188 4044 
L 1331 1722 
L 3047 1722 
L 2188 4044 
z
M 1831 4666 
L 2547 4666 
L 4325 0 
L 3669 0 
L 3244 1197 
L 1141 1197 
L 716 0 
L 50 0 
L 1831 4666 
z
" transform="scale(0.015625)"/>
      <path id="DejaVuSans-76" d="M 191 3500 
L 800 3500 
L 1894 563 
L 2988 3500 
L 3597 3500 
L 2284 0 
L 1503 0 
L 191 3500 
z
" transform="scale(0.015625)"/>
      <path id="DejaVuSans-50" d="M 1259 4147 
L 1259 2394 
L 2053 2394 
Q 2494 2394 2734 2622 
Q 2975 2850 2975 3272 
Q 2975 3691 2734 3919 
Q 2494 4147 2053 4147 
L 1259 4147 
z
M 628 4666 
L 2053 4666 
Q 2838 4666 3239 4311 
Q 3641 3956 3641 3272 
Q 3641 2581 3239 2228 
Q 2838 1875 2053 1875 
L 1259 1875 
L 1259 0 
L 628 0 
L 628 4666 
z
" transform="scale(0.015625)"/>
      <path id="DejaVuSans-43" d="M 4122 4306 
L 4122 3641 
Q 3803 3938 3442 4084 
Q 3081 4231 2675 4231 
Q 1875 4231 1450 3742 
Q 1025 3253 1025 2328 
Q 1025 1406 1450 917 
Q 1875 428 2675 428 
Q 3081 428 3442 575 
Q 3803 722 4122 1019 
L 4122 359 
Q 3791 134 3420 21 
Q 3050 -91 2638 -91 
Q 1578 -91 968 557 
Q 359 1206 359 2328 
Q 359 3453 968 4101 
Q 1578 4750 2638 4750 
Q 3056 4750 3426 4639 
Q 3797 4528 4122 4306 
z
" transform="scale(0.015625)"/>
      <path id="DejaVuSans-38" d="M 2034 2216 
Q 1584 2216 1326 1975 
Q 1069 1734 1069 1313 
Q 1069 891 1326 650 
Q 1584 409 2034 409 
Q 2484 409 2743 651 
Q 3003 894 3003 1313 
Q 3003 1734 2745 1975 
Q 2488 2216 2034 2216 
z
M 1403 2484 
Q 997 2584 770 2862 
Q 544 3141 544 3541 
Q 544 4100 942 4425 
Q 1341 4750 2034 4750 
Q 2731 4750 3128 4425 
Q 3525 4100 3525 3541 
Q 3525 3141 3298 2862 
Q 3072 2584 2669 2484 
Q 3125 2378 3379 2068 
Q 3634 1759 3634 1313 
Q 3634 634 3220 271 
Q 2806 -91 2034 -91 
Q 1263 -91 848 271 
Q 434 634 434 1313 
Q 434 1759 690 2068 
Q 947 2378 1403 2484 
z
M 1172 3481 
Q 1172 3119 1398 2916 
Q 1625 2713 2034 2713 
Q 2441 2713 2670 2916 
Q 2900 3119 2900 3481 
Q 2900 3844 2670 4047 
Q 2441 4250 2034 4250 
Q 1625 4250 1398 4047 
Q 1172 3844 1172 3481 
z
" transform="scale(0.015625)"/>
      <path id="DejaVuSans-63" d="M 3122 3366 
L 3122 2828 
Q 2878 2963 2633 3030 
Q 2388 3097 2138 3097 
Q 1578 3097 1268 2742 
Q 959 2388 959 1747 
Q 959 1106 1268 751 
Q 1578 397 2138 397 
Q 2388 397 2633 464 
Q 2878 531 3122 666 
L 3122 134 
Q 2881 22 2623 -34 
Q 2366 -91 2075 -91 
Q 1284 -91 818 406 
Q 353 903 353 1747 
Q 353 2603 823 3093 
Q 1294 3584 2113 3584 
Q 2378 3584 2631 3529 
Q 2884 3475 3122 3366 
z
" transform="scale(0.015625)"/>
      <path id="DejaVuSans-62" d="M 3116 1747 
Q 3116 2381 2855 2742 
Q 2594 3103 2138 3103 
Q 1681 3103 1420 2742 
Q 1159 2381 1159 1747 
Q 1159 1113 1420 752 
Q 1681 391 2138 391 
Q 2594 391 2855 752 
Q 3116 1113 3116 1747 
z
M 1159 2969 
Q 1341 3281 1617 3432 
Q 1894 3584 2278 3584 
Q 2916 3584 3314 3078 
Q 3713 2572 3713 1747 
Q 3713 922 3314 415 
Q 2916 -91 2278 -91 
Q 1894 -91 1617 61 
Q 1341 213 1159 525 
L 1159 0 
L 581 0 
L 581 4863 
L 1159 4863 
L 1159 2969 
z
" transform="scale(0.015625)"/>
      <path id="DejaVuSans-2c" d="M 750 794 
L 1409 794 
L 1409 256 
L 897 -744 
L 494 -744 
L 750 256 
L 750 794 
z
" transform="scale(0.015625)"/>
      <path id="DejaVuSans-7e" d="M 4684 2553 
L 4684 1997 
Q 4356 1750 4076 1644 
Q 3797 1538 3494 1538 
Q 3150 1538 2694 1722 
Q 2659 1734 2644 1741 
Q 2622 1750 2575 1766 
Q 2091 1959 1797 1959 
Q 1522 1959 1253 1839 
Q 984 1719 678 1459 
L 678 2016 
Q 1006 2263 1286 2370 
Q 1566 2478 1869 2478 
Q 2213 2478 2672 2291 
Q 2703 2278 2719 2272 
Q 2744 2263 2788 2247 
Q 3272 2053 3566 2053 
Q 3834 2053 4098 2172 
Q 4363 2291 4684 2553 
z
" transform="scale(0.015625)"/>
      <path id="DejaVuSans-36" d="M 2113 2584 
Q 1688 2584 1439 2293 
Q 1191 2003 1191 1497 
Q 1191 994 1439 701 
Q 1688 409 2113 409 
Q 2538 409 2786 701 
Q 3034 994 3034 1497 
Q 3034 2003 2786 2293 
Q 2538 2584 2113 2584 
z
M 3366 4563 
L 3366 3988 
Q 3128 4100 2886 4159 
Q 2644 4219 2406 4219 
Q 1781 4219 1451 3797 
Q 1122 3375 1075 2522 
Q 1259 2794 1537 2939 
Q 1816 3084 2150 3084 
Q 2853 3084 3261 2657 
Q 3669 2231 3669 1497 
Q 3669 778 3244 343 
Q 2819 -91 2113 -91 
Q 1303 -91 875 529 
Q 447 1150 447 2328 
Q 447 3434 972 4092 
Q 1497 4750 2381 4750 
Q 2619 4750 2861 4703 
Q 3103 4656 3366 4563 
z
" transform="scale(0.015625)"/>
     </defs>
     <use xlink:href="#DejaVuSans-28"/>
     <use xlink:href="#DejaVuSans-41" transform="translate(39.013672 0)"/>
     <use xlink:href="#DejaVuSans-29" transform="translate(107.421875 0)"/>
     <use xlink:href="#DejaVuSans-20" transform="translate(146.435547 0)"/>
     <use xlink:href="#DejaVuSans-70" transform="translate(178.222656 0)"/>
     <use xlink:href="#DejaVuSans-72" transform="translate(241.699219 0)"/>
     <use xlink:href="#DejaVuSans-69" transform="translate(282.8125 0)"/>
     <use xlink:href="#DejaVuSans-6d" transform="translate(310.595703 0)"/>
     <use xlink:href="#DejaVuSans-61" transform="translate(408.007812 0)"/>
     <use xlink:href="#DejaVuSans-2f" transform="translate(469.287109 0)"/>
     <use xlink:href="#DejaVuSans-64" transform="translate(502.978516 0)"/>
     <use xlink:href="#DejaVuSans-6f" transform="translate(566.455078 0)"/>
     <use xlink:href="#DejaVuSans-70" transform="translate(627.636719 0)"/>
     <use xlink:href="#DejaVuSans-6f" transform="translate(691.113281 0)"/>
     <use xlink:href="#DejaVuSans-20" transform="translate(752.294922 0)"/>
     <use xlink:href="#DejaVuSans-76" transform="translate(784.082031 0)"/>
     <use xlink:href="#DejaVuSans-73" transform="translate(843.261719 0)"/>
     <use xlink:href="#DejaVuSans-20" transform="translate(895.361328 0)"/>
     <use xlink:href="#DejaVuSans-4e" transform="translate(927.148438 0)"/>
     <use xlink:href="#DejaVuSans-20" transform="translate(1001.953125 0)"/>
     <use xlink:href="#DejaVuSans-20" transform="translate(1033.740234 0)"/>
     <use xlink:href="#DejaVuSans-28" transform="translate(1065.527344 0)"/>
     <use xlink:href="#DejaVuSans-50" transform="translate(1104.541016 0)"/>
     <use xlink:href="#DejaVuSans-43" transform="translate(1164.84375 0)"/>
     <use xlink:href="#DejaVuSans-41" transform="translate(1234.667969 0)"/>
     <use xlink:href="#DejaVuSans-20" transform="translate(1303.076172 0)"/>
     <use xlink:href="#DejaVuSans-38" transform="translate(1334.863281 0)"/>
     <use xlink:href="#DejaVuSans-63" transform="translate(1398.486328 0)"/>
     <use xlink:href="#DejaVuSans-2f" transform="translate(1453.466797 0)"/>
     <use xlink:href="#DejaVuSans-33" transform="translate(1487.158203 0)"/>
     <use xlink:href="#DejaVuSans-62" transform="translate(1550.78125 0)"/>
     <use xlink:href="#DejaVuSans-69" transform="translate(1614.257812 0)"/>
     <use xlink:href="#DejaVuSans-74" transform="translate(1642.041016 0)"/>
     <use xlink:href="#DejaVuSans-2c" transform="translate(1681.25 0)"/>
     <use xlink:href="#DejaVuSans-20" transform="translate(1713.037109 0)"/>
     <use xlink:href="#DejaVuSans-7e" transform="translate(1744.824219 0)"/>
     <use xlink:href="#DejaVuSans-36" transform="translate(1828.613281 0)"/>
     <use xlink:href="#DejaVuSans-20" transform="translate(1892.236328 0)"/>
     <use xlink:href="#DejaVuSans-62" transform="translate(1924.023438 0)"/>
     <use xlink:href="#DejaVuSans-69" transform="translate(1987.5 0)"/>
     <use xlink:href="#DejaVuSans-74" transform="translate(2015.283203 0)"/>
     <use xlink:href="#DejaVuSans-29" transform="translate(2054.492188 0)"/>
    </g>
   </g>
   <g id="legend_1">
    <g id="patch_7">
     <path d="M 167.045597 171.718125 
L 363.053409 171.718125 
Q 365.053409 171.718125 365.053409 169.718125 
L 365.053409 141.361875 
Q 365.053409 139.361875 363.053409 139.361875 
L 167.045597 139.361875 
Q 165.045597 139.361875 165.045597 141.361875 
L 165.045597 169.718125 
Q 165.045597 171.718125 167.045597 171.718125 
z
" style="fill: #ffffff; opacity: 0.8; stroke: #cccccc; stroke-linejoin: miter"/>
    </g>
    <g id="line2d_42">
     <path d="M 169.045597 147.460313 
L 179.045597 147.460313 
L 189.045597 147.460313 
" style="fill: none; stroke: #2a9d8f; stroke-width: 1.5; stroke-linecap: square"/>
     <g>
      <use xlink:href="#m411c670bc4" x="179.045597" y="147.460313" style="fill: #2a9d8f; stroke: #2a9d8f"/>
     </g>
    </g>
    <g id="text_12">
     <!-- PRIMA — argmin sul client -->
     <g transform="translate(197.045597 150.960313) scale(0.1 -0.1)">
      <defs>
       <path id="DejaVuSans-52" d="M 2841 2188 
Q 3044 2119 3236 1894 
Q 3428 1669 3622 1275 
L 4263 0 
L 3584 0 
L 2988 1197 
Q 2756 1666 2539 1819 
Q 2322 1972 1947 1972 
L 1259 1972 
L 1259 0 
L 628 0 
L 628 4666 
L 2053 4666 
Q 2853 4666 3247 4331 
Q 3641 3997 3641 3322 
Q 3641 2881 3436 2590 
Q 3231 2300 2841 2188 
z
M 1259 4147 
L 1259 2491 
L 2053 2491 
Q 2509 2491 2742 2702 
Q 2975 2913 2975 3322 
Q 2975 3731 2742 3939 
Q 2509 4147 2053 4147 
L 1259 4147 
z
" transform="scale(0.015625)"/>
       <path id="DejaVuSans-49" d="M 628 4666 
L 1259 4666 
L 1259 0 
L 628 0 
L 628 4666 
z
" transform="scale(0.015625)"/>
       <path id="DejaVuSans-4d" d="M 628 4666 
L 1569 4666 
L 2759 1491 
L 3956 4666 
L 4897 4666 
L 4897 0 
L 4281 0 
L 4281 4097 
L 3078 897 
L 2444 897 
L 1241 4097 
L 1241 0 
L 628 0 
L 628 4666 
z
" transform="scale(0.015625)"/>
       <path id="DejaVuSans-2014" d="M 313 1978 
L 6088 1978 
L 6088 1528 
L 313 1528 
L 313 1978 
z
" transform="scale(0.015625)"/>
      </defs>
      <use xlink:href="#DejaVuSans-50"/>
      <use xlink:href="#DejaVuSans-52" transform="translate(60.302734 0)"/>
      <use xlink:href="#DejaVuSans-49" transform="translate(129.785156 0)"/>
      <use xlink:href="#DejaVuSans-4d" transform="translate(159.277344 0)"/>
      <use xlink:href="#DejaVuSans-41" transform="translate(245.556641 0)"/>
      <use xlink:href="#DejaVuSans-20" transform="translate(313.964844 0)"/>
      <use xlink:href="#DejaVuSans-2014" transform="translate(345.751953 0)"/>
      <use xlink:href="#DejaVuSans-20" transform="translate(445.751953 0)"/>
      <use xlink:href="#DejaVuSans-61" transform="translate(477.539062 0)"/>
      <use xlink:href="#DejaVuSans-72" transform="translate(538.818359 0)"/>
      <use xlink:href="#DejaVuSans-67" transform="translate(578.181641 0)"/>
      <use xlink:href="#DejaVuSans-6d" transform="translate(641.658203 0)"/>
      <use xlink:href="#DejaVuSans-69" transform="translate(739.070312 0)"/>
      <use xlink:href="#DejaVuSans-6e" transform="translate(766.853516 0)"/>
      <use xlink:href="#DejaVuSans-20" transform="translate(830.232422 0)"/>
      <use xlink:href="#DejaVuSans-73" transform="translate(862.019531 0)"/>
      <use xlink:href="#DejaVuSans-75" transform="translate(914.119141 0)"/>
      <use xlink:href="#DejaVuSans-6c" transform="translate(977.498047 0)"/>
      <use xlink:href="#DejaVuSans-20" transform="translate(1005.28125 0)"/>
      <use xlink:href="#DejaVuSans-63" transform="translate(1037.068359 0)"/>
      <use xlink:href="#DejaVuSans-6c" transform="translate(1092.048828 0)"/>
      <use xlink:href="#DejaVuSans-69" transform="translate(1119.832031 0)"/>
      <use xlink:href="#DejaVuSans-65" transform="translate(1147.615234 0)"/>
      <use xlink:href="#DejaVuSans-6e" transform="translate(1209.138672 0)"/>
      <use xlink:href="#DejaVuSans-74" transform="translate(1272.517578 0)"/>
     </g>
    </g>
    <g id="line2d_43">
     <path d="M 169.045597 162.138438 
L 179.045597 162.138438 
L 189.045597 162.138438 
" style="fill: none; stroke: #e76f51; stroke-width: 1.5; stroke-linecap: square"/>
     <g>
      <use xlink:href="#m64964527fa" x="179.045597" y="162.138438" style="fill: #e76f51; stroke: #e76f51; stroke-linejoin: miter"/>
     </g>
    </g>
    <g id="text_13">
     <!-- DOPO — argmin sul server (FHE) -->
     <g transform="translate(197.045597 165.638438) scale(0.1 -0.1)">
      <defs>
       <path id="DejaVuSans-44" d="M 1259 4147 
L 1259 519 
L 2022 519 
Q 2988 519 3436 956 
Q 3884 1394 3884 2338 
Q 3884 3275 3436 3711 
Q 2988 4147 2022 4147 
L 1259 4147 
z
M 628 4666 
L 1925 4666 
Q 3281 4666 3915 4102 
Q 4550 3538 4550 2338 
Q 4550 1131 3912 565 
Q 3275 0 1925 0 
L 628 0 
L 628 4666 
z
" transform="scale(0.015625)"/>
       <path id="DejaVuSans-4f" d="M 2522 4238 
Q 1834 4238 1429 3725 
Q 1025 3213 1025 2328 
Q 1025 1447 1429 934 
Q 1834 422 2522 422 
Q 3209 422 3611 934 
Q 4013 1447 4013 2328 
Q 4013 3213 3611 3725 
Q 3209 4238 2522 4238 
z
M 2522 4750 
Q 3503 4750 4090 4092 
Q 4678 3434 4678 2328 
Q 4678 1225 4090 567 
Q 3503 -91 2522 -91 
Q 1538 -91 948 565 
Q 359 1222 359 2328 
Q 359 3434 948 4092 
Q 1538 4750 2522 4750 
z
" transform="scale(0.015625)"/>
       <path id="DejaVuSans-46" d="M 628 4666 
L 3309 4666 
L 3309 4134 
L 1259 4134 
L 1259 2759 
L 3109 2759 
L 3109 2228 
L 1259 2228 
L 1259 0 
L 628 0 
L 628 4666 
z
" transform="scale(0.015625)"/>
       <path id="DejaVuSans-48" d="M 628 4666 
L 1259 4666 
L 1259 2753 
L 3553 2753 
L 3553 4666 
L 4184 4666 
L 4184 0 
L 3553 0 
L 3553 2222 
L 1259 2222 
L 1259 0 
L 628 0 
L 628 4666 
z
" transform="scale(0.015625)"/>
       <path id="DejaVuSans-45" d="M 628 4666 
L 3578 4666 
L 3578 4134 
L 1259 4134 
L 1259 2753 
L 3481 2753 
L 3481 2222 
L 1259 2222 
L 1259 531 
L 3634 531 
L 3634 0 
L 628 0 
L 628 4666 
z
" transform="scale(0.015625)"/>
      </defs>
      <use xlink:href="#DejaVuSans-44"/>
      <use xlink:href="#DejaVuSans-4f" transform="translate(77.001953 0)"/>
      <use xlink:href="#DejaVuSans-50" transform="translate(155.712891 0)"/>
      <use xlink:href="#DejaVuSans-4f" transform="translate(216.015625 0)"/>
      <use xlink:href="#DejaVuSans-20" transform="translate(294.726562 0)"/>
      <use xlink:href="#DejaVuSans-2014" transform="translate(326.513672 0)"/>
      <use xlink:href="#DejaVuSans-20" transform="translate(426.513672 0)"/>
      <use xlink:href="#DejaVuSans-61" transform="translate(458.300781 0)"/>
      <use xlink:href="#DejaVuSans-72" transform="translate(519.580078 0)"/>
      <use xlink:href="#DejaVuSans-67" transform="translate(558.943359 0)"/>
      <use xlink:href="#DejaVuSans-6d" transform="translate(622.419922 0)"/>
      <use xlink:href="#DejaVuSans-69" transform="translate(719.832031 0)"/>
      <use xlink:href="#DejaVuSans-6e" transform="translate(747.615234 0)"/>
      <use xlink:href="#DejaVuSans-20" transform="translate(810.994141 0)"/>
      <use xlink:href="#DejaVuSans-73" transform="translate(842.78125 0)"/>
      <use xlink:href="#DejaVuSans-75" transform="translate(894.880859 0)"/>
      <use xlink:href="#DejaVuSans-6c" transform="translate(958.259766 0)"/>
      <use xlink:href="#DejaVuSans-20" transform="translate(986.042969 0)"/>
      <use xlink:href="#DejaVuSans-73" transform="translate(1017.830078 0)"/>
      <use xlink:href="#DejaVuSans-65" transform="translate(1069.929688 0)"/>
      <use xlink:href="#DejaVuSans-72" transform="translate(1131.453125 0)"/>
      <use xlink:href="#DejaVuSans-76" transform="translate(1172.566406 0)"/>
      <use xlink:href="#DejaVuSans-65" transform="translate(1231.746094 0)"/>
      <use xlink:href="#DejaVuSans-72" transform="translate(1293.269531 0)"/>
      <use xlink:href="#DejaVuSans-20" transform="translate(1334.382812 0)"/>
      <use xlink:href="#DejaVuSans-28" transform="translate(1366.169922 0)"/>
      <use xlink:href="#DejaVuSans-46" transform="translate(1405.183594 0)"/>
      <use xlink:href="#DejaVuSans-48" transform="translate(1462.703125 0)"/>
      <use xlink:href="#DejaVuSans-45" transform="translate(1537.898438 0)"/>
      <use xlink:href="#DejaVuSans-29" transform="translate(1601.082031 0)"/>
     </g>
    </g>
   </g>
  </g>
  <g id="axes_2">
   <g id="patch_8">
    <path d="M 420.191094 260.44 
L 740.241818 260.44 
L 740.241818 50.64 
L 420.191094 50.64 
z
" style="fill: #ffffff"/>
   </g>
   <g id="matplotlib.axis_3">
    <g id="xtick_7">
     <g id="line2d_44">
      <path d="M 467.06721 260.44 
L 467.06721 50.64 
" clip-path="url(#p47b6a5cc8b)" style="fill: none; stroke: #b0b0b0; stroke-opacity: 0.3; stroke-width: 0.8; stroke-linecap: square"/>
     </g>
     <g id="line2d_45">
      <g>
       <use xlink:href="#m7b5540e638" x="467.06721" y="260.44" style="stroke: #000000; stroke-width: 0.8"/>
      </g>
     </g>
     <g id="text_14">
      <!-- 6 -->
      <g transform="translate(463.88596 275.038438) scale(0.1 -0.1)">
       <use xlink:href="#DejaVuSans-36"/>
      </g>
     </g>
    </g>
    <g id="xtick_8">
     <g id="line2d_46">
      <path d="M 531.723922 260.44 
L 531.723922 50.64 
" clip-path="url(#p47b6a5cc8b)" style="fill: none; stroke: #b0b0b0; stroke-opacity: 0.3; stroke-width: 0.8; stroke-linecap: square"/>
     </g>
     <g id="line2d_47">
      <g>
       <use xlink:href="#m7b5540e638" x="531.723922" y="260.44" style="stroke: #000000; stroke-width: 0.8"/>
      </g>
     </g>
     <g id="text_15">
      <!-- 8 -->
      <g transform="translate(528.542672 275.038438) scale(0.1 -0.1)">
       <use xlink:href="#DejaVuSans-38"/>
      </g>
     </g>
    </g>
    <g id="xtick_9">
     <g id="line2d_48">
      <path d="M 596.380634 260.44 
L 596.380634 50.64 
" clip-path="url(#p47b6a5cc8b)" style="fill: none; stroke: #b0b0b0; stroke-opacity: 0.3; stroke-width: 0.8; stroke-linecap: square"/>
     </g>
     <g id="line2d_49">
      <g>
       <use xlink:href="#m7b5540e638" x="596.380634" y="260.44" style="stroke: #000000; stroke-width: 0.8"/>
      </g>
     </g>
     <g id="text_16">
      <!-- 10 -->
      <g transform="translate(590.018134 275.038438) scale(0.1 -0.1)">
       <use xlink:href="#DejaVuSans-31"/>
       <use xlink:href="#DejaVuSans-30" transform="translate(63.623047 0)"/>
      </g>
     </g>
    </g>
    <g id="xtick_10">
     <g id="line2d_50">
      <path d="M 661.037346 260.44 
L 661.037346 50.64 
" clip-path="url(#p47b6a5cc8b)" style="fill: none; stroke: #b0b0b0; stroke-opacity: 0.3; stroke-width: 0.8; stroke-linecap: square"/>
     </g>
     <g id="line2d_51">
      <g>
       <use xlink:href="#m7b5540e638" x="661.037346" y="260.44" style="stroke: #000000; stroke-width: 0.8"/>
      </g>
     </g>
     <g id="text_17">
      <!-- 12 -->
      <g transform="translate(654.674846 275.038438) scale(0.1 -0.1)">
       <use xlink:href="#DejaVuSans-31"/>
       <use xlink:href="#DejaVuSans-32" transform="translate(63.623047 0)"/>
      </g>
     </g>
    </g>
    <g id="xtick_11">
     <g id="line2d_52">
      <path d="M 725.694058 260.44 
L 725.694058 50.64 
" clip-path="url(#p47b6a5cc8b)" style="fill: none; stroke: #b0b0b0; stroke-opacity: 0.3; stroke-width: 0.8; stroke-linecap: square"/>
     </g>
     <g id="line2d_53">
      <g>
       <use xlink:href="#m7b5540e638" x="725.694058" y="260.44" style="stroke: #000000; stroke-width: 0.8"/>
      </g>
     </g>
     <g id="text_18">
      <!-- 14 -->
      <g transform="translate(719.331558 275.038438) scale(0.1 -0.1)">
       <defs>
        <path id="DejaVuSans-34" d="M 2419 4116 
L 825 1625 
L 2419 1625 
L 2419 4116 
z
M 2253 4666 
L 3047 4666 
L 3047 1625 
L 3713 1625 
L 3713 1100 
L 3047 1100 
L 3047 0 
L 2419 0 
L 2419 1100 
L 313 1100 
L 313 1709 
L 2253 4666 
z
" transform="scale(0.015625)"/>
       </defs>
       <use xlink:href="#DejaVuSans-31"/>
       <use xlink:href="#DejaVuSans-34" transform="translate(63.623047 0)"/>
      </g>
     </g>
    </g>
    <g id="text_19">
     <!-- larghezza punteggi (bit) -->
     <g transform="translate(520.174269 288.716563) scale(0.1 -0.1)">
      <defs>
       <path id="DejaVuSans-68" d="M 3513 2113 
L 3513 0 
L 2938 0 
L 2938 2094 
Q 2938 2591 2744 2837 
Q 2550 3084 2163 3084 
Q 1697 3084 1428 2787 
Q 1159 2491 1159 1978 
L 1159 0 
L 581 0 
L 581 4863 
L 1159 4863 
L 1159 2956 
Q 1366 3272 1645 3428 
Q 1925 3584 2291 3584 
Q 2894 3584 3203 3211 
Q 3513 2838 3513 2113 
z
" transform="scale(0.015625)"/>
       <path id="DejaVuSans-7a" d="M 353 3500 
L 3084 3500 
L 3084 2975 
L 922 459 
L 3084 459 
L 3084 0 
L 275 0 
L 275 525 
L 2438 3041 
L 353 3041 
L 353 3500 
z
" transform="scale(0.015625)"/>
      </defs>
      <use xlink:href="#DejaVuSans-6c"/>
      <use xlink:href="#DejaVuSans-61" transform="translate(27.783203 0)"/>
      <use xlink:href="#DejaVuSans-72" transform="translate(89.0625 0)"/>
      <use xlink:href="#DejaVuSans-67" transform="translate(128.425781 0)"/>
      <use xlink:href="#DejaVuSans-68" transform="translate(191.902344 0)"/>
      <use xlink:href="#DejaVuSans-65" transform="translate(255.28125 0)"/>
      <use xlink:href="#DejaVuSans-7a" transform="translate(316.804688 0)"/>
      <use xlink:href="#DejaVuSans-7a" transform="translate(369.294922 0)"/>
      <use xlink:href="#DejaVuSans-61" transform="translate(421.785156 0)"/>
      <use xlink:href="#DejaVuSans-20" transform="translate(483.064453 0)"/>
      <use xlink:href="#DejaVuSans-70" transform="translate(514.851562 0)"/>
      <use xlink:href="#DejaVuSans-75" transform="translate(578.328125 0)"/>
      <use xlink:href="#DejaVuSans-6e" transform="translate(641.707031 0)"/>
      <use xlink:href="#DejaVuSans-74" transform="translate(705.085938 0)"/>
      <use xlink:href="#DejaVuSans-65" transform="translate(744.294922 0)"/>
      <use xlink:href="#DejaVuSans-67" transform="translate(805.818359 0)"/>
      <use xlink:href="#DejaVuSans-67" transform="translate(869.294922 0)"/>
      <use xlink:href="#DejaVuSans-69" transform="translate(932.771484 0)"/>
      <use xlink:href="#DejaVuSans-20" transform="translate(960.554688 0)"/>
      <use xlink:href="#DejaVuSans-28" transform="translate(992.341797 0)"/>
      <use xlink:href="#DejaVuSans-62" transform="translate(1031.355469 0)"/>
      <use xlink:href="#DejaVuSans-69" transform="translate(1094.832031 0)"/>
      <use xlink:href="#DejaVuSans-74" transform="translate(1122.615234 0)"/>
      <use xlink:href="#DejaVuSans-29" transform="translate(1161.824219 0)"/>
     </g>
    </g>
   </g>
   <g id="matplotlib.axis_4">
    <g id="ytick_26">
     <g id="line2d_54">
      <path d="M 420.191094 223.88735 
L 740.241818 223.88735 
" clip-path="url(#p47b6a5cc8b)" style="fill: none; stroke: #b0b0b0; stroke-opacity: 0.3; stroke-width: 0.8; stroke-linecap: square"/>
     </g>
     <g id="line2d_55">
      <g>
       <use xlink:href="#me31e1729a1" x="420.191094" y="223.88735" style="stroke: #000000; stroke-width: 0.8"/>
      </g>
     </g>
     <g id="text_20">
      <!-- $\mathdefault{10^{1}}$ -->
      <g transform="translate(395.591094 227.686569) scale(0.1 -0.1)">
       <use xlink:href="#DejaVuSans-31" transform="translate(0 0.684375)"/>
       <use xlink:href="#DejaVuSans-30" transform="translate(63.623047 0.684375)"/>
       <use xlink:href="#DejaVuSans-31" transform="translate(128.203125 38.965625) scale(0.7)"/>
      </g>
     </g>
    </g>
    <g id="ytick_27">
     <g id="line2d_56">
      <path d="M 420.191094 185.235782 
L 740.241818 185.235782 
" clip-path="url(#p47b6a5cc8b)" style="fill: none; stroke: #b0b0b0; stroke-opacity: 0.3; stroke-width: 0.8; stroke-linecap: square"/>
     </g>
     <g id="line2d_57">
      <g>
       <use xlink:href="#me31e1729a1" x="420.191094" y="185.235782" style="stroke: #000000; stroke-width: 0.8"/>
      </g>
     </g>
     <g id="text_21">
      <!-- $\mathdefault{10^{2}}$ -->
      <g transform="translate(395.591094 189.035001) scale(0.1 -0.1)">
       <use xlink:href="#DejaVuSans-31" transform="translate(0 0.765625)"/>
       <use xlink:href="#DejaVuSans-30" transform="translate(63.623047 0.765625)"/>
       <use xlink:href="#DejaVuSans-32" transform="translate(128.203125 39.046875) scale(0.7)"/>
      </g>
     </g>
    </g>
    <g id="ytick_28">
     <g id="line2d_58">
      <path d="M 420.191094 146.584214 
L 740.241818 146.584214 
" clip-path="url(#p47b6a5cc8b)" style="fill: none; stroke: #b0b0b0; stroke-opacity: 0.3; stroke-width: 0.8; stroke-linecap: square"/>
     </g>
     <g id="line2d_59">
      <g>
       <use xlink:href="#me31e1729a1" x="420.191094" y="146.584214" style="stroke: #000000; stroke-width: 0.8"/>
      </g>
     </g>
     <g id="text_22">
      <!-- $\mathdefault{10^{3}}$ -->
      <g transform="translate(395.591094 150.383433) scale(0.1 -0.1)">
       <use xlink:href="#DejaVuSans-31" transform="translate(0 0.765625)"/>
       <use xlink:href="#DejaVuSans-30" transform="translate(63.623047 0.765625)"/>
       <use xlink:href="#DejaVuSans-33" transform="translate(128.203125 39.046875) scale(0.7)"/>
      </g>
     </g>
    </g>
    <g id="ytick_29">
     <g id="line2d_60">
      <path d="M 420.191094 107.932646 
L 740.241818 107.932646 
" clip-path="url(#p47b6a5cc8b)" style="fill: none; stroke: #b0b0b0; stroke-opacity: 0.3; stroke-width: 0.8; stroke-linecap: square"/>
     </g>
     <g id="line2d_61">
      <g>
       <use xlink:href="#me31e1729a1" x="420.191094" y="107.932646" style="stroke: #000000; stroke-width: 0.8"/>
      </g>
     </g>
     <g id="text_23">
      <!-- $\mathdefault{10^{4}}$ -->
      <g transform="translate(395.591094 111.731865) scale(0.1 -0.1)">
       <use xlink:href="#DejaVuSans-31" transform="translate(0 0.684375)"/>
       <use xlink:href="#DejaVuSans-30" transform="translate(63.623047 0.684375)"/>
       <use xlink:href="#DejaVuSans-34" transform="translate(128.203125 38.965625) scale(0.7)"/>
      </g>
     </g>
    </g>
    <g id="ytick_30">
     <g id="line2d_62">
      <path d="M 420.191094 69.281078 
L 740.241818 69.281078 
" clip-path="url(#p47b6a5cc8b)" style="fill: none; stroke: #b0b0b0; stroke-opacity: 0.3; stroke-width: 0.8; stroke-linecap: square"/>
     </g>
     <g id="line2d_63">
      <g>
       <use xlink:href="#me31e1729a1" x="420.191094" y="69.281078" style="stroke: #000000; stroke-width: 0.8"/>
      </g>
     </g>
     <g id="text_24">
      <!-- $\mathdefault{10^{5}}$ -->
      <g transform="translate(395.591094 73.080297) scale(0.1 -0.1)">
       <use xlink:href="#DejaVuSans-31" transform="translate(0 0.684375)"/>
       <use xlink:href="#DejaVuSans-30" transform="translate(63.623047 0.684375)"/>
       <use xlink:href="#DejaVuSans-35" transform="translate(128.203125 38.965625) scale(0.7)"/>
      </g>
     </g>
    </g>
    <g id="ytick_31">
     <g id="line2d_64">
      <g>
       <use xlink:href="#m02160b8ee1" x="420.191094" y="250.903636" style="stroke: #000000; stroke-width: 0.6"/>
      </g>
     </g>
    </g>
    <g id="ytick_32">
     <g id="line2d_65">
      <g>
       <use xlink:href="#m02160b8ee1" x="420.191094" y="244.097433" style="stroke: #000000; stroke-width: 0.6"/>
      </g>
     </g>
    </g>
    <g id="ytick_33">
     <g id="line2d_66">
      <g>
       <use xlink:href="#m02160b8ee1" x="420.191094" y="239.268355" style="stroke: #000000; stroke-width: 0.6"/>
      </g>
     </g>
    </g>
    <g id="ytick_34">
     <g id="line2d_67">
      <g>
       <use xlink:href="#m02160b8ee1" x="420.191094" y="235.522631" style="stroke: #000000; stroke-width: 0.6"/>
      </g>
     </g>
    </g>
    <g id="ytick_35">
     <g id="line2d_68">
      <g>
       <use xlink:href="#m02160b8ee1" x="420.191094" y="232.462152" style="stroke: #000000; stroke-width: 0.6"/>
      </g>
     </g>
    </g>
    <g id="ytick_36">
     <g id="line2d_69">
      <g>
       <use xlink:href="#m02160b8ee1" x="420.191094" y="229.874553" style="stroke: #000000; stroke-width: 0.6"/>
      </g>
     </g>
    </g>
    <g id="ytick_37">
     <g id="line2d_70">
      <g>
       <use xlink:href="#m02160b8ee1" x="420.191094" y="227.633074" style="stroke: #000000; stroke-width: 0.6"/>
      </g>
     </g>
    </g>
    <g id="ytick_38">
     <g id="line2d_71">
      <g>
       <use xlink:href="#m02160b8ee1" x="420.191094" y="225.655949" style="stroke: #000000; stroke-width: 0.6"/>
      </g>
     </g>
    </g>
    <g id="ytick_39">
     <g id="line2d_72">
      <g>
       <use xlink:href="#m02160b8ee1" x="420.191094" y="212.252069" style="stroke: #000000; stroke-width: 0.6"/>
      </g>
     </g>
    </g>
    <g id="ytick_40">
     <g id="line2d_73">
      <g>
       <use xlink:href="#m02160b8ee1" x="420.191094" y="205.445865" style="stroke: #000000; stroke-width: 0.6"/>
      </g>
     </g>
    </g>
    <g id="ytick_41">
     <g id="line2d_74">
      <g>
       <use xlink:href="#m02160b8ee1" x="420.191094" y="200.616787" style="stroke: #000000; stroke-width: 0.6"/>
      </g>
     </g>
    </g>
    <g id="ytick_42">
     <g id="line2d_75">
      <g>
       <use xlink:href="#m02160b8ee1" x="420.191094" y="196.871063" style="stroke: #000000; stroke-width: 0.6"/>
      </g>
     </g>
    </g>
    <g id="ytick_43">
     <g id="line2d_76">
      <g>
       <use xlink:href="#m02160b8ee1" x="420.191094" y="193.810584" style="stroke: #000000; stroke-width: 0.6"/>
      </g>
     </g>
    </g>
    <g id="ytick_44">
     <g id="line2d_77">
      <g>
       <use xlink:href="#m02160b8ee1" x="420.191094" y="191.222986" style="stroke: #000000; stroke-width: 0.6"/>
      </g>
     </g>
    </g>
    <g id="ytick_45">
     <g id="line2d_78">
      <g>
       <use xlink:href="#m02160b8ee1" x="420.191094" y="188.981506" style="stroke: #000000; stroke-width: 0.6"/>
      </g>
     </g>
    </g>
    <g id="ytick_46">
     <g id="line2d_79">
      <g>
       <use xlink:href="#m02160b8ee1" x="420.191094" y="187.004381" style="stroke: #000000; stroke-width: 0.6"/>
      </g>
     </g>
    </g>
    <g id="ytick_47">
     <g id="line2d_80">
      <g>
       <use xlink:href="#m02160b8ee1" x="420.191094" y="173.600501" style="stroke: #000000; stroke-width: 0.6"/>
      </g>
     </g>
    </g>
    <g id="ytick_48">
     <g id="line2d_81">
      <g>
       <use xlink:href="#m02160b8ee1" x="420.191094" y="166.794297" style="stroke: #000000; stroke-width: 0.6"/>
      </g>
     </g>
    </g>
    <g id="ytick_49">
     <g id="line2d_82">
      <g>
       <use xlink:href="#m02160b8ee1" x="420.191094" y="161.965219" style="stroke: #000000; stroke-width: 0.6"/>
      </g>
     </g>
    </g>
    <g id="ytick_50">
     <g id="line2d_83">
      <g>
       <use xlink:href="#m02160b8ee1" x="420.191094" y="158.219495" style="stroke: #000000; stroke-width: 0.6"/>
      </g>
     </g>
    </g>
    <g id="ytick_51">
     <g id="line2d_84">
      <g>
       <use xlink:href="#m02160b8ee1" x="420.191094" y="155.159016" style="stroke: #000000; stroke-width: 0.6"/>
      </g>
     </g>
    </g>
    <g id="ytick_52">
     <g id="line2d_85">
      <g>
       <use xlink:href="#m02160b8ee1" x="420.191094" y="152.571418" style="stroke: #000000; stroke-width: 0.6"/>
      </g>
     </g>
    </g>
    <g id="ytick_53">
     <g id="line2d_86">
      <g>
       <use xlink:href="#m02160b8ee1" x="420.191094" y="150.329938" style="stroke: #000000; stroke-width: 0.6"/>
      </g>
     </g>
    </g>
    <g id="ytick_54">
     <g id="line2d_87">
      <g>
       <use xlink:href="#m02160b8ee1" x="420.191094" y="148.352813" style="stroke: #000000; stroke-width: 0.6"/>
      </g>
     </g>
    </g>
    <g id="ytick_55">
     <g id="line2d_88">
      <g>
       <use xlink:href="#m02160b8ee1" x="420.191094" y="134.948933" style="stroke: #000000; stroke-width: 0.6"/>
      </g>
     </g>
    </g>
    <g id="ytick_56">
     <g id="line2d_89">
      <g>
       <use xlink:href="#m02160b8ee1" x="420.191094" y="128.14273" style="stroke: #000000; stroke-width: 0.6"/>
      </g>
     </g>
    </g>
    <g id="ytick_57">
     <g id="line2d_90">
      <g>
       <use xlink:href="#m02160b8ee1" x="420.191094" y="123.313652" style="stroke: #000000; stroke-width: 0.6"/>
      </g>
     </g>
    </g>
    <g id="ytick_58">
     <g id="line2d_91">
      <g>
       <use xlink:href="#m02160b8ee1" x="420.191094" y="119.567928" style="stroke: #000000; stroke-width: 0.6"/>
      </g>
     </g>
    </g>
    <g id="ytick_59">
     <g id="line2d_92">
      <g>
       <use xlink:href="#m02160b8ee1" x="420.191094" y="116.507448" style="stroke: #000000; stroke-width: 0.6"/>
      </g>
     </g>
    </g>
    <g id="ytick_60">
     <g id="line2d_93">
      <g>
       <use xlink:href="#m02160b8ee1" x="420.191094" y="113.91985" style="stroke: #000000; stroke-width: 0.6"/>
      </g>
     </g>
    </g>
    <g id="ytick_61">
     <g id="line2d_94">
      <g>
       <use xlink:href="#m02160b8ee1" x="420.191094" y="111.67837" style="stroke: #000000; stroke-width: 0.6"/>
      </g>
     </g>
    </g>
    <g id="ytick_62">
     <g id="line2d_95">
      <g>
       <use xlink:href="#m02160b8ee1" x="420.191094" y="109.701245" style="stroke: #000000; stroke-width: 0.6"/>
      </g>
     </g>
    </g>
    <g id="ytick_63">
     <g id="line2d_96">
      <g>
       <use xlink:href="#m02160b8ee1" x="420.191094" y="96.297365" style="stroke: #000000; stroke-width: 0.6"/>
      </g>
     </g>
    </g>
    <g id="ytick_64">
     <g id="line2d_97">
      <g>
       <use xlink:href="#m02160b8ee1" x="420.191094" y="89.491162" style="stroke: #000000; stroke-width: 0.6"/>
      </g>
     </g>
    </g>
    <g id="ytick_65">
     <g id="line2d_98">
      <g>
       <use xlink:href="#m02160b8ee1" x="420.191094" y="84.662084" style="stroke: #000000; stroke-width: 0.6"/>
      </g>
     </g>
    </g>
    <g id="ytick_66">
     <g id="line2d_99">
      <g>
       <use xlink:href="#m02160b8ee1" x="420.191094" y="80.91636" style="stroke: #000000; stroke-width: 0.6"/>
      </g>
     </g>
    </g>
    <g id="ytick_67">
     <g id="line2d_100">
      <g>
       <use xlink:href="#m02160b8ee1" x="420.191094" y="77.85588" style="stroke: #000000; stroke-width: 0.6"/>
      </g>
     </g>
    </g>
    <g id="ytick_68">
     <g id="line2d_101">
      <g>
       <use xlink:href="#m02160b8ee1" x="420.191094" y="75.268282" style="stroke: #000000; stroke-width: 0.6"/>
      </g>
     </g>
    </g>
    <g id="ytick_69">
     <g id="line2d_102">
      <g>
       <use xlink:href="#m02160b8ee1" x="420.191094" y="73.026802" style="stroke: #000000; stroke-width: 0.6"/>
      </g>
     </g>
    </g>
    <g id="ytick_70">
     <g id="line2d_103">
      <g>
       <use xlink:href="#m02160b8ee1" x="420.191094" y="71.049677" style="stroke: #000000; stroke-width: 0.6"/>
      </g>
     </g>
    </g>
    <g id="ytick_71">
     <g id="line2d_104">
      <g>
       <use xlink:href="#m02160b8ee1" x="420.191094" y="57.645797" style="stroke: #000000; stroke-width: 0.6"/>
      </g>
     </g>
    </g>
    <g id="ytick_72">
     <g id="line2d_105">
      <g>
       <use xlink:href="#m02160b8ee1" x="420.191094" y="50.839594" style="stroke: #000000; stroke-width: 0.6"/>
      </g>
     </g>
    </g>
    <g id="text_25">
     <!-- tempo/query (ms) -->
     <g transform="translate(389.511406 200.765) rotate(-90) scale(0.1 -0.1)">
      <use xlink:href="#DejaVuSans-74"/>
      <use xlink:href="#DejaVuSans-65" transform="translate(39.208984 0)"/>
      <use xlink:href="#DejaVuSans-6d" transform="translate(100.732422 0)"/>
      <use xlink:href="#DejaVuSans-70" transform="translate(198.144531 0)"/>
      <use xlink:href="#DejaVuSans-6f" transform="translate(261.621094 0)"/>
      <use xlink:href="#DejaVuSans-2f" transform="translate(322.802734 0)"/>
      <use xlink:href="#DejaVuSans-71" transform="translate(356.494141 0)"/>
      <use xlink:href="#DejaVuSans-75" transform="translate(419.970703 0)"/>
      <use xlink:href="#DejaVuSans-65" transform="translate(483.349609 0)"/>
      <use xlink:href="#DejaVuSans-72" transform="translate(544.873047 0)"/>
      <use xlink:href="#DejaVuSans-79" transform="translate(585.986328 0)"/>
      <use xlink:href="#DejaVuSans-20" transform="translate(645.166016 0)"/>
      <use xlink:href="#DejaVuSans-28" transform="translate(676.953125 0)"/>
      <use xlink:href="#DejaVuSans-6d" transform="translate(715.966797 0)"/>
      <use xlink:href="#DejaVuSans-73" transform="translate(813.378906 0)"/>
      <use xlink:href="#DejaVuSans-29" transform="translate(865.478516 0)"/>
     </g>
    </g>
   </g>
   <g id="line2d_106">
    <path d="M 434.738854 122.687598 
L 467.06721 117.216023 
L 499.395566 103.929725 
L 531.723922 87.482732 
L 564.052278 72.603713 
L 596.380634 60.176364 
" clip-path="url(#p47b6a5cc8b)" style="fill: none; stroke: #e76f51; stroke-width: 1.5; stroke-linecap: square"/>
    <g clip-path="url(#p47b6a5cc8b)">
     <use xlink:href="#m64964527fa" x="434.738854" y="122.687598" style="fill: #e76f51; stroke: #e76f51; stroke-linejoin: miter"/>
     <use xlink:href="#m64964527fa" x="467.06721" y="117.216023" style="fill: #e76f51; stroke: #e76f51; stroke-linejoin: miter"/>
     <use xlink:href="#m64964527fa" x="499.395566" y="103.929725" style="fill: #e76f51; stroke: #e76f51; stroke-linejoin: miter"/>
     <use xlink:href="#m64964527fa" x="531.723922" y="87.482732" style="fill: #e76f51; stroke: #e76f51; stroke-linejoin: miter"/>
     <use xlink:href="#m64964527fa" x="564.052278" y="72.603713" style="fill: #e76f51; stroke: #e76f51; stroke-linejoin: miter"/>
     <use xlink:href="#m64964527fa" x="596.380634" y="60.176364" style="fill: #e76f51; stroke: #e76f51; stroke-linejoin: miter"/>
    </g>
   </g>
   <g id="line2d_107">
    <path d="M 420.191094 250.903636 
L 740.241818 250.903636 
" clip-path="url(#p47b6a5cc8b)" style="fill: none; stroke-dasharray: 5.55,2.4; stroke-dashoffset: 0; stroke: #2a9d8f; stroke-width: 1.5"/>
   </g>
   <g id="line2d_108">
    <path d="M 725.694058 260.44 
L 725.694058 50.64 
" clip-path="url(#p47b6a5cc8b)" style="fill: none; stroke-dasharray: 1.5,2.475; stroke-dashoffset: 0; stroke: #808080; stroke-width: 1.5"/>
   </g>
   <g id="patch_9">
    <path d="M 420.191094 260.44 
L 420.191094 50.64 
" style="fill: none; stroke: #000000; stroke-width: 0.8; stroke-linejoin: miter; stroke-linecap: square"/>
   </g>
   <g id="patch_10">
    <path d="M 740.241818 260.44 
L 740.241818 50.64 
" style="fill: none; stroke: #000000; stroke-width: 0.8; stroke-linejoin: miter; stroke-linecap: square"/>
   </g>
   <g id="patch_11">
    <path d="M 420.191094 260.44 
L 740.241818 260.44 
" style="fill: none; stroke: #000000; stroke-width: 0.8; stroke-linejoin: miter; stroke-linecap: square"/>
   </g>
   <g id="patch_12">
    <path d="M 420.191094 50.64 
L 740.241818 50.64 
" style="fill: none; stroke: #000000; stroke-width: 0.8; stroke-linejoin: miter; stroke-linecap: square"/>
   </g>
   <g id="text_26">
    <!--  PCA decente -->
    <g transform="translate(725.694058 66.255114) scale(0.08 -0.08)">
     <use xlink:href="#DejaVuSans-20"/>
     <use xlink:href="#DejaVuSans-50" transform="translate(31.787109 0)"/>
     <use xlink:href="#DejaVuSans-43" transform="translate(92.089844 0)"/>
     <use xlink:href="#DejaVuSans-41" transform="translate(161.914062 0)"/>
     <use xlink:href="#DejaVuSans-20" transform="translate(230.322266 0)"/>
     <use xlink:href="#DejaVuSans-64" transform="translate(262.109375 0)"/>
     <use xlink:href="#DejaVuSans-65" transform="translate(325.585938 0)"/>
     <use xlink:href="#DejaVuSans-63" transform="translate(387.109375 0)"/>
     <use xlink:href="#DejaVuSans-65" transform="translate(442.089844 0)"/>
     <use xlink:href="#DejaVuSans-6e" transform="translate(503.613281 0)"/>
     <use xlink:href="#DejaVuSans-74" transform="translate(566.992188 0)"/>
     <use xlink:href="#DejaVuSans-65" transform="translate(606.201172 0)"/>
    </g>
    <!--  ~14 bit -->
    <g transform="translate(725.694058 75.213364) scale(0.08 -0.08)">
     <use xlink:href="#DejaVuSans-20"/>
     <use xlink:href="#DejaVuSans-7e" transform="translate(31.787109 0)"/>
     <use xlink:href="#DejaVuSans-31" transform="translate(115.576172 0)"/>
     <use xlink:href="#DejaVuSans-34" transform="translate(179.199219 0)"/>
     <use xlink:href="#DejaVuSans-20" transform="translate(242.822266 0)"/>
     <use xlink:href="#DejaVuSans-62" transform="translate(274.609375 0)"/>
     <use xlink:href="#DejaVuSans-69" transform="translate(338.085938 0)"/>
     <use xlink:href="#DejaVuSans-74" transform="translate(365.869141 0)"/>
    </g>
   </g>
   <g id="text_27">
    <!-- (B) la leva: bit dei punteggi (N=10, F6) -->
    <g transform="translate(463.370206 44.64) scale(0.12 -0.12)">
     <defs>
      <path id="DejaVuSans-42" d="M 1259 2228 
L 1259 519 
L 2272 519 
Q 2781 519 3026 730 
Q 3272 941 3272 1375 
Q 3272 1813 3026 2020 
Q 2781 2228 2272 2228 
L 1259 2228 
z
M 1259 4147 
L 1259 2741 
L 2194 2741 
Q 2656 2741 2882 2914 
Q 3109 3088 3109 3444 
Q 3109 3797 2882 3972 
Q 2656 4147 2194 4147 
L 1259 4147 
z
M 628 4666 
L 2241 4666 
Q 2963 4666 3353 4366 
Q 3744 4066 3744 3513 
Q 3744 3084 3544 2831 
Q 3344 2578 2956 2516 
Q 3422 2416 3680 2098 
Q 3938 1781 3938 1306 
Q 3938 681 3513 340 
Q 3088 0 2303 0 
L 628 0 
L 628 4666 
z
" transform="scale(0.015625)"/>
      <path id="DejaVuSans-3a" d="M 750 794 
L 1409 794 
L 1409 0 
L 750 0 
L 750 794 
z
M 750 3309 
L 1409 3309 
L 1409 2516 
L 750 2516 
L 750 3309 
z
" transform="scale(0.015625)"/>
      <path id="DejaVuSans-3d" d="M 678 2906 
L 4684 2906 
L 4684 2381 
L 678 2381 
L 678 2906 
z
M 678 1631 
L 4684 1631 
L 4684 1100 
L 678 1100 
L 678 1631 
z
" transform="scale(0.015625)"/>
     </defs>
     <use xlink:href="#DejaVuSans-28"/>
     <use xlink:href="#DejaVuSans-42" transform="translate(39.013672 0)"/>
     <use xlink:href="#DejaVuSans-29" transform="translate(107.617188 0)"/>
     <use xlink:href="#DejaVuSans-20" transform="translate(146.630859 0)"/>
     <use xlink:href="#DejaVuSans-6c" transform="translate(178.417969 0)"/>
     <use xlink:href="#DejaVuSans-61" transform="translate(206.201172 0)"/>
     <use xlink:href="#DejaVuSans-20" transform="translate(267.480469 0)"/>
     <use xlink:href="#DejaVuSans-6c" transform="translate(299.267578 0)"/>
     <use xlink:href="#DejaVuSans-65" transform="translate(327.050781 0)"/>
     <use xlink:href="#DejaVuSans-76" transform="translate(388.574219 0)"/>
     <use xlink:href="#DejaVuSans-61" transform="translate(447.753906 0)"/>
     <use xlink:href="#DejaVuSans-3a" transform="translate(509.033203 0)"/>
     <use xlink:href="#DejaVuSans-20" transform="translate(542.724609 0)"/>
     <use xlink:href="#DejaVuSans-62" transform="translate(574.511719 0)"/>
     <use xlink:href="#DejaVuSans-69" transform="translate(637.988281 0)"/>
     <use xlink:href="#DejaVuSans-74" transform="translate(665.771484 0)"/>
     <use xlink:href="#DejaVuSans-20" transform="translate(704.980469 0)"/>
     <use xlink:href="#DejaVuSans-64" transform="translate(736.767578 0)"/>
     <use xlink:href="#DejaVuSans-65" transform="translate(800.244141 0)"/>
     <use xlink:href="#DejaVuSans-69" transform="translate(861.767578 0)"/>
     <use xlink:href="#DejaVuSans-20" transform="translate(889.550781 0)"/>
     <use xlink:href="#DejaVuSans-70" transform="translate(921.337891 0)"/>
     <use xlink:href="#DejaVuSans-75" transform="translate(984.814453 0)"/>
     <use xlink:href="#DejaVuSans-6e" transform="translate(1048.193359 0)"/>
     <use xlink:href="#DejaVuSans-74" transform="translate(1111.572266 0)"/>
     <use xlink:href="#DejaVuSans-65" transform="translate(1150.78125 0)"/>
     <use xlink:href="#DejaVuSans-67" transform="translate(1212.304688 0)"/>
     <use xlink:href="#DejaVuSans-67" transform="translate(1275.78125 0)"/>
     <use xlink:href="#DejaVuSans-69" transform="translate(1339.257812 0)"/>
     <use xlink:href="#DejaVuSans-20" transform="translate(1367.041016 0)"/>
     <use xlink:href="#DejaVuSans-28" transform="translate(1398.828125 0)"/>
     <use xlink:href="#DejaVuSans-4e" transform="translate(1437.841797 0)"/>
     <use xlink:href="#DejaVuSans-3d" transform="translate(1512.646484 0)"/>
     <use xlink:href="#DejaVuSans-31" transform="translate(1596.435547 0)"/>
     <use xlink:href="#DejaVuSans-30" transform="translate(1660.058594 0)"/>
     <use xlink:href="#DejaVuSans-2c" transform="translate(1723.681641 0)"/>
     <use xlink:href="#DejaVuSans-20" transform="translate(1755.46875 0)"/>
     <use xlink:href="#DejaVuSans-46" transform="translate(1787.255859 0)"/>
     <use xlink:href="#DejaVuSans-36" transform="translate(1844.775391 0)"/>
     <use xlink:href="#DejaVuSans-29" transform="translate(1908.398438 0)"/>
    </g>
   </g>
   <g id="legend_2">
    <g id="patch_13">
     <path d="M 427.191094 171.718125 
L 586.458281 171.718125 
Q 588.458281 171.718125 588.458281 169.718125 
L 588.458281 141.361875 
Q 588.458281 139.361875 586.458281 139.361875 
L 427.191094 139.361875 
Q 425.191094 139.361875 425.191094 141.361875 
L 425.191094 169.718125 
Q 425.191094 171.718125 427.191094 171.718125 
z
" style="fill: #ffffff; opacity: 0.8; stroke: #cccccc; stroke-linejoin: miter"/>
    </g>
    <g id="line2d_109">
     <path d="M 429.191094 147.460313 
L 439.191094 147.460313 
L 449.191094 147.460313 
" style="fill: none; stroke: #e76f51; stroke-width: 1.5; stroke-linecap: square"/>
     <g>
      <use xlink:href="#m64964527fa" x="439.191094" y="147.460313" style="fill: #e76f51; stroke: #e76f51; stroke-linejoin: miter"/>
     </g>
    </g>
    <g id="text_28">
     <!-- argmin sul server (FHE) -->
     <g transform="translate(457.191094 150.960313) scale(0.1 -0.1)">
      <use xlink:href="#DejaVuSans-61"/>
      <use xlink:href="#DejaVuSans-72" transform="translate(61.279297 0)"/>
      <use xlink:href="#DejaVuSans-67" transform="translate(100.642578 0)"/>
      <use xlink:href="#DejaVuSans-6d" transform="translate(164.119141 0)"/>
      <use xlink:href="#DejaVuSans-69" transform="translate(261.53125 0)"/>
      <use xlink:href="#DejaVuSans-6e" transform="translate(289.314453 0)"/>
      <use xlink:href="#DejaVuSans-20" transform="translate(352.693359 0)"/>
      <use xlink:href="#DejaVuSans-73" transform="translate(384.480469 0)"/>
      <use xlink:href="#DejaVuSans-75" transform="translate(436.580078 0)"/>
      <use xlink:href="#DejaVuSans-6c" transform="translate(499.958984 0)"/>
      <use xlink:href="#DejaVuSans-20" transform="translate(527.742188 0)"/>
      <use xlink:href="#DejaVuSans-73" transform="translate(559.529297 0)"/>
      <use xlink:href="#DejaVuSans-65" transform="translate(611.628906 0)"/>
      <use xlink:href="#DejaVuSans-72" transform="translate(673.152344 0)"/>
      <use xlink:href="#DejaVuSans-76" transform="translate(714.265625 0)"/>
      <use xlink:href="#DejaVuSans-65" transform="translate(773.445312 0)"/>
      <use xlink:href="#DejaVuSans-72" transform="translate(834.96875 0)"/>
      <use xlink:href="#DejaVuSans-20" transform="translate(876.082031 0)"/>
      <use xlink:href="#DejaVuSans-28" transform="translate(907.869141 0)"/>
      <use xlink:href="#DejaVuSans-46" transform="translate(946.882812 0)"/>
      <use xlink:href="#DejaVuSans-48" transform="translate(1004.402344 0)"/>
      <use xlink:href="#DejaVuSans-45" transform="translate(1079.597656 0)"/>
      <use xlink:href="#DejaVuSans-29" transform="translate(1142.78125 0)"/>
     </g>
    </g>
    <g id="line2d_110">
     <path d="M 429.191094 162.138438 
L 439.191094 162.138438 
L 449.191094 162.138438 
" style="fill: none; stroke-dasharray: 5.55,2.4; stroke-dashoffset: 0; stroke: #2a9d8f; stroke-width: 1.5"/>
    </g>
    <g id="text_29">
     <!-- argmin sul client (~2 ms) -->
     <g transform="translate(457.191094 165.638438) scale(0.1 -0.1)">
      <use xlink:href="#DejaVuSans-61"/>
      <use xlink:href="#DejaVuSans-72" transform="translate(61.279297 0)"/>
      <use xlink:href="#DejaVuSans-67" transform="translate(100.642578 0)"/>
      <use xlink:href="#DejaVuSans-6d" transform="translate(164.119141 0)"/>
      <use xlink:href="#DejaVuSans-69" transform="translate(261.53125 0)"/>
      <use xlink:href="#DejaVuSans-6e" transform="translate(289.314453 0)"/>
      <use xlink:href="#DejaVuSans-20" transform="translate(352.693359 0)"/>
      <use xlink:href="#DejaVuSans-73" transform="translate(384.480469 0)"/>
      <use xlink:href="#DejaVuSans-75" transform="translate(436.580078 0)"/>
      <use xlink:href="#DejaVuSans-6c" transform="translate(499.958984 0)"/>
      <use xlink:href="#DejaVuSans-20" transform="translate(527.742188 0)"/>
      <use xlink:href="#DejaVuSans-63" transform="translate(559.529297 0)"/>
      <use xlink:href="#DejaVuSans-6c" transform="translate(614.509766 0)"/>
      <use xlink:href="#DejaVuSans-69" transform="translate(642.292969 0)"/>
      <use xlink:href="#DejaVuSans-65" transform="translate(670.076172 0)"/>
      <use xlink:href="#DejaVuSans-6e" transform="translate(731.599609 0)"/>
      <use xlink:href="#DejaVuSans-74" transform="translate(794.978516 0)"/>
      <use xlink:href="#DejaVuSans-20" transform="translate(834.1875 0)"/>
      <use xlink:href="#DejaVuSans-28" transform="translate(865.974609 0)"/>
      <use xlink:href="#DejaVuSans-7e" transform="translate(904.988281 0)"/>
      <use xlink:href="#DejaVuSans-32" transform="translate(988.777344 0)"/>
      <use xlink:href="#DejaVuSans-20" transform="translate(1052.400391 0)"/>
      <use xlink:href="#DejaVuSans-6d" transform="translate(1084.1875 0)"/>
      <use xlink:href="#DejaVuSans-73" transform="translate(1181.599609 0)"/>
      <use xlink:href="#DejaVuSans-29" transform="translate(1233.699219 0)"/>
     </g>
    </g>
   </g>
  </g>
  <g id="text_30">
   <!-- Gradino 06 — costo di spostare l'argmin sul server (privacy) -->
   <g transform="translate(192.64125 15.166125) scale(0.12 -0.12)">
    <defs>
     <path id="DejaVuSans-Bold-47" d="M 4781 347 
Q 4331 128 3847 18 
Q 3363 -91 2847 -91 
Q 1681 -91 1000 561 
Q 319 1213 319 2328 
Q 319 3456 1012 4103 
Q 1706 4750 2913 4750 
Q 3378 4750 3804 4662 
Q 4231 4575 4609 4403 
L 4609 3438 
Q 4219 3659 3833 3768 
Q 3447 3878 3059 3878 
Q 2341 3878 1952 3476 
Q 1563 3075 1563 2328 
Q 1563 1588 1938 1184 
Q 2313 781 3003 781 
Q 3191 781 3352 804 
Q 3513 828 3641 878 
L 3641 1784 
L 2906 1784 
L 2906 2591 
L 4781 2591 
L 4781 347 
z
" transform="scale(0.015625)"/>
     <path id="DejaVuSans-Bold-72" d="M 3138 2547 
Q 2991 2616 2845 2648 
Q 2700 2681 2553 2681 
Q 2122 2681 1889 2404 
Q 1656 2128 1656 1613 
L 1656 0 
L 538 0 
L 538 3500 
L 1656 3500 
L 1656 2925 
Q 1872 3269 2151 3426 
Q 2431 3584 2822 3584 
Q 2878 3584 2943 3579 
Q 3009 3575 3134 3559 
L 3138 2547 
z
" transform="scale(0.015625)"/>
     <path id="DejaVuSans-Bold-61" d="M 2106 1575 
Q 1756 1575 1579 1456 
Q 1403 1338 1403 1106 
Q 1403 894 1545 773 
Q 1688 653 1941 653 
Q 2256 653 2472 879 
Q 2688 1106 2688 1447 
L 2688 1575 
L 2106 1575 
z
M 3816 1997 
L 3816 0 
L 2688 0 
L 2688 519 
Q 2463 200 2181 54 
Q 1900 -91 1497 -91 
Q 953 -91 614 226 
Q 275 544 275 1050 
Q 275 1666 698 1953 
Q 1122 2241 2028 2241 
L 2688 2241 
L 2688 2328 
Q 2688 2594 2478 2717 
Q 2269 2841 1825 2841 
Q 1466 2841 1156 2769 
Q 847 2697 581 2553 
L 581 3406 
Q 941 3494 1303 3539 
Q 1666 3584 2028 3584 
Q 2975 3584 3395 3211 
Q 3816 2838 3816 1997 
z
" transform="scale(0.015625)"/>
     <path id="DejaVuSans-Bold-64" d="M 2919 2988 
L 2919 4863 
L 4044 4863 
L 4044 0 
L 2919 0 
L 2919 506 
Q 2688 197 2409 53 
Q 2131 -91 1766 -91 
Q 1119 -91 703 423 
Q 288 938 288 1747 
Q 288 2556 703 3070 
Q 1119 3584 1766 3584 
Q 2128 3584 2408 3439 
Q 2688 3294 2919 2988 
z
M 2181 722 
Q 2541 722 2730 984 
Q 2919 1247 2919 1747 
Q 2919 2247 2730 2509 
Q 2541 2772 2181 2772 
Q 1825 2772 1636 2509 
Q 1447 2247 1447 1747 
Q 1447 1247 1636 984 
Q 1825 722 2181 722 
z
" transform="scale(0.015625)"/>
     <path id="DejaVuSans-Bold-69" d="M 538 3500 
L 1656 3500 
L 1656 0 
L 538 0 
L 538 3500 
z
M 538 4863 
L 1656 4863 
L 1656 3950 
L 538 3950 
L 538 4863 
z
" transform="scale(0.015625)"/>
     <path id="DejaVuSans-Bold-6e" d="M 4056 2131 
L 4056 0 
L 2931 0 
L 2931 347 
L 2931 1631 
Q 2931 2084 2911 2256 
Q 2891 2428 2841 2509 
Q 2775 2619 2662 2680 
Q 2550 2741 2406 2741 
Q 2056 2741 1856 2470 
Q 1656 2200 1656 1722 
L 1656 0 
L 538 0 
L 538 3500 
L 1656 3500 
L 1656 2988 
Q 1909 3294 2193 3439 
Q 2478 3584 2822 3584 
Q 3428 3584 3742 3212 
Q 4056 2841 4056 2131 
z
" transform="scale(0.015625)"/>
     <path id="DejaVuSans-Bold-6f" d="M 2203 2784 
Q 1831 2784 1636 2517 
Q 1441 2250 1441 1747 
Q 1441 1244 1636 976 
Q 1831 709 2203 709 
Q 2569 709 2762 976 
Q 2956 1244 2956 1747 
Q 2956 2250 2762 2517 
Q 2569 2784 2203 2784 
z
M 2203 3584 
Q 3106 3584 3614 3096 
Q 4122 2609 4122 1747 
Q 4122 884 3614 396 
Q 3106 -91 2203 -91 
Q 1297 -91 786 396 
Q 275 884 275 1747 
Q 275 2609 786 3096 
Q 1297 3584 2203 3584 
z
" transform="scale(0.015625)"/>
     <path id="DejaVuSans-Bold-20" transform="scale(0.015625)"/>
     <path id="DejaVuSans-Bold-30" d="M 2944 2338 
Q 2944 3213 2780 3570 
Q 2616 3928 2228 3928 
Q 1841 3928 1675 3570 
Q 1509 3213 1509 2338 
Q 1509 1453 1675 1090 
Q 1841 728 2228 728 
Q 2613 728 2778 1090 
Q 2944 1453 2944 2338 
z
M 4147 2328 
Q 4147 1169 3647 539 
Q 3147 -91 2228 -91 
Q 1306 -91 806 539 
Q 306 1169 306 2328 
Q 306 3491 806 4120 
Q 1306 4750 2228 4750 
Q 3147 4750 3647 4120 
Q 4147 3491 4147 2328 
z
" transform="scale(0.015625)"/>
     <path id="DejaVuSans-Bold-36" d="M 2316 2303 
Q 2000 2303 1842 2098 
Q 1684 1894 1684 1484 
Q 1684 1075 1842 870 
Q 2000 666 2316 666 
Q 2634 666 2792 870 
Q 2950 1075 2950 1484 
Q 2950 1894 2792 2098 
Q 2634 2303 2316 2303 
z
M 3803 4544 
L 3803 3681 
Q 3506 3822 3243 3889 
Q 2981 3956 2731 3956 
Q 2194 3956 1894 3657 
Q 1594 3359 1544 2772 
Q 1750 2925 1990 3001 
Q 2231 3078 2516 3078 
Q 3231 3078 3670 2659 
Q 4109 2241 4109 1563 
Q 4109 813 3618 361 
Q 3128 -91 2303 -91 
Q 1394 -91 895 523 
Q 397 1138 397 2266 
Q 397 3422 980 4083 
Q 1563 4744 2578 4744 
Q 2900 4744 3203 4694 
Q 3506 4644 3803 4544 
z
" transform="scale(0.015625)"/>
     <path id="DejaVuSans-Bold-2014" d="M 344 2156 
L 6056 2156 
L 6056 1350 
L 344 1350 
L 344 2156 
z
" transform="scale(0.015625)"/>
     <path id="DejaVuSans-Bold-63" d="M 3366 3391 
L 3366 2478 
Q 3138 2634 2908 2709 
Q 2678 2784 2431 2784 
Q 1963 2784 1702 2511 
Q 1441 2238 1441 1747 
Q 1441 1256 1702 982 
Q 1963 709 2431 709 
Q 2694 709 2930 787 
Q 3166 866 3366 1019 
L 3366 103 
Q 3103 6 2833 -42 
Q 2563 -91 2291 -91 
Q 1344 -91 809 395 
Q 275 881 275 1747 
Q 275 2613 809 3098 
Q 1344 3584 2291 3584 
Q 2566 3584 2833 3536 
Q 3100 3488 3366 3391 
z
" transform="scale(0.015625)"/>
     <path id="DejaVuSans-Bold-73" d="M 3272 3391 
L 3272 2541 
Q 2913 2691 2578 2766 
Q 2244 2841 1947 2841 
Q 1628 2841 1473 2761 
Q 1319 2681 1319 2516 
Q 1319 2381 1436 2309 
Q 1553 2238 1856 2203 
L 2053 2175 
Q 2913 2066 3209 1816 
Q 3506 1566 3506 1031 
Q 3506 472 3093 190 
Q 2681 -91 1863 -91 
Q 1516 -91 1145 -36 
Q 775 19 384 128 
L 384 978 
Q 719 816 1070 734 
Q 1422 653 1784 653 
Q 2113 653 2278 743 
Q 2444 834 2444 1013 
Q 2444 1163 2330 1236 
Q 2216 1309 1875 1350 
L 1678 1375 
Q 931 1469 631 1722 
Q 331 1975 331 2491 
Q 331 3047 712 3315 
Q 1094 3584 1881 3584 
Q 2191 3584 2531 3537 
Q 2872 3491 3272 3391 
z
" transform="scale(0.015625)"/>
     <path id="DejaVuSans-Bold-74" d="M 1759 4494 
L 1759 3500 
L 2913 3500 
L 2913 2700 
L 1759 2700 
L 1759 1216 
Q 1759 972 1856 886 
Q 1953 800 2241 800 
L 2816 800 
L 2816 0 
L 1856 0 
Q 1194 0 917 276 
Q 641 553 641 1216 
L 641 2700 
L 84 2700 
L 84 3500 
L 641 3500 
L 641 4494 
L 1759 4494 
z
" transform="scale(0.015625)"/>
     <path id="DejaVuSans-Bold-70" d="M 1656 506 
L 1656 -1331 
L 538 -1331 
L 538 3500 
L 1656 3500 
L 1656 2988 
Q 1888 3294 2169 3439 
Q 2450 3584 2816 3584 
Q 3463 3584 3878 3070 
Q 4294 2556 4294 1747 
Q 4294 938 3878 423 
Q 3463 -91 2816 -91 
Q 2450 -91 2169 54 
Q 1888 200 1656 506 
z
M 2400 2772 
Q 2041 2772 1848 2508 
Q 1656 2244 1656 1747 
Q 1656 1250 1848 986 
Q 2041 722 2400 722 
Q 2759 722 2948 984 
Q 3138 1247 3138 1747 
Q 3138 2247 2948 2509 
Q 2759 2772 2400 2772 
z
" transform="scale(0.015625)"/>
     <path id="DejaVuSans-Bold-65" d="M 4031 1759 
L 4031 1441 
L 1416 1441 
Q 1456 1047 1700 850 
Q 1944 653 2381 653 
Q 2734 653 3104 758 
Q 3475 863 3866 1075 
L 3866 213 
Q 3469 63 3072 -14 
Q 2675 -91 2278 -91 
Q 1328 -91 801 392 
Q 275 875 275 1747 
Q 275 2603 792 3093 
Q 1309 3584 2216 3584 
Q 3041 3584 3536 3087 
Q 4031 2591 4031 1759 
z
M 2881 2131 
Q 2881 2450 2695 2645 
Q 2509 2841 2209 2841 
Q 1884 2841 1681 2658 
Q 1478 2475 1428 2131 
L 2881 2131 
z
" transform="scale(0.015625)"/>
     <path id="DejaVuSans-Bold-6c" d="M 538 4863 
L 1656 4863 
L 1656 0 
L 538 0 
L 538 4863 
z
" transform="scale(0.015625)"/>
     <path id="DejaVuSans-Bold-27" d="M 1350 4666 
L 1350 2931 
L 609 2931 
L 609 4666 
L 1350 4666 
z
" transform="scale(0.015625)"/>
     <path id="DejaVuSans-Bold-67" d="M 2919 594 
Q 2688 288 2409 144 
Q 2131 0 1766 0 
Q 1125 0 706 504 
Q 288 1009 288 1791 
Q 288 2575 706 3076 
Q 1125 3578 1766 3578 
Q 2131 3578 2409 3434 
Q 2688 3291 2919 2981 
L 2919 3500 
L 4044 3500 
L 4044 353 
Q 4044 -491 3511 -936 
Q 2978 -1381 1966 -1381 
Q 1638 -1381 1331 -1331 
Q 1025 -1281 716 -1178 
L 716 -306 
Q 1009 -475 1290 -558 
Q 1572 -641 1856 -641 
Q 2406 -641 2662 -400 
Q 2919 -159 2919 353 
L 2919 594 
z
M 2181 2772 
Q 1834 2772 1640 2515 
Q 1447 2259 1447 1791 
Q 1447 1309 1634 1061 
Q 1822 813 2181 813 
Q 2531 813 2725 1069 
Q 2919 1325 2919 1791 
Q 2919 2259 2725 2515 
Q 2531 2772 2181 2772 
z
" transform="scale(0.015625)"/>
     <path id="DejaVuSans-Bold-6d" d="M 3781 2919 
Q 3994 3244 4286 3414 
Q 4578 3584 4928 3584 
Q 5531 3584 5847 3212 
Q 6163 2841 6163 2131 
L 6163 0 
L 5038 0 
L 5038 1825 
Q 5041 1866 5042 1909 
Q 5044 1953 5044 2034 
Q 5044 2406 4934 2573 
Q 4825 2741 4581 2741 
Q 4263 2741 4089 2478 
Q 3916 2216 3909 1719 
L 3909 0 
L 2784 0 
L 2784 1825 
Q 2784 2406 2684 2573 
Q 2584 2741 2328 2741 
Q 2006 2741 1831 2477 
Q 1656 2213 1656 1722 
L 1656 0 
L 531 0 
L 531 3500 
L 1656 3500 
L 1656 2988 
Q 1863 3284 2130 3434 
Q 2397 3584 2719 3584 
Q 3081 3584 3359 3409 
Q 3638 3234 3781 2919 
z
" transform="scale(0.015625)"/>
     <path id="DejaVuSans-Bold-75" d="M 500 1363 
L 500 3500 
L 1625 3500 
L 1625 3150 
Q 1625 2866 1622 2436 
Q 1619 2006 1619 1863 
Q 1619 1441 1641 1255 
Q 1663 1069 1716 984 
Q 1784 875 1895 815 
Q 2006 756 2150 756 
Q 2500 756 2700 1025 
Q 2900 1294 2900 1772 
L 2900 3500 
L 4019 3500 
L 4019 0 
L 2900 0 
L 2900 506 
Q 2647 200 2364 54 
Q 2081 -91 1741 -91 
Q 1134 -91 817 281 
Q 500 653 500 1363 
z
" transform="scale(0.015625)"/>
     <path id="DejaVuSans-Bold-76" d="M 97 3500 
L 1216 3500 
L 2088 1081 
L 2956 3500 
L 4078 3500 
L 2700 0 
L 1472 0 
L 97 3500 
z
" transform="scale(0.015625)"/>
     <path id="DejaVuSans-Bold-28" d="M 2413 -844 
L 1484 -844 
Q 1006 -72 778 623 
Q 550 1319 550 2003 
Q 550 2688 779 3389 
Q 1009 4091 1484 4856 
L 2413 4856 
Q 2013 4116 1813 3408 
Q 1613 2700 1613 2009 
Q 1613 1319 1811 609 
Q 2009 -100 2413 -844 
z
" transform="scale(0.015625)"/>
     <path id="DejaVuSans-Bold-79" d="M 78 3500 
L 1197 3500 
L 2138 1125 
L 2938 3500 
L 4056 3500 
L 2584 -331 
Q 2363 -916 2067 -1148 
Q 1772 -1381 1288 -1381 
L 641 -1381 
L 641 -647 
L 991 -647 
Q 1275 -647 1404 -556 
Q 1534 -466 1606 -231 
L 1638 -134 
L 78 3500 
z
" transform="scale(0.015625)"/>
     <path id="DejaVuSans-Bold-29" d="M 513 -844 
Q 913 -100 1113 609 
Q 1313 1319 1313 2009 
Q 1313 2700 1113 3408 
Q 913 4116 513 4856 
L 1441 4856 
Q 1916 4091 2145 3389 
Q 2375 2688 2375 2003 
Q 2375 1319 2147 623 
Q 1919 -72 1441 -844 
L 513 -844 
z
" transform="scale(0.015625)"/>
    </defs>
    <use xlink:href="#DejaVuSans-Bold-47"/>
    <use xlink:href="#DejaVuSans-Bold-72" transform="translate(82.080078 0)"/>
    <use xlink:href="#DejaVuSans-Bold-61" transform="translate(131.396484 0)"/>
    <use xlink:href="#DejaVuSans-Bold-64" transform="translate(198.876953 0)"/>
    <use xlink:href="#DejaVuSans-Bold-69" transform="translate(270.458984 0)"/>
    <use xlink:href="#DejaVuSans-Bold-6e" transform="translate(304.736328 0)"/>
    <use xlink:href="#DejaVuSans-Bold-6f" transform="translate(375.927734 0)"/>
    <use xlink:href="#DejaVuSans-Bold-20" transform="translate(444.628906 0)"/>
    <use xlink:href="#DejaVuSans-Bold-30" transform="translate(479.443359 0)"/>
    <use xlink:href="#DejaVuSans-Bold-36" transform="translate(549.023438 0)"/>
    <use xlink:href="#DejaVuSans-Bold-20" transform="translate(618.603516 0)"/>
    <use xlink:href="#DejaVuSans-Bold-2014" transform="translate(653.417969 0)"/>
    <use xlink:href="#DejaVuSans-Bold-20" transform="translate(753.417969 0)"/>
    <use xlink:href="#DejaVuSans-Bold-63" transform="translate(788.232422 0)"/>
    <use xlink:href="#DejaVuSans-Bold-6f" transform="translate(847.509766 0)"/>
    <use xlink:href="#DejaVuSans-Bold-73" transform="translate(916.210938 0)"/>
    <use xlink:href="#DejaVuSans-Bold-74" transform="translate(975.732422 0)"/>
    <use xlink:href="#DejaVuSans-Bold-6f" transform="translate(1023.535156 0)"/>
    <use xlink:href="#DejaVuSans-Bold-20" transform="translate(1092.236328 0)"/>
    <use xlink:href="#DejaVuSans-Bold-64" transform="translate(1127.050781 0)"/>
    <use xlink:href="#DejaVuSans-Bold-69" transform="translate(1198.632812 0)"/>
    <use xlink:href="#DejaVuSans-Bold-20" transform="translate(1232.910156 0)"/>
    <use xlink:href="#DejaVuSans-Bold-73" transform="translate(1267.724609 0)"/>
    <use xlink:href="#DejaVuSans-Bold-70" transform="translate(1327.246094 0)"/>
    <use xlink:href="#DejaVuSans-Bold-6f" transform="translate(1398.828125 0)"/>
    <use xlink:href="#DejaVuSans-Bold-73" transform="translate(1467.529297 0)"/>
    <use xlink:href="#DejaVuSans-Bold-74" transform="translate(1527.050781 0)"/>
    <use xlink:href="#DejaVuSans-Bold-61" transform="translate(1574.853516 0)"/>
    <use xlink:href="#DejaVuSans-Bold-72" transform="translate(1642.333984 0)"/>
    <use xlink:href="#DejaVuSans-Bold-65" transform="translate(1691.650391 0)"/>
    <use xlink:href="#DejaVuSans-Bold-20" transform="translate(1759.472656 0)"/>
    <use xlink:href="#DejaVuSans-Bold-6c" transform="translate(1794.287109 0)"/>
    <use xlink:href="#DejaVuSans-Bold-27" transform="translate(1828.564453 0)"/>
    <use xlink:href="#DejaVuSans-Bold-61" transform="translate(1859.179688 0)"/>
    <use xlink:href="#DejaVuSans-Bold-72" transform="translate(1926.660156 0)"/>
    <use xlink:href="#DejaVuSans-Bold-67" transform="translate(1975.976562 0)"/>
    <use xlink:href="#DejaVuSans-Bold-6d" transform="translate(2047.558594 0)"/>
    <use xlink:href="#DejaVuSans-Bold-69" transform="translate(2151.757812 0)"/>
    <use xlink:href="#DejaVuSans-Bold-6e" transform="translate(2186.035156 0)"/>
    <use xlink:href="#DejaVuSans-Bold-20" transform="translate(2257.226562 0)"/>
    <use xlink:href="#DejaVuSans-Bold-73" transform="translate(2292.041016 0)"/>
    <use xlink:href="#DejaVuSans-Bold-75" transform="translate(2351.5625 0)"/>
    <use xlink:href="#DejaVuSans-Bold-6c" transform="translate(2422.753906 0)"/>
    <use xlink:href="#DejaVuSans-Bold-20" transform="translate(2457.03125 0)"/>
    <use xlink:href="#DejaVuSans-Bold-73" transform="translate(2491.845703 0)"/>
    <use xlink:href="#DejaVuSans-Bold-65" transform="translate(2551.367188 0)"/>
    <use xlink:href="#DejaVuSans-Bold-72" transform="translate(2619.189453 0)"/>
    <use xlink:href="#DejaVuSans-Bold-76" transform="translate(2668.505859 0)"/>
    <use xlink:href="#DejaVuSans-Bold-65" transform="translate(2733.691406 0)"/>
    <use xlink:href="#DejaVuSans-Bold-72" transform="translate(2801.513672 0)"/>
    <use xlink:href="#DejaVuSans-Bold-20" transform="translate(2850.830078 0)"/>
    <use xlink:href="#DejaVuSans-Bold-28" transform="translate(2885.644531 0)"/>
    <use xlink:href="#DejaVuSans-Bold-70" transform="translate(2931.347656 0)"/>
    <use xlink:href="#DejaVuSans-Bold-72" transform="translate(3002.929688 0)"/>
    <use xlink:href="#DejaVuSans-Bold-69" transform="translate(3052.246094 0)"/>
    <use xlink:href="#DejaVuSans-Bold-76" transform="translate(3086.523438 0)"/>
    <use xlink:href="#DejaVuSans-Bold-61" transform="translate(3151.708984 0)"/>
    <use xlink:href="#DejaVuSans-Bold-63" transform="translate(3219.189453 0)"/>
    <use xlink:href="#DejaVuSans-Bold-79" transform="translate(3278.466797 0)"/>
    <use xlink:href="#DejaVuSans-Bold-29" transform="translate(3343.652344 0)"/>
   </g>
  </g>
 </g>
 <defs>
  <clipPath id="p8dc5cc9e7c">
   <rect x="50.002685" y="50.64" width="320.050724" height="209.8"/>
  </clipPath>
  <clipPath id="p47b6a5cc8b">
   <rect x="420.191094" y="50.64" width="320.050724" height="209.8"/>
  </clipPath>
 </defs>
</svg>
