<?xml version="1.0" encoding="utf-8" standalone="no"?>
<!DOCTYPE svg PUBLIC "-//W3C//DTD SVG 1.1//EN"
  "http://www.w3.org/Graphics/SVG/1.1/DTD/svg11.dtd">
<svg xmlns:xlink="http://www.w3.org/1999/xlink" width="802.818711pt" height="300.930875pt" viewBox="0 0 802.818711 300.930875" xmlns="http://www.w3.org/2000/svg" version="1.1">
 <metadata>
  <rdf:RDF xmlns:dc="http://purl.org/dc/elements/1.1/" xmlns:cc="http://creativecommons.org/ns#" xmlns:rdf="http://www.w3.org/1999/02/22-rdf-syntax-ns#">
   <cc:Work>
    <dc:type rdf:resource="http://purl.org/dc/dcmitype/StillImage"/>
    <dc:date>2026-06-26T13:20:44.950530</dc:date>
    <dc:format>image/svg+xml</dc:format>
    <dc:creator>
     <cc:Agent>
      <dc:title>Matplotlib v3.10.9, https://matplotlib.org/</dc:title>
     </cc:Agent>
    </dc:creator>
   </cc:Work>
  </rdf:RDF>
 </metadata>
 <defs>
  <style type="text/css">*{stroke-linejoin: round; stroke-linecap: butt}</style>
 </defs>
 <g id="figure_1">
  <g id="patch_1">
   <path d="M 0 300.930875 
L 802.818711 300.930875 
L 802.818711 0 
L 0 0 
z
" style="fill: #ffffff"/>
  </g>
  <g id="axes_1">
   <g id="patch_2">
    <path d="M 46.965625 212.624062 
L 443.965312 212.624062 
L 443.965312 33.440062 
L 46.965625 33.440062 
z
" style="fill: #ffffff"/>
   </g>
   <g id="matplotlib.axis_1">
    <g id="xtick_1">
     <g id="line2d_1">
      <defs>
       <path id="m3129e38501" d="M 0 0 
L 0 3.5 
" style="stroke: #000000; stroke-width: 0.8"/>
      </defs>
      <g>
       <use xlink:href="#m3129e38501" x="67.394641" y="212.624062" style="stroke: #000000; stroke-width: 0.8"/>
      </g>
     </g>
     <g id="text_1">
      <!-- 4 -->
      <g transform="translate(64.213391 227.2225) scale(0.1 -0.1)">
       <defs>
        <path id="DejaVuSans-34" d="M 2419 4116 
L 825 1625 
L 2419 1625 
L 2419 4116 
z
M 2253 4666 
L 3047 4666 
L 3047 1625 
L 3713 1625 
L 3713 1100 
L 3047 1100 
L 3047 0 
L 2419 0 
L 2419 1100 
L 313 1100 
L 313 1709 
L 2253 4666 
z
" transform="scale(0.015625)"/>
       </defs>
       <use xlink:href="#DejaVuSans-34"/>
      </g>
     </g>
    </g>
    <g id="xtick_2">
     <g id="line2d_2">
      <g>
       <use xlink:href="#m3129e38501" x="154.52489" y="212.624062" style="stroke: #000000; stroke-width: 0.8"/>
      </g>
     </g>
     <g id="text_2">
      <!-- 8 -->
      <g transform="translate(151.34364 227.2225) scale(0.1 -0.1)">
       <defs>
        <path id="DejaVuSans-38" d="M 2034 2216 
Q 1584 2216 1326 1975 
Q 1069 1734 1069 1313 
Q 1069 891 1326 650 
Q 1584 409 2034 409 
Q 2484 409 2743 651 
Q 3003 894 3003 1313 
Q 3003 1734 2745 1975 
Q 2488 2216 2034 2216 
z
M 1403 2484 
Q 997 2584 770 2862 
Q 544 3141 544 3541 
Q 544 4100 942 4425 
Q 1341 4750 2034 4750 
Q 2731 4750 3128 4425 
Q 3525 4100 3525 3541 
Q 3525 3141 3298 2862 
Q 3072 2584 2669 2484 
Q 3125 2378 3379 2068 
Q 3634 1759 3634 1313 
Q 3634 634 3220 271 
Q 2806 -91 2034 -91 
Q 1263 -91 848 271 
Q 434 634 434 1313 
Q 434 1759 690 2068 
Q 947 2378 1403 2484 
z
M 1172 3481 
Q 1172 3119 1398 2916 
Q 1625 2713 2034 2713 
Q 2441 2713 2670 2916 
Q 2900 3119 2900 3481 
Q 2900 3844 2670 4047 
Q 2441 4250 2034 4250 
Q 1625 4250 1398 4047 
Q 1172 3844 1172 3481 
z
" transform="scale(0.015625)"/>
       </defs>
       <use xlink:href="#DejaVuSans-38"/>
      </g>
     </g>
    </g>
    <g id="xtick_3">
     <g id="line2d_3">
      <g>
       <use xlink:href="#m3129e38501" x="241.655139" y="212.624062" style="stroke: #000000; stroke-width: 0.8"/>
      </g>
     </g>
     <g id="text_3">
      <!-- 16 -->
      <g transform="translate(235.292639 227.2225) scale(0.1 -0.1)">
       <defs>
        <path id="DejaVuSans-31" d="M 794 531 
L 1825 531 
L 1825 4091 
L 703 3866 
L 703 4441 
L 1819 4666 
L 2450 4666 
L 2450 531 
L 3481 531 
L 3481 0 
L 794 0 
L 794 531 
z
" transform="scale(0.015625)"/>
        <path id="DejaVuSans-36" d="M 2113 2584 
Q 1688 2584 1439 2293 
Q 1191 2003 1191 1497 
Q 1191 994 1439 701 
Q 1688 409 2113 409 
Q 2538 409 2786 701 
Q 3034 994 3034 1497 
Q 3034 2003 2786 2293 
Q 2538 2584 2113 2584 
z
M 3366 4563 
L 3366 3988 
Q 3128 4100 2886 4159 
Q 2644 4219 2406 4219 
Q 1781 4219 1451 3797 
Q 1122 3375 1075 2522 
Q 1259 2794 1537 2939 
Q 1816 3084 2150 3084 
Q 2853 3084 3261 2657 
Q 3669 2231 3669 1497 
Q 3669 778 3244 343 
Q 2819 -91 2113 -91 
Q 1303 -91 875 529 
Q 447 1150 447 2328 
Q 447 3434 972 4092 
Q 1497 4750 2381 4750 
Q 2619 4750 2861 4703 
Q 3103 4656 3366 4563 
z
" transform="scale(0.015625)"/>
       </defs>
       <use xlink:href="#DejaVuSans-31"/>
       <use xlink:href="#DejaVuSans-36" transform="translate(63.623047 0)"/>
      </g>
     </g>
    </g>
    <g id="xtick_4">
     <g id="line2d_4">
      <g>
       <use xlink:href="#m3129e38501" x="328.785388" y="212.624062" style="stroke: #000000; stroke-width: 0.8"/>
      </g>
     </g>
     <g id="text_4">
      <!-- 32 -->
      <g transform="translate(322.422888 227.2225) scale(0.1 -0.1)">
       <defs>
        <path id="DejaVuSans-33" d="M 2597 2516 
Q 3050 2419 3304 2112 
Q 3559 1806 3559 1356 
Q 3559 666 3084 287 
Q 2609 -91 1734 -91 
Q 1441 -91 1130 -33 
Q 819 25 488 141 
L 488 750 
Q 750 597 1062 519 
Q 1375 441 1716 441 
Q 2309 441 2620 675 
Q 2931 909 2931 1356 
Q 2931 1769 2642 2001 
Q 2353 2234 1838 2234 
L 1294 2234 
L 1294 2753 
L 1863 2753 
Q 2328 2753 2575 2939 
Q 2822 3125 2822 3475 
Q 2822 3834 2567 4026 
Q 2313 4219 1838 4219 
Q 1578 4219 1281 4162 
Q 984 4106 628 3988 
L 628 4550 
Q 988 4650 1302 4700 
Q 1616 4750 1894 4750 
Q 2613 4750 3031 4423 
Q 3450 4097 3450 3541 
Q 3450 3153 3228 2886 
Q 3006 2619 2597 2516 
z
" transform="scale(0.015625)"/>
        <path id="DejaVuSans-32" d="M 1228 531 
L 3431 531 
L 3431 0 
L 469 0 
L 469 531 
Q 828 903 1448 1529 
Q 2069 2156 2228 2338 
Q 2531 2678 2651 2914 
Q 2772 3150 2772 3378 
Q 2772 3750 2511 3984 
Q 2250 4219 1831 4219 
Q 1534 4219 1204 4116 
Q 875 4013 500 3803 
L 500 4441 
Q 881 4594 1212 4672 
Q 1544 4750 1819 4750 
Q 2544 4750 2975 4387 
Q 3406 4025 3406 3419 
Q 3406 3131 3298 2873 
Q 3191 2616 2906 2266 
Q 2828 2175 2409 1742 
Q 1991 1309 1228 531 
z
" transform="scale(0.015625)"/>
       </defs>
       <use xlink:href="#DejaVuSans-33"/>
       <use xlink:href="#DejaVuSans-32" transform="translate(63.623047 0)"/>
      </g>
     </g>
    </g>
    <g id="xtick_5">
     <g id="line2d_5">
      <g>
       <use xlink:href="#m3129e38501" x="415.915637" y="212.624062" style="stroke: #000000; stroke-width: 0.8"/>
      </g>
     </g>
     <g id="text_5">
      <!-- 64 -->
      <g transform="translate(409.553137 227.2225) scale(0.1 -0.1)">
       <use xlink:href="#DejaVuSans-36"/>
       <use xlink:href="#DejaVuSans-34" transform="translate(63.623047 0)"/>
      </g>
     </g>
    </g>
    <g id="text_6">
     <!-- iscritti in galleria (N) -->
     <g transform="translate(194.399843 240.900625) scale(0.1 -0.1)">
      <defs>
       <path id="DejaVuSans-69" d="M 603 3500 
L 1178 3500 
L 1178 0 
L 603 0 
L 603 3500 
z
M 603 4863 
L 1178 4863 
L 1178 4134 
L 603 4134 
L 603 4863 
z
" transform="scale(0.015625)"/>
       <path id="DejaVuSans-73" d="M 2834 3397 
L 2834 2853 
Q 2591 2978 2328 3040 
Q 2066 3103 1784 3103 
Q 1356 3103 1142 2972 
Q 928 2841 928 2578 
Q 928 2378 1081 2264 
Q 1234 2150 1697 2047 
L 1894 2003 
Q 2506 1872 2764 1633 
Q 3022 1394 3022 966 
Q 3022 478 2636 193 
Q 2250 -91 1575 -91 
Q 1294 -91 989 -36 
Q 684 19 347 128 
L 347 722 
Q 666 556 975 473 
Q 1284 391 1588 391 
Q 1994 391 2212 530 
Q 2431 669 2431 922 
Q 2431 1156 2273 1281 
Q 2116 1406 1581 1522 
L 1381 1569 
Q 847 1681 609 1914 
Q 372 2147 372 2553 
Q 372 3047 722 3315 
Q 1072 3584 1716 3584 
Q 2034 3584 2315 3537 
Q 2597 3491 2834 3397 
z
" transform="scale(0.015625)"/>
       <path id="DejaVuSans-63" d="M 3122 3366 
L 3122 2828 
Q 2878 2963 2633 3030 
Q 2388 3097 2138 3097 
Q 1578 3097 1268 2742 
Q 959 2388 959 1747 
Q 959 1106 1268 751 
Q 1578 397 2138 397 
Q 2388 397 2633 464 
Q 2878 531 3122 666 
L 3122 134 
Q 2881 22 2623 -34 
Q 2366 -91 2075 -91 
Q 1284 -91 818 406 
Q 353 903 353 1747 
Q 353 2603 823 3093 
Q 1294 3584 2113 3584 
Q 2378 3584 2631 3529 
Q 2884 3475 3122 3366 
z
" transform="scale(0.015625)"/>
       <path id="DejaVuSans-72" d="M 2631 2963 
Q 2534 3019 2420 3045 
Q 2306 3072 2169 3072 
Q 1681 3072 1420 2755 
Q 1159 2438 1159 1844 
L 1159 0 
L 581 0 
L 581 3500 
L 1159 3500 
L 1159 2956 
Q 1341 3275 1631 3429 
Q 1922 3584 2338 3584 
Q 2397 3584 2469 3576 
Q 2541 3569 2628 3553 
L 2631 2963 
z
" transform="scale(0.015625)"/>
       <path id="DejaVuSans-74" d="M 1172 4494 
L 1172 3500 
L 2356 3500 
L 2356 3053 
L 1172 3053 
L 1172 1153 
Q 1172 725 1289 603 
Q 1406 481 1766 481 
L 2356 481 
L 2356 0 
L 1766 0 
Q 1100 0 847 248 
Q 594 497 594 1153 
L 594 3053 
L 172 3053 
L 172 3500 
L 594 3500 
L 594 4494 
L 1172 4494 
z
" transform="scale(0.015625)"/>
       <path id="DejaVuSans-20" transform="scale(0.015625)"/>
       <path id="DejaVuSans-6e" d="M 3513 2113 
L 3513 0 
L 2938 0 
L 2938 2094 
Q 2938 2591 2744 2837 
Q 2550 3084 2163 3084 
Q 1697 3084 1428 2787 
Q 1159 2491 1159 1978 
L 1159 0 
L 581 0 
L 581 3500 
L 1159 3500 
L 1159 2956 
Q 1366 3272 1645 3428 
Q 1925 3584 2291 3584 
Q 2894 3584 3203 3211 
Q 3513 2838 3513 2113 
z
" transform="scale(0.015625)"/>
       <path id="DejaVuSans-67" d="M 2906 1791 
Q 2906 2416 2648 2759 
Q 2391 3103 1925 3103 
Q 1463 3103 1205 2759 
Q 947 2416 947 1791 
Q 947 1169 1205 825 
Q 1463 481 1925 481 
Q 2391 481 2648 825 
Q 2906 1169 2906 1791 
z
M 3481 434 
Q 3481 -459 3084 -895 
Q 2688 -1331 1869 -1331 
Q 1566 -1331 1297 -1286 
Q 1028 -1241 775 -1147 
L 775 -588 
Q 1028 -725 1275 -790 
Q 1522 -856 1778 -856 
Q 2344 -856 2625 -561 
Q 2906 -266 2906 331 
L 2906 616 
Q 2728 306 2450 153 
Q 2172 0 1784 0 
Q 1141 0 747 490 
Q 353 981 353 1791 
Q 353 2603 747 3093 
Q 1141 3584 1784 3584 
Q 2172 3584 2450 3431 
Q 2728 3278 2906 2969 
L 2906 3500 
L 3481 3500 
L 3481 434 
z
" transform="scale(0.015625)"/>
       <path id="DejaVuSans-61" d="M 2194 1759 
Q 1497 1759 1228 1600 
Q 959 1441 959 1056 
Q 959 750 1161 570 
Q 1363 391 1709 391 
Q 2188 391 2477 730 
Q 2766 1069 2766 1631 
L 2766 1759 
L 2194 1759 
z
M 3341 1997 
L 3341 0 
L 2766 0 
L 2766 531 
Q 2569 213 2275 61 
Q 1981 -91 1556 -91 
Q 1019 -91 701 211 
Q 384 513 384 1019 
Q 384 1609 779 1909 
Q 1175 2209 1959 2209 
L 2766 2209 
L 2766 2266 
Q 2766 2663 2505 2880 
Q 2244 3097 1772 3097 
Q 1472 3097 1187 3025 
Q 903 2953 641 2809 
L 641 3341 
Q 956 3463 1253 3523 
Q 1550 3584 1831 3584 
Q 2591 3584 2966 3190 
Q 3341 2797 3341 1997 
z
" transform="scale(0.015625)"/>
       <path id="DejaVuSans-6c" d="M 603 4863 
L 1178 4863 
L 1178 0 
L 603 0 
L 603 4863 
z
" transform="scale(0.015625)"/>
       <path id="DejaVuSans-65" d="M 3597 1894 
L 3597 1613 
L 953 1613 
Q 991 1019 1311 708 
Q 1631 397 2203 397 
Q 2534 397 2845 478 
Q 3156 559 3463 722 
L 3463 178 
Q 3153 47 2828 -22 
Q 2503 -91 2169 -91 
Q 1331 -91 842 396 
Q 353 884 353 1716 
Q 353 2575 817 3079 
Q 1281 3584 2069 3584 
Q 2775 3584 3186 3129 
Q 3597 2675 3597 1894 
z
M 3022 2063 
Q 3016 2534 2758 2815 
Q 2500 3097 2075 3097 
Q 1594 3097 1305 2825 
Q 1016 2553 972 2059 
L 3022 2063 
z
" transform="scale(0.015625)"/>
       <path id="DejaVuSans-28" d="M 1984 4856 
Q 1566 4138 1362 3434 
Q 1159 2731 1159 2009 
Q 1159 1288 1364 580 
Q 1569 -128 1984 -844 
L 1484 -844 
Q 1016 -109 783 600 
Q 550 1309 550 2009 
Q 550 2706 781 3412 
Q 1013 4119 1484 4856 
L 1984 4856 
z
" transform="scale(0.015625)"/>
       <path id="DejaVuSans-4e" d="M 628 4666 
L 1478 4666 
L 3547 763 
L 3547 4666 
L 4159 4666 
L 4159 0 
L 3309 0 
L 1241 3903 
L 1241 0 
L 628 0 
L 628 4666 
z
" transform="scale(0.015625)"/>
       <path id="DejaVuSans-29" d="M 513 4856 
L 1013 4856 
Q 1481 4119 1714 3412 
Q 1947 2706 1947 2009 
Q 1947 1309 1714 600 
Q 1481 -109 1013 -844 
L 513 -844 
Q 928 -128 1133 580 
Q 1338 1288 1338 2009 
Q 1338 2731 1133 3434 
Q 928 4138 513 4856 
z
" transform="scale(0.015625)"/>
      </defs>
      <use xlink:href="#DejaVuSans-69"/>
      <use xlink:href="#DejaVuSans-73" transform="translate(27.783203 0)"/>
      <use xlink:href="#DejaVuSans-63" transform="translate(79.882812 0)"/>
      <use xlink:href="#DejaVuSans-72" transform="translate(134.863281 0)"/>
      <use xlink:href="#DejaVuSans-69" transform="translate(175.976562 0)"/>
      <use xlink:href="#DejaVuSans-74" transform="translate(203.759766 0)"/>
      <use xlink:href="#DejaVuSans-74" transform="translate(242.96875 0)"/>
      <use xlink:href="#DejaVuSans-69" transform="translate(282.177734 0)"/>
      <use xlink:href="#DejaVuSans-20" transform="translate(309.960938 0)"/>
      <use xlink:href="#DejaVuSans-69" transform="translate(341.748047 0)"/>
      <use xlink:href="#DejaVuSans-6e" transform="translate(369.53125 0)"/>
      <use xlink:href="#DejaVuSans-20" transform="translate(432.910156 0)"/>
      <use xlink:href="#DejaVuSans-67" transform="translate(464.697266 0)"/>
      <use xlink:href="#DejaVuSans-61" transform="translate(528.173828 0)"/>
      <use xlink:href="#DejaVuSans-6c" transform="translate(589.453125 0)"/>
      <use xlink:href="#DejaVuSans-6c" transform="translate(617.236328 0)"/>
      <use xlink:href="#DejaVuSans-65" transform="translate(645.019531 0)"/>
      <use xlink:href="#DejaVuSans-72" transform="translate(706.542969 0)"/>
      <use xlink:href="#DejaVuSans-69" transform="translate(747.65625 0)"/>
      <use xlink:href="#DejaVuSans-61" transform="translate(775.439453 0)"/>
      <use xlink:href="#DejaVuSans-20" transform="translate(836.71875 0)"/>
      <use xlink:href="#DejaVuSans-28" transform="translate(868.505859 0)"/>
      <use xlink:href="#DejaVuSans-4e" transform="translate(907.519531 0)"/>
      <use xlink:href="#DejaVuSans-29" transform="translate(982.324219 0)"/>
     </g>
    </g>
   </g>
   <g id="matplotlib.axis_2">
    <g id="ytick_1">
     <g id="line2d_6">
      <defs>
       <path id="m54668a5af3" d="M 0 0 
L -3.5 0 
" style="stroke: #000000; stroke-width: 0.8"/>
      </defs>
      <g>
       <use xlink:href="#m54668a5af3" x="46.965625" y="212.624062" style="stroke: #000000; stroke-width: 0.8"/>
      </g>
     </g>
     <g id="text_7">
      <!-- 0 -->
      <g transform="translate(33.603125 216.423281) scale(0.1 -0.1)">
       <defs>
        <path id="DejaVuSans-30" d="M 2034 4250 
Q 1547 4250 1301 3770 
Q 1056 3291 1056 2328 
Q 1056 1369 1301 889 
Q 1547 409 2034 409 
Q 2525 409 2770 889 
Q 3016 1369 3016 2328 
Q 3016 3291 2770 3770 
Q 2525 4250 2034 4250 
z
M 2034 4750 
Q 2819 4750 3233 4129 
Q 3647 3509 3647 2328 
Q 3647 1150 3233 529 
Q 2819 -91 2034 -91 
Q 1250 -91 836 529 
Q 422 1150 422 2328 
Q 422 3509 836 4129 
Q 1250 4750 2034 4750 
z
" transform="scale(0.015625)"/>
       </defs>
       <use xlink:href="#DejaVuSans-30"/>
      </g>
     </g>
    </g>
    <g id="ytick_2">
     <g id="line2d_7">
      <g>
       <use xlink:href="#m54668a5af3" x="46.965625" y="189.04722" style="stroke: #000000; stroke-width: 0.8"/>
      </g>
     </g>
     <g id="text_8">
      <!-- 50 -->
      <g transform="translate(27.240625 192.846439) scale(0.1 -0.1)">
       <defs>
        <path id="DejaVuSans-35" d="M 691 4666 
L 3169 4666 
L 3169 4134 
L 1269 4134 
L 1269 2991 
Q 1406 3038 1543 3061 
Q 1681 3084 1819 3084 
Q 2600 3084 3056 2656 
Q 3513 2228 3513 1497 
Q 3513 744 3044 326 
Q 2575 -91 1722 -91 
Q 1428 -91 1123 -41 
Q 819 9 494 109 
L 494 744 
Q 775 591 1075 516 
Q 1375 441 1709 441 
Q 2250 441 2565 725 
Q 2881 1009 2881 1497 
Q 2881 1984 2565 2268 
Q 2250 2553 1709 2553 
Q 1456 2553 1204 2497 
Q 953 2441 691 2322 
L 691 4666 
z
" transform="scale(0.015625)"/>
       </defs>
       <use xlink:href="#DejaVuSans-35"/>
       <use xlink:href="#DejaVuSans-30" transform="translate(63.623047 0)"/>
      </g>
     </g>
    </g>
    <g id="ytick_3">
     <g id="line2d_8">
      <g>
       <use xlink:href="#m54668a5af3" x="46.965625" y="165.470378" style="stroke: #000000; stroke-width: 0.8"/>
      </g>
     </g>
     <g id="text_9">
      <!-- 100 -->
      <g transform="translate(20.878125 169.269597) scale(0.1 -0.1)">
       <use xlink:href="#DejaVuSans-31"/>
       <use xlink:href="#DejaVuSans-30" transform="translate(63.623047 0)"/>
       <use xlink:href="#DejaVuSans-30" transform="translate(127.246094 0)"/>
      </g>
     </g>
    </g>
    <g id="ytick_4">
     <g id="line2d_9">
      <g>
       <use xlink:href="#m54668a5af3" x="46.965625" y="141.893536" style="stroke: #000000; stroke-width: 0.8"/>
      </g>
     </g>
     <g id="text_10">
      <!-- 150 -->
      <g transform="translate(20.878125 145.692755) scale(0.1 -0.1)">
       <use xlink:href="#DejaVuSans-31"/>
       <use xlink:href="#DejaVuSans-35" transform="translate(63.623047 0)"/>
       <use xlink:href="#DejaVuSans-30" transform="translate(127.246094 0)"/>
      </g>
     </g>
    </g>
    <g id="ytick_5">
     <g id="line2d_10">
      <g>
       <use xlink:href="#m54668a5af3" x="46.965625" y="118.316694" style="stroke: #000000; stroke-width: 0.8"/>
      </g>
     </g>
     <g id="text_11">
      <!-- 200 -->
      <g transform="translate(20.878125 122.115913) scale(0.1 -0.1)">
       <use xlink:href="#DejaVuSans-32"/>
       <use xlink:href="#DejaVuSans-30" transform="translate(63.623047 0)"/>
       <use xlink:href="#DejaVuSans-30" transform="translate(127.246094 0)"/>
      </g>
     </g>
    </g>
    <g id="ytick_6">
     <g id="line2d_11">
      <g>
       <use xlink:href="#m54668a5af3" x="46.965625" y="94.739852" style="stroke: #000000; stroke-width: 0.8"/>
      </g>
     </g>
     <g id="text_12">
      <!-- 250 -->
      <g transform="translate(20.878125 98.539071) scale(0.1 -0.1)">
       <use xlink:href="#DejaVuSans-32"/>
       <use xlink:href="#DejaVuSans-35" transform="translate(63.623047 0)"/>
       <use xlink:href="#DejaVuSans-30" transform="translate(127.246094 0)"/>
      </g>
     </g>
    </g>
    <g id="ytick_7">
     <g id="line2d_12">
      <g>
       <use xlink:href="#m54668a5af3" x="46.965625" y="71.16301" style="stroke: #000000; stroke-width: 0.8"/>
      </g>
     </g>
     <g id="text_13">
      <!-- 300 -->
      <g transform="translate(20.878125 74.962229) scale(0.1 -0.1)">
       <use xlink:href="#DejaVuSans-33"/>
       <use xlink:href="#DejaVuSans-30" transform="translate(63.623047 0)"/>
       <use xlink:href="#DejaVuSans-30" transform="translate(127.246094 0)"/>
      </g>
     </g>
    </g>
    <g id="ytick_8">
     <g id="line2d_13">
      <g>
       <use xlink:href="#m54668a5af3" x="46.965625" y="47.586168" style="stroke: #000000; stroke-width: 0.8"/>
      </g>
     </g>
     <g id="text_14">
      <!-- 350 -->
      <g transform="translate(20.878125 51.385387) scale(0.1 -0.1)">
       <use xlink:href="#DejaVuSans-33"/>
       <use xlink:href="#DejaVuSans-35" transform="translate(63.623047 0)"/>
       <use xlink:href="#DejaVuSans-30" transform="translate(127.246094 0)"/>
      </g>
     </g>
    </g>
    <g id="text_15">
     <!-- tempo per query (s) -->
     <g transform="translate(14.798438 173.18675) rotate(-90) scale(0.1 -0.1)">
      <defs>
       <path id="DejaVuSans-6d" d="M 3328 2828 
Q 3544 3216 3844 3400 
Q 4144 3584 4550 3584 
Q 5097 3584 5394 3201 
Q 5691 2819 5691 2113 
L 5691 0 
L 5113 0 
L 5113 2094 
Q 5113 2597 4934 2840 
Q 4756 3084 4391 3084 
Q 3944 3084 3684 2787 
Q 3425 2491 3425 1978 
L 3425 0 
L 2847 0 
L 2847 2094 
Q 2847 2600 2669 2842 
Q 2491 3084 2119 3084 
Q 1678 3084 1418 2786 
Q 1159 2488 1159 1978 
L 1159 0 
L 581 0 
L 581 3500 
L 1159 3500 
L 1159 2956 
Q 1356 3278 1631 3431 
Q 1906 3584 2284 3584 
Q 2666 3584 2933 3390 
Q 3200 3197 3328 2828 
z
" transform="scale(0.015625)"/>
       <path id="DejaVuSans-70" d="M 1159 525 
L 1159 -1331 
L 581 -1331 
L 581 3500 
L 1159 3500 
L 1159 2969 
Q 1341 3281 1617 3432 
Q 1894 3584 2278 3584 
Q 2916 3584 3314 3078 
Q 3713 2572 3713 1747 
Q 3713 922 3314 415 
Q 2916 -91 2278 -91 
Q 1894 -91 1617 61 
Q 1341 213 1159 525 
z
M 3116 1747 
Q 3116 2381 2855 2742 
Q 2594 3103 2138 3103 
Q 1681 3103 1420 2742 
Q 1159 2381 1159 1747 
Q 1159 1113 1420 752 
Q 1681 391 2138 391 
Q 2594 391 2855 752 
Q 3116 1113 3116 1747 
z
" transform="scale(0.015625)"/>
       <path id="DejaVuSans-6f" d="M 1959 3097 
Q 1497 3097 1228 2736 
Q 959 2375 959 1747 
Q 959 1119 1226 758 
Q 1494 397 1959 397 
Q 2419 397 2687 759 
Q 2956 1122 2956 1747 
Q 2956 2369 2687 2733 
Q 2419 3097 1959 3097 
z
M 1959 3584 
Q 2709 3584 3137 3096 
Q 3566 2609 3566 1747 
Q 3566 888 3137 398 
Q 2709 -91 1959 -91 
Q 1206 -91 779 398 
Q 353 888 353 1747 
Q 353 2609 779 3096 
Q 1206 3584 1959 3584 
z
" transform="scale(0.015625)"/>
       <path id="DejaVuSans-71" d="M 947 1747 
Q 947 1113 1208 752 
Q 1469 391 1925 391 
Q 2381 391 2643 752 
Q 2906 1113 2906 1747 
Q 2906 2381 2643 2742 
Q 2381 3103 1925 3103 
Q 1469 3103 1208 2742 
Q 947 2381 947 1747 
z
M 2906 525 
Q 2725 213 2448 61 
Q 2172 -91 1784 -91 
Q 1150 -91 751 415 
Q 353 922 353 1747 
Q 353 2572 751 3078 
Q 1150 3584 1784 3584 
Q 2172 3584 2448 3432 
Q 2725 3281 2906 2969 
L 2906 3500 
L 3481 3500 
L 3481 -1331 
L 2906 -1331 
L 2906 525 
z
" transform="scale(0.015625)"/>
       <path id="DejaVuSans-75" d="M 544 1381 
L 544 3500 
L 1119 3500 
L 1119 1403 
Q 1119 906 1312 657 
Q 1506 409 1894 409 
Q 2359 409 2629 706 
Q 2900 1003 2900 1516 
L 2900 3500 
L 3475 3500 
L 3475 0 
L 2900 0 
L 2900 538 
Q 2691 219 2414 64 
Q 2138 -91 1772 -91 
Q 1169 -91 856 284 
Q 544 659 544 1381 
z
M 1991 3584 
L 1991 3584 
z
" transform="scale(0.015625)"/>
       <path id="DejaVuSans-79" d="M 2059 -325 
Q 1816 -950 1584 -1140 
Q 1353 -1331 966 -1331 
L 506 -1331 
L 506 -850 
L 844 -850 
Q 1081 -850 1212 -737 
Q 1344 -625 1503 -206 
L 1606 56 
L 191 3500 
L 800 3500 
L 1894 763 
L 2988 3500 
L 3597 3500 
L 2059 -325 
z
" transform="scale(0.015625)"/>
      </defs>
      <use xlink:href="#DejaVuSans-74"/>
      <use xlink:href="#DejaVuSans-65" transform="translate(39.208984 0)"/>
      <use xlink:href="#DejaVuSans-6d" transform="translate(100.732422 0)"/>
      <use xlink:href="#DejaVuSans-70" transform="translate(198.144531 0)"/>
      <use xlink:href="#DejaVuSans-6f" transform="translate(261.621094 0)"/>
      <use xlink:href="#DejaVuSans-20" transform="translate(322.802734 0)"/>
      <use xlink:href="#DejaVuSans-70" transform="translate(354.589844 0)"/>
      <use xlink:href="#DejaVuSans-65" transform="translate(418.066406 0)"/>
      <use xlink:href="#DejaVuSans-72" transform="translate(479.589844 0)"/>
      <use xlink:href="#DejaVuSans-20" transform="translate(520.703125 0)"/>
      <use xlink:href="#DejaVuSans-71" transform="translate(552.490234 0)"/>
      <use xlink:href="#DejaVuSans-75" transform="translate(615.966797 0)"/>
      <use xlink:href="#DejaVuSans-65" transform="translate(679.345703 0)"/>
      <use xlink:href="#DejaVuSans-72" transform="translate(740.869141 0)"/>
      <use xlink:href="#DejaVuSans-79" transform="translate(781.982422 0)"/>
      <use xlink:href="#DejaVuSans-20" transform="translate(841.162109 0)"/>
      <use xlink:href="#DejaVuSans-28" transform="translate(872.949219 0)"/>
      <use xlink:href="#DejaVuSans-73" transform="translate(911.962891 0)"/>
      <use xlink:href="#DejaVuSans-29" transform="translate(964.0625 0)"/>
     </g>
    </g>
   </g>
   <g id="line2d_14">
    <path d="M 67.394641 175.683866 
L 154.52489 127.582393 
" clip-path="url(#p9edf0a3aae)" style="fill: none; stroke: #264653; stroke-width: 2.2; stroke-linecap: square"/>
    <defs>
     <path id="mc2b0275469" d="M 0 4.5 
C 1.193414 4.5 2.338109 4.025852 3.181981 3.181981 
C 4.025852 2.338109 4.5 1.193414 4.5 0 
C 4.5 -1.193414 4.025852 -2.338109 3.181981 -3.181981 
C 2.338109 -4.025852 1.193414 -4.5 0 -4.5 
C -1.193414 -4.5 -2.338109 -4.025852 -3.181981 -3.181981 
C -4.025852 -2.338109 -4.5 -1.193414 -4.5 0 
C -4.5 1.193414 -4.025852 2.338109 -3.181981 3.181981 
C -2.338109 4.025852 -1.193414 4.5 0 4.5 
z
" style="stroke: #264653"/>
    </defs>
    <g clip-path="url(#p9edf0a3aae)">
     <use xlink:href="#mc2b0275469" x="67.394641" y="175.683866" style="fill: #264653; stroke: #264653"/>
     <use xlink:href="#mc2b0275469" x="154.52489" y="127.582393" style="fill: #264653; stroke: #264653"/>
    </g>
   </g>
   <g id="line2d_15">
    <path d="M 67.394641 195.601582 
L 154.52489 180.022005 
" clip-path="url(#p9edf0a3aae)" style="fill: none; stroke: #e9a000; stroke-width: 2.2; stroke-linecap: square"/>
    <defs>
     <path id="mf150c62965" d="M -4.5 4.5 
L 4.5 4.5 
L 4.5 -4.5 
L -4.5 -4.5 
z
" style="stroke: #e9a000; stroke-linejoin: miter"/>
    </defs>
    <g clip-path="url(#p9edf0a3aae)">
     <use xlink:href="#mf150c62965" x="67.394641" y="195.601582" style="fill: #e9a000; stroke: #e9a000; stroke-linejoin: miter"/>
     <use xlink:href="#mf150c62965" x="154.52489" y="180.022005" style="fill: #e9a000; stroke: #e9a000; stroke-linejoin: miter"/>
    </g>
   </g>
   <g id="line2d_16">
    <path d="M 154.52489 197.893252 
L 415.915637 48.708425 
" clip-path="url(#p9edf0a3aae)" style="fill: none; stroke: #2a9d8f; stroke-width: 2.2; stroke-linecap: square"/>
    <defs>
     <path id="m190f254086" d="M 0 -4.5 
L -4.5 4.5 
L 4.5 4.5 
z
" style="stroke: #2a9d8f; stroke-linejoin: miter"/>
    </defs>
    <g clip-path="url(#p9edf0a3aae)">
     <use xlink:href="#m190f254086" x="154.52489" y="197.893252" style="fill: #2a9d8f; stroke: #2a9d8f; stroke-linejoin: miter"/>
     <use xlink:href="#m190f254086" x="415.915637" y="48.708425" style="fill: #2a9d8f; stroke: #2a9d8f; stroke-linejoin: miter"/>
    </g>
   </g>
   <g id="line2d_17">
    <path d="M 46.965625 184.331852 
L 443.965312 184.331852 
" clip-path="url(#p9edf0a3aae)" style="fill: none; stroke-dasharray: 1,1.65; stroke-dashoffset: 0; stroke: #c0392b"/>
   </g>
   <g id="patch_3">
    <path d="M 46.965625 212.624062 
L 46.965625 33.440062 
" style="fill: none; stroke: #000000; stroke-width: 0.8; stroke-linejoin: miter; stroke-linecap: square"/>
   </g>
   <g id="patch_4">
    <path d="M 46.965625 212.624062 
L 443.965312 212.624062 
" style="fill: none; stroke: #000000; stroke-width: 0.8; stroke-linejoin: miter; stroke-linecap: square"/>
   </g>
   <g id="text_16">
    <!-- 78s -->
    <g style="fill: #264653" transform="translate(73.394641 168.683866) scale(0.085 -0.085)">
     <defs>
      <path id="DejaVuSans-Bold-37" d="M 428 4666 
L 3944 4666 
L 3944 3988 
L 2125 0 
L 953 0 
L 2675 3781 
L 428 3781 
L 428 4666 
z
" transform="scale(0.015625)"/>
      <path id="DejaVuSans-Bold-38" d="M 2228 2088 
Q 1891 2088 1709 1903 
Q 1528 1719 1528 1375 
Q 1528 1031 1709 848 
Q 1891 666 2228 666 
Q 2563 666 2741 848 
Q 2919 1031 2919 1375 
Q 2919 1722 2741 1905 
Q 2563 2088 2228 2088 
z
M 1350 2484 
Q 925 2613 709 2878 
Q 494 3144 494 3541 
Q 494 4131 934 4440 
Q 1375 4750 2228 4750 
Q 3075 4750 3515 4442 
Q 3956 4134 3956 3541 
Q 3956 3144 3739 2878 
Q 3522 2613 3097 2484 
Q 3572 2353 3814 2058 
Q 4056 1763 4056 1313 
Q 4056 619 3595 264 
Q 3134 -91 2228 -91 
Q 1319 -91 855 264 
Q 391 619 391 1313 
Q 391 1763 633 2058 
Q 875 2353 1350 2484 
z
M 1631 3419 
Q 1631 3141 1786 2991 
Q 1941 2841 2228 2841 
Q 2509 2841 2662 2991 
Q 2816 3141 2816 3419 
Q 2816 3697 2662 3845 
Q 2509 3994 2228 3994 
Q 1941 3994 1786 3844 
Q 1631 3694 1631 3419 
z
" transform="scale(0.015625)"/>
      <path id="DejaVuSans-Bold-73" d="M 3272 3391 
L 3272 2541 
Q 2913 2691 2578 2766 
Q 2244 2841 1947 2841 
Q 1628 2841 1473 2761 
Q 1319 2681 1319 2516 
Q 1319 2381 1436 2309 
Q 1553 2238 1856 2203 
L 2053 2175 
Q 2913 2066 3209 1816 
Q 3506 1566 3506 1031 
Q 3506 472 3093 190 
Q 2681 -91 1863 -91 
Q 1516 -91 1145 -36 
Q 775 19 384 128 
L 384 978 
Q 719 816 1070 734 
Q 1422 653 1784 653 
Q 2113 653 2278 743 
Q 2444 834 2444 1013 
Q 2444 1163 2330 1236 
Q 2216 1309 1875 1350 
L 1678 1375 
Q 931 1469 631 1722 
Q 331 1975 331 2491 
Q 331 3047 712 3315 
Q 1094 3584 1881 3584 
Q 2191 3584 2531 3537 
Q 2872 3491 3272 3391 
z
" transform="scale(0.015625)"/>
     </defs>
     <use xlink:href="#DejaVuSans-Bold-37"/>
     <use xlink:href="#DejaVuSans-Bold-38" transform="translate(69.580078 0)"/>
     <use xlink:href="#DejaVuSans-Bold-73" transform="translate(139.160156 0)"/>
    </g>
   </g>
   <g id="text_17">
    <!-- 180s -->
    <g style="fill: #264653" transform="translate(160.52489 120.582393) scale(0.085 -0.085)">
     <defs>
      <path id="DejaVuSans-Bold-31" d="M 750 831 
L 1813 831 
L 1813 3847 
L 722 3622 
L 722 4441 
L 1806 4666 
L 2950 4666 
L 2950 831 
L 4013 831 
L 4013 0 
L 750 0 
L 750 831 
z
" transform="scale(0.015625)"/>
      <path id="DejaVuSans-Bold-30" d="M 2944 2338 
Q 2944 3213 2780 3570 
Q 2616 3928 2228 3928 
Q 1841 3928 1675 3570 
Q 1509 3213 1509 2338 
Q 1509 1453 1675 1090 
Q 1841 728 2228 728 
Q 2613 728 2778 1090 
Q 2944 1453 2944 2338 
z
M 4147 2328 
Q 4147 1169 3647 539 
Q 3147 -91 2228 -91 
Q 1306 -91 806 539 
Q 306 1169 306 2328 
Q 306 3491 806 4120 
Q 1306 4750 2228 4750 
Q 3147 4750 3647 4120 
Q 4147 3491 4147 2328 
z
" transform="scale(0.015625)"/>
     </defs>
     <use xlink:href="#DejaVuSans-Bold-31"/>
     <use xlink:href="#DejaVuSans-Bold-38" transform="translate(69.580078 0)"/>
     <use xlink:href="#DejaVuSans-Bold-30" transform="translate(139.160156 0)"/>
     <use xlink:href="#DejaVuSans-Bold-73" transform="translate(208.740234 0)"/>
    </g>
   </g>
   <g id="text_18">
    <!-- 36s -->
    <g style="fill: #e9a000" transform="translate(73.394641 188.601582) scale(0.085 -0.085)">
     <defs>
      <path id="DejaVuSans-Bold-33" d="M 2981 2516 
Q 3453 2394 3698 2092 
Q 3944 1791 3944 1325 
Q 3944 631 3412 270 
Q 2881 -91 1863 -91 
Q 1503 -91 1142 -33 
Q 781 25 428 141 
L 428 1069 
Q 766 900 1098 814 
Q 1431 728 1753 728 
Q 2231 728 2486 893 
Q 2741 1059 2741 1369 
Q 2741 1688 2480 1852 
Q 2219 2016 1709 2016 
L 1228 2016 
L 1228 2791 
L 1734 2791 
Q 2188 2791 2409 2933 
Q 2631 3075 2631 3366 
Q 2631 3634 2415 3781 
Q 2200 3928 1806 3928 
Q 1516 3928 1219 3862 
Q 922 3797 628 3669 
L 628 4550 
Q 984 4650 1334 4700 
Q 1684 4750 2022 4750 
Q 2931 4750 3382 4451 
Q 3834 4153 3834 3553 
Q 3834 3144 3618 2883 
Q 3403 2622 2981 2516 
z
" transform="scale(0.015625)"/>
      <path id="DejaVuSans-Bold-36" d="M 2316 2303 
Q 2000 2303 1842 2098 
Q 1684 1894 1684 1484 
Q 1684 1075 1842 870 
Q 2000 666 2316 666 
Q 2634 666 2792 870 
Q 2950 1075 2950 1484 
Q 2950 1894 2792 2098 
Q 2634 2303 2316 2303 
z
M 3803 4544 
L 3803 3681 
Q 3506 3822 3243 3889 
Q 2981 3956 2731 3956 
Q 2194 3956 1894 3657 
Q 1594 3359 1544 2772 
Q 1750 2925 1990 3001 
Q 2231 3078 2516 3078 
Q 3231 3078 3670 2659 
Q 4109 2241 4109 1563 
Q 4109 813 3618 361 
Q 3128 -91 2303 -91 
Q 1394 -91 895 523 
Q 397 1138 397 2266 
Q 397 3422 980 4083 
Q 1563 4744 2578 4744 
Q 2900 4744 3203 4694 
Q 3506 4644 3803 4544 
z
" transform="scale(0.015625)"/>
     </defs>
     <use xlink:href="#DejaVuSans-Bold-33"/>
     <use xlink:href="#DejaVuSans-Bold-36" transform="translate(69.580078 0)"/>
     <use xlink:href="#DejaVuSans-Bold-73" transform="translate(139.160156 0)"/>
    </g>
   </g>
   <g id="text_19">
    <!-- 69s -->
    <g style="fill: #e9a000" transform="translate(160.52489 173.022005) scale(0.085 -0.085)">
     <defs>
      <path id="DejaVuSans-Bold-39" d="M 641 103 
L 641 966 
Q 928 831 1190 764 
Q 1453 697 1709 697 
Q 2247 697 2547 995 
Q 2847 1294 2900 1881 
Q 2688 1725 2447 1647 
Q 2206 1569 1925 1569 
Q 1209 1569 770 1986 
Q 331 2403 331 3084 
Q 331 3838 820 4291 
Q 1309 4744 2131 4744 
Q 3044 4744 3544 4128 
Q 4044 3513 4044 2388 
Q 4044 1231 3459 570 
Q 2875 -91 1856 -91 
Q 1528 -91 1228 -42 
Q 928 6 641 103 
z
M 2125 2350 
Q 2441 2350 2600 2554 
Q 2759 2759 2759 3169 
Q 2759 3575 2600 3781 
Q 2441 3988 2125 3988 
Q 1809 3988 1650 3781 
Q 1491 3575 1491 3169 
Q 1491 2759 1650 2554 
Q 1809 2350 2125 2350 
z
" transform="scale(0.015625)"/>
     </defs>
     <use xlink:href="#DejaVuSans-Bold-36"/>
     <use xlink:href="#DejaVuSans-Bold-39" transform="translate(69.580078 0)"/>
     <use xlink:href="#DejaVuSans-Bold-73" transform="translate(139.160156 0)"/>
    </g>
   </g>
   <g id="text_20">
    <!-- 31s -->
    <g style="fill: #2a9d8f" transform="translate(160.52489 190.893252) scale(0.085 -0.085)">
     <use xlink:href="#DejaVuSans-Bold-33"/>
     <use xlink:href="#DejaVuSans-Bold-31" transform="translate(69.580078 0)"/>
     <use xlink:href="#DejaVuSans-Bold-73" transform="translate(139.160156 0)"/>
    </g>
   </g>
   <g id="text_21">
    <!-- 348s -->
    <g style="fill: #2a9d8f" transform="translate(421.915637 41.708425) scale(0.085 -0.085)">
     <defs>
      <path id="DejaVuSans-Bold-34" d="M 2356 3675 
L 1038 1722 
L 2356 1722 
L 2356 3675 
z
M 2156 4666 
L 3494 4666 
L 3494 1722 
L 4159 1722 
L 4159 850 
L 3494 850 
L 3494 0 
L 2356 0 
L 2356 850 
L 288 850 
L 288 1881 
L 2156 4666 
z
" transform="scale(0.015625)"/>
     </defs>
     <use xlink:href="#DejaVuSans-Bold-33"/>
     <use xlink:href="#DejaVuSans-Bold-34" transform="translate(69.580078 0)"/>
     <use xlink:href="#DejaVuSans-Bold-38" transform="translate(139.160156 0)"/>
     <use xlink:href="#DejaVuSans-Bold-73" transform="translate(208.740234 0)"/>
    </g>
   </g>
   <g id="text_22">
    <!-- 1 minuto -->
    <g style="fill: #c0392b" transform="translate(381.726286 182.445705) scale(0.085 -0.085)">
     <use xlink:href="#DejaVuSans-31"/>
     <use xlink:href="#DejaVuSans-20" transform="translate(63.623047 0)"/>
     <use xlink:href="#DejaVuSans-6d" transform="translate(95.410156 0)"/>
     <use xlink:href="#DejaVuSans-69" transform="translate(192.822266 0)"/>
     <use xlink:href="#DejaVuSans-6e" transform="translate(220.605469 0)"/>
     <use xlink:href="#DejaVuSans-75" transform="translate(283.984375 0)"/>
     <use xlink:href="#DejaVuSans-74" transform="translate(347.363281 0)"/>
     <use xlink:href="#DejaVuSans-6f" transform="translate(386.572266 0)"/>
    </g>
   </g>
   <g id="text_23">
    <!-- Match privato sul server: lento e ~lineare in N -->
    <g transform="translate(124.144531 15.178359) scale(0.105 -0.105)">
     <defs>
      <path id="DejaVuSans-4d" d="M 628 4666 
L 1569 4666 
L 2759 1491 
L 3956 4666 
L 4897 4666 
L 4897 0 
L 4281 0 
L 4281 4097 
L 3078 897 
L 2444 897 
L 1241 4097 
L 1241 0 
L 628 0 
L 628 4666 
z
" transform="scale(0.015625)"/>
      <path id="DejaVuSans-68" d="M 3513 2113 
L 3513 0 
L 2938 0 
L 2938 2094 
Q 2938 2591 2744 2837 
Q 2550 3084 2163 3084 
Q 1697 3084 1428 2787 
Q 1159 2491 1159 1978 
L 1159 0 
L 581 0 
L 581 4863 
L 1159 4863 
L 1159 2956 
Q 1366 3272 1645 3428 
Q 1925 3584 2291 3584 
Q 2894 3584 3203 3211 
Q 3513 2838 3513 2113 
z
" transform="scale(0.015625)"/>
      <path id="DejaVuSans-76" d="M 191 3500 
L 800 3500 
L 1894 563 
L 2988 3500 
L 3597 3500 
L 2284 0 
L 1503 0 
L 191 3500 
z
" transform="scale(0.015625)"/>
      <path id="DejaVuSans-3a" d="M 750 794 
L 1409 794 
L 1409 0 
L 750 0 
L 750 794 
z
M 750 3309 
L 1409 3309 
L 1409 2516 
L 750 2516 
L 750 3309 
z
" transform="scale(0.015625)"/>
      <path id="DejaVuSans-7e" d="M 4684 2553 
L 4684 1997 
Q 4356 1750 4076 1644 
Q 3797 1538 3494 1538 
Q 3150 1538 2694 1722 
Q 2659 1734 2644 1741 
Q 2622 1750 2575 1766 
Q 2091 1959 1797 1959 
Q 1522 1959 1253 1839 
Q 984 1719 678 1459 
L 678 2016 
Q 1006 2263 1286 2370 
Q 1566 2478 1869 2478 
Q 2213 2478 2672 2291 
Q 2703 2278 2719 2272 
Q 2744 2263 2788 2247 
Q 3272 2053 3566 2053 
Q 3834 2053 4098 2172 
Q 4363 2291 4684 2553 
z
" transform="scale(0.015625)"/>
     </defs>
     <use xlink:href="#DejaVuSans-4d"/>
     <use xlink:href="#DejaVuSans-61" transform="translate(86.279297 0)"/>
     <use xlink:href="#DejaVuSans-74" transform="translate(147.558594 0)"/>
     <use xlink:href="#DejaVuSans-63" transform="translate(186.767578 0)"/>
     <use xlink:href="#DejaVuSans-68" transform="translate(241.748047 0)"/>
     <use xlink:href="#DejaVuSans-20" transform="translate(305.126953 0)"/>
     <use xlink:href="#DejaVuSans-70" transform="translate(336.914062 0)"/>
     <use xlink:href="#DejaVuSans-72" transform="translate(400.390625 0)"/>
     <use xlink:href="#DejaVuSans-69" transform="translate(441.503906 0)"/>
     <use xlink:href="#DejaVuSans-76" transform="translate(469.287109 0)"/>
     <use xlink:href="#DejaVuSans-61" transform="translate(528.466797 0)"/>
     <use xlink:href="#DejaVuSans-74" transform="translate(589.746094 0)"/>
     <use xlink:href="#DejaVuSans-6f" transform="translate(628.955078 0)"/>
     <use xlink:href="#DejaVuSans-20" transform="translate(690.136719 0)"/>
     <use xlink:href="#DejaVuSans-73" transform="translate(721.923828 0)"/>
     <use xlink:href="#DejaVuSans-75" transform="translate(774.023438 0)"/>
     <use xlink:href="#DejaVuSans-6c" transform="translate(837.402344 0)"/>
     <use xlink:href="#DejaVuSans-20" transform="translate(865.185547 0)"/>
     <use xlink:href="#DejaVuSans-73" transform="translate(896.972656 0)"/>
     <use xlink:href="#DejaVuSans-65" transform="translate(949.072266 0)"/>
     <use xlink:href="#DejaVuSans-72" transform="translate(1010.595703 0)"/>
     <use xlink:href="#DejaVuSans-76" transform="translate(1051.708984 0)"/>
     <use xlink:href="#DejaVuSans-65" transform="translate(1110.888672 0)"/>
     <use xlink:href="#DejaVuSans-72" transform="translate(1172.412109 0)"/>
     <use xlink:href="#DejaVuSans-3a" transform="translate(1211.775391 0)"/>
     <use xlink:href="#DejaVuSans-20" transform="translate(1245.466797 0)"/>
     <use xlink:href="#DejaVuSans-6c" transform="translate(1277.253906 0)"/>
     <use xlink:href="#DejaVuSans-65" transform="translate(1305.037109 0)"/>
     <use xlink:href="#DejaVuSans-6e" transform="translate(1366.560547 0)"/>
     <use xlink:href="#DejaVuSans-74" transform="translate(1429.939453 0)"/>
     <use xlink:href="#DejaVuSans-6f" transform="translate(1469.148438 0)"/>
     <use xlink:href="#DejaVuSans-20" transform="translate(1530.330078 0)"/>
     <use xlink:href="#DejaVuSans-65" transform="translate(1562.117188 0)"/>
     <use xlink:href="#DejaVuSans-20" transform="translate(1623.640625 0)"/>
     <use xlink:href="#DejaVuSans-7e" transform="translate(1655.427734 0)"/>
     <use xlink:href="#DejaVuSans-6c" transform="translate(1739.216797 0)"/>
     <use xlink:href="#DejaVuSans-69" transform="translate(1767 0)"/>
     <use xlink:href="#DejaVuSans-6e" transform="translate(1794.783203 0)"/>
     <use xlink:href="#DejaVuSans-65" transform="translate(1858.162109 0)"/>
     <use xlink:href="#DejaVuSans-61" transform="translate(1919.685547 0)"/>
     <use xlink:href="#DejaVuSans-72" transform="translate(1980.964844 0)"/>
     <use xlink:href="#DejaVuSans-65" transform="translate(2019.828125 0)"/>
     <use xlink:href="#DejaVuSans-20" transform="translate(2081.351562 0)"/>
     <use xlink:href="#DejaVuSans-69" transform="translate(2113.138672 0)"/>
     <use xlink:href="#DejaVuSans-6e" transform="translate(2140.921875 0)"/>
     <use xlink:href="#DejaVuSans-20" transform="translate(2204.300781 0)"/>
     <use xlink:href="#DejaVuSans-4e" transform="translate(2236.087891 0)"/>
    </g>
    <!-- (la soglia è la più economica, ma non spezza la legge) -->
    <g transform="translate(102.869726 27.440062) scale(0.105 -0.105)">
     <defs>
      <path id="DejaVuSans-e8" d="M 3597 1894 
L 3597 1613 
L 953 1613 
Q 991 1019 1311 708 
Q 1631 397 2203 397 
Q 2534 397 2845 478 
Q 3156 559 3463 722 
L 3463 178 
Q 3153 47 2828 -22 
Q 2503 -91 2169 -91 
Q 1331 -91 842 396 
Q 353 884 353 1716 
Q 353 2575 817 3079 
Q 1281 3584 2069 3584 
Q 2775 3584 3186 3129 
Q 3597 2675 3597 1894 
z
M 3022 2063 
Q 3016 2534 2758 2815 
Q 2500 3097 2075 3097 
Q 1594 3097 1305 2825 
Q 1016 2553 972 2059 
L 3022 2063 
z
M 1579 5119 
L 2460 3950 
L 1982 3950 
L 963 5119 
L 1579 5119 
z
" transform="scale(0.015625)"/>
      <path id="DejaVuSans-f9" d="M 544 1381 
L 544 3500 
L 1119 3500 
L 1119 1403 
Q 1119 906 1312 657 
Q 1506 409 1894 409 
Q 2359 409 2629 706 
Q 2900 1003 2900 1516 
L 2900 3500 
L 3475 3500 
L 3475 0 
L 2900 0 
L 2900 538 
Q 2691 219 2414 64 
Q 2138 -91 1772 -91 
Q 1169 -91 856 284 
Q 544 659 544 1381 
z
M 1991 3584 
L 1991 3584 
z
M 1531 5119 
L 2412 3950 
L 1934 3950 
L 915 5119 
L 1531 5119 
z
" transform="scale(0.015625)"/>
      <path id="DejaVuSans-2c" d="M 750 794 
L 1409 794 
L 1409 256 
L 897 -744 
L 494 -744 
L 750 256 
L 750 794 
z
" transform="scale(0.015625)"/>
      <path id="DejaVuSans-7a" d="M 353 3500 
L 3084 3500 
L 3084 2975 
L 922 459 
L 3084 459 
L 3084 0 
L 275 0 
L 275 525 
L 2438 3041 
L 353 3041 
L 353 3500 
z
" transform="scale(0.015625)"/>
     </defs>
     <use xlink:href="#DejaVuSans-28"/>
     <use xlink:href="#DejaVuSans-6c" transform="translate(39.013672 0)"/>
     <use xlink:href="#DejaVuSans-61" transform="translate(66.796875 0)"/>
     <use xlink:href="#DejaVuSans-20" transform="translate(128.076172 0)"/>
     <use xlink:href="#DejaVuSans-73" transform="translate(159.863281 0)"/>
     <use xlink:href="#DejaVuSans-6f" transform="translate(211.962891 0)"/>
     <use xlink:href="#DejaVuSans-67" transform="translate(273.144531 0)"/>
     <use xlink:href="#DejaVuSans-6c" transform="translate(336.621094 0)"/>
     <use xlink:href="#DejaVuSans-69" transform="translate(364.404297 0)"/>
     <use xlink:href="#DejaVuSans-61" transform="translate(392.1875 0)"/>
     <use xlink:href="#DejaVuSans-20" transform="translate(453.466797 0)"/>
     <use xlink:href="#DejaVuSans-e8" transform="translate(485.253906 0)"/>
     <use xlink:href="#DejaVuSans-20" transform="translate(546.777344 0)"/>
     <use xlink:href="#DejaVuSans-6c" transform="translate(578.564453 0)"/>
     <use xlink:href="#DejaVuSans-61" transform="translate(606.347656 0)"/>
     <use xlink:href="#DejaVuSans-20" transform="translate(667.626953 0)"/>
     <use xlink:href="#DejaVuSans-70" transform="translate(699.414062 0)"/>
     <use xlink:href="#DejaVuSans-69" transform="translate(762.890625 0)"/>
     <use xlink:href="#DejaVuSans-f9" transform="translate(790.673828 0)"/>
     <use xlink:href="#DejaVuSans-20" transform="translate(854.052734 0)"/>
     <use xlink:href="#DejaVuSans-65" transform="translate(885.839844 0)"/>
     <use xlink:href="#DejaVuSans-63" transform="translate(947.363281 0)"/>
     <use xlink:href="#DejaVuSans-6f" transform="translate(1002.34375 0)"/>
     <use xlink:href="#DejaVuSans-6e" transform="translate(1063.525391 0)"/>
     <use xlink:href="#DejaVuSans-6f" transform="translate(1126.904297 0)"/>
     <use xlink:href="#DejaVuSans-6d" transform="translate(1188.085938 0)"/>
     <use xlink:href="#DejaVuSans-69" transform="translate(1285.498047 0)"/>
     <use xlink:href="#DejaVuSans-63" transform="translate(1313.28125 0)"/>
     <use xlink:href="#DejaVuSans-61" transform="translate(1368.261719 0)"/>
     <use xlink:href="#DejaVuSans-2c" transform="translate(1429.541016 0)"/>
     <use xlink:href="#DejaVuSans-20" transform="translate(1461.328125 0)"/>
     <use xlink:href="#DejaVuSans-6d" transform="translate(1493.115234 0)"/>
     <use xlink:href="#DejaVuSans-61" transform="translate(1590.527344 0)"/>
     <use xlink:href="#DejaVuSans-20" transform="translate(1651.806641 0)"/>
     <use xlink:href="#DejaVuSans-6e" transform="translate(1683.59375 0)"/>
     <use xlink:href="#DejaVuSans-6f" transform="translate(1746.972656 0)"/>
     <use xlink:href="#DejaVuSans-6e" transform="translate(1808.154297 0)"/>
     <use xlink:href="#DejaVuSans-20" transform="translate(1871.533203 0)"/>
     <use xlink:href="#DejaVuSans-73" transform="translate(1903.320312 0)"/>
     <use xlink:href="#DejaVuSans-70" transform="translate(1955.419922 0)"/>
     <use xlink:href="#DejaVuSans-65" transform="translate(2018.896484 0)"/>
     <use xlink:href="#DejaVuSans-7a" transform="translate(2080.419922 0)"/>
     <use xlink:href="#DejaVuSans-7a" transform="translate(2132.910156 0)"/>
     <use xlink:href="#DejaVuSans-61" transform="translate(2185.400391 0)"/>
     <use xlink:href="#DejaVuSans-20" transform="translate(2246.679688 0)"/>
     <use xlink:href="#DejaVuSans-6c" transform="translate(2278.466797 0)"/>
     <use xlink:href="#DejaVuSans-61" transform="translate(2306.25 0)"/>
     <use xlink:href="#DejaVuSans-20" transform="translate(2367.529297 0)"/>
     <use xlink:href="#DejaVuSans-6c" transform="translate(2399.316406 0)"/>
     <use xlink:href="#DejaVuSans-65" transform="translate(2427.099609 0)"/>
     <use xlink:href="#DejaVuSans-67" transform="translate(2488.623047 0)"/>
     <use xlink:href="#DejaVuSans-67" transform="translate(2552.099609 0)"/>
     <use xlink:href="#DejaVuSans-65" transform="translate(2615.576172 0)"/>
     <use xlink:href="#DejaVuSans-29" transform="translate(2677.099609 0)"/>
    </g>
   </g>
   <g id="legend_1">
    <g id="line2d_18">
     <path d="M 55.065625 45.228656 
L 64.065625 45.228656 
L 73.065625 45.228656 
" style="fill: none; stroke: #264653; stroke-width: 2.2; stroke-linecap: square"/>
     <g>
      <use xlink:href="#mc2b0275469" x="64.065625" y="45.228656" style="fill: #264653; stroke: #264653"/>
     </g>
    </g>
    <g id="text_24">
     <!-- argmin sequenziale -->
     <g transform="translate(80.265625 48.378656) scale(0.09 -0.09)">
      <use xlink:href="#DejaVuSans-61"/>
      <use xlink:href="#DejaVuSans-72" transform="translate(61.279297 0)"/>
      <use xlink:href="#DejaVuSans-67" transform="translate(100.642578 0)"/>
      <use xlink:href="#DejaVuSans-6d" transform="translate(164.119141 0)"/>
      <use xlink:href="#DejaVuSans-69" transform="translate(261.53125 0)"/>
      <use xlink:href="#DejaVuSans-6e" transform="translate(289.314453 0)"/>
      <use xlink:href="#DejaVuSans-20" transform="translate(352.693359 0)"/>
      <use xlink:href="#DejaVuSans-73" transform="translate(384.480469 0)"/>
      <use xlink:href="#DejaVuSans-65" transform="translate(436.580078 0)"/>
      <use xlink:href="#DejaVuSans-71" transform="translate(498.103516 0)"/>
      <use xlink:href="#DejaVuSans-75" transform="translate(561.580078 0)"/>
      <use xlink:href="#DejaVuSans-65" transform="translate(624.958984 0)"/>
      <use xlink:href="#DejaVuSans-6e" transform="translate(686.482422 0)"/>
      <use xlink:href="#DejaVuSans-7a" transform="translate(749.861328 0)"/>
      <use xlink:href="#DejaVuSans-69" transform="translate(802.351562 0)"/>
      <use xlink:href="#DejaVuSans-61" transform="translate(830.134766 0)"/>
      <use xlink:href="#DejaVuSans-6c" transform="translate(891.414062 0)"/>
      <use xlink:href="#DejaVuSans-65" transform="translate(919.197266 0)"/>
     </g>
    </g>
    <g id="line2d_19">
     <path d="M 55.065625 58.438969 
L 64.065625 58.438969 
L 73.065625 58.438969 
" style="fill: none; stroke: #e9a000; stroke-width: 2.2; stroke-linecap: square"/>
     <g>
      <use xlink:href="#mf150c62965" x="64.065625" y="58.438969" style="fill: #e9a000; stroke: #e9a000; stroke-linejoin: miter"/>
     </g>
    </g>
    <g id="text_25">
     <!-- argmin a torneo -->
     <g transform="translate(80.265625 61.588969) scale(0.09 -0.09)">
      <use xlink:href="#DejaVuSans-61"/>
      <use xlink:href="#DejaVuSans-72" transform="translate(61.279297 0)"/>
      <use xlink:href="#DejaVuSans-67" transform="translate(100.642578 0)"/>
      <use xlink:href="#DejaVuSans-6d" transform="translate(164.119141 0)"/>
      <use xlink:href="#DejaVuSans-69" transform="translate(261.53125 0)"/>
      <use xlink:href="#DejaVuSans-6e" transform="translate(289.314453 0)"/>
      <use xlink:href="#DejaVuSans-20" transform="translate(352.693359 0)"/>
      <use xlink:href="#DejaVuSans-61" transform="translate(384.480469 0)"/>
      <use xlink:href="#DejaVuSans-20" transform="translate(445.759766 0)"/>
      <use xlink:href="#DejaVuSans-74" transform="translate(477.546875 0)"/>
      <use xlink:href="#DejaVuSans-6f" transform="translate(516.755859 0)"/>
      <use xlink:href="#DejaVuSans-72" transform="translate(577.9375 0)"/>
      <use xlink:href="#DejaVuSans-6e" transform="translate(617.300781 0)"/>
      <use xlink:href="#DejaVuSans-65" transform="translate(680.679688 0)"/>
      <use xlink:href="#DejaVuSans-6f" transform="translate(742.203125 0)"/>
     </g>
    </g>
    <g id="line2d_20">
     <path d="M 55.065625 71.649281 
L 64.065625 71.649281 
L 73.065625 71.649281 
" style="fill: none; stroke: #2a9d8f; stroke-width: 2.2; stroke-linecap: square"/>
     <g>
      <use xlink:href="#m190f254086" x="64.065625" y="71.649281" style="fill: #2a9d8f; stroke: #2a9d8f; stroke-linejoin: miter"/>
     </g>
    </g>
    <g id="text_26">
     <!-- varco a soglia (1 bit) -->
     <g transform="translate(80.265625 74.799281) scale(0.09 -0.09)">
      <defs>
       <path id="DejaVuSans-62" d="M 3116 1747 
Q 3116 2381 2855 2742 
Q 2594 3103 2138 3103 
Q 1681 3103 1420 2742 
Q 1159 2381 1159 1747 
Q 1159 1113 1420 752 
Q 1681 391 2138 391 
Q 2594 391 2855 752 
Q 3116 1113 3116 1747 
z
M 1159 2969 
Q 1341 3281 1617 3432 
Q 1894 3584 2278 3584 
Q 2916 3584 3314 3078 
Q 3713 2572 3713 1747 
Q 3713 922 3314 415 
Q 2916 -91 2278 -91 
Q 1894 -91 1617 61 
Q 1341 213 1159 525 
L 1159 0 
L 581 0 
L 581 4863 
L 1159 4863 
L 1159 2969 
z
" transform="scale(0.015625)"/>
      </defs>
      <use xlink:href="#DejaVuSans-76"/>
      <use xlink:href="#DejaVuSans-61" transform="translate(59.179688 0)"/>
      <use xlink:href="#DejaVuSans-72" transform="translate(120.458984 0)"/>
      <use xlink:href="#DejaVuSans-63" transform="translate(159.322266 0)"/>
      <use xlink:href="#DejaVuSans-6f" transform="translate(214.302734 0)"/>
      <use xlink:href="#DejaVuSans-20" transform="translate(275.484375 0)"/>
      <use xlink:href="#DejaVuSans-61" transform="translate(307.271484 0)"/>
      <use xlink:href="#DejaVuSans-20" transform="translate(368.550781 0)"/>
      <use xlink:href="#DejaVuSans-73" transform="translate(400.337891 0)"/>
      <use xlink:href="#DejaVuSans-6f" transform="translate(452.4375 0)"/>
      <use xlink:href="#DejaVuSans-67" transform="translate(513.619141 0)"/>
      <use xlink:href="#DejaVuSans-6c" transform="translate(577.095703 0)"/>
      <use xlink:href="#DejaVuSans-69" transform="translate(604.878906 0)"/>
      <use xlink:href="#DejaVuSans-61" transform="translate(632.662109 0)"/>
      <use xlink:href="#DejaVuSans-20" transform="translate(693.941406 0)"/>
      <use xlink:href="#DejaVuSans-28" transform="translate(725.728516 0)"/>
      <use xlink:href="#DejaVuSans-31" transform="translate(764.742188 0)"/>
      <use xlink:href="#DejaVuSans-20" transform="translate(828.365234 0)"/>
      <use xlink:href="#DejaVuSans-62" transform="translate(860.152344 0)"/>
      <use xlink:href="#DejaVuSans-69" transform="translate(923.628906 0)"/>
      <use xlink:href="#DejaVuSans-74" transform="translate(951.412109 0)"/>
      <use xlink:href="#DejaVuSans-29" transform="translate(990.621094 0)"/>
     </g>
    </g>
   </g>
  </g>
  <g id="axes_2">
   <g id="patch_5">
    <path d="M 505.826541 212.624062 
L 779.619428 212.624062 
L 779.619428 33.440062 
L 505.826541 33.440062 
z
" style="fill: #ffffff"/>
   </g>
   <g id="patch_6">
    <path d="M 518.271672 212.624062 
L 606.591958 212.624062 
L 606.591958 194.992357 
L 518.271672 194.992357 
z
" clip-path="url(#pfcd46dd96d)" style="fill: #264653; stroke: #ffffff; stroke-linejoin: miter"/>
   </g>
   <g id="patch_7">
    <path d="M 678.854011 212.624062 
L 767.174297 212.624062 
L 767.174297 57.522392 
L 678.854011 57.522392 
z
" clip-path="url(#pfcd46dd96d)" style="fill: #e76f51; stroke: #ffffff; stroke-linejoin: miter"/>
   </g>
   <g id="matplotlib.axis_3">
    <g id="xtick_6">
     <g id="line2d_21">
      <g>
       <use xlink:href="#m3129e38501" x="562.431815" y="212.624062" style="stroke: #000000; stroke-width: 0.8"/>
      </g>
     </g>
     <g id="text_27">
      <!-- CPU -->
      <g transform="translate(552.26619 227.2225) scale(0.1 -0.1)">
       <defs>
        <path id="DejaVuSans-43" d="M 4122 4306 
L 4122 3641 
Q 3803 3938 3442 4084 
Q 3081 4231 2675 4231 
Q 1875 4231 1450 3742 
Q 1025 3253 1025 2328 
Q 1025 1406 1450 917 
Q 1875 428 2675 428 
Q 3081 428 3442 575 
Q 3803 722 4122 1019 
L 4122 359 
Q 3791 134 3420 21 
Q 3050 -91 2638 -91 
Q 1578 -91 968 557 
Q 359 1206 359 2328 
Q 359 3453 968 4101 
Q 1578 4750 2638 4750 
Q 3056 4750 3426 4639 
Q 3797 4528 4122 4306 
z
" transform="scale(0.015625)"/>
        <path id="DejaVuSans-50" d="M 1259 4147 
L 1259 2394 
L 2053 2394 
Q 2494 2394 2734 2622 
Q 2975 2850 2975 3272 
Q 2975 3691 2734 3919 
Q 2494 4147 2053 4147 
L 1259 4147 
z
M 628 4666 
L 2053 4666 
Q 2838 4666 3239 4311 
Q 3641 3956 3641 3272 
Q 3641 2581 3239 2228 
Q 2838 1875 2053 1875 
L 1259 1875 
L 1259 0 
L 628 0 
L 628 4666 
z
" transform="scale(0.015625)"/>
        <path id="DejaVuSans-55" d="M 556 4666 
L 1191 4666 
L 1191 1831 
Q 1191 1081 1462 751 
Q 1734 422 2344 422 
Q 2950 422 3222 751 
Q 3494 1081 3494 1831 
L 3494 4666 
L 4128 4666 
L 4128 1753 
Q 4128 841 3676 375 
Q 3225 -91 2344 -91 
Q 1459 -91 1007 375 
Q 556 841 556 1753 
L 556 4666 
z
" transform="scale(0.015625)"/>
       </defs>
       <use xlink:href="#DejaVuSans-43"/>
       <use xlink:href="#DejaVuSans-50" transform="translate(69.824219 0)"/>
       <use xlink:href="#DejaVuSans-55" transform="translate(130.126953 0)"/>
      </g>
      <!-- (M4 Max) -->
      <g transform="translate(539.108378 238.420312) scale(0.1 -0.1)">
       <defs>
        <path id="DejaVuSans-78" d="M 3513 3500 
L 2247 1797 
L 3578 0 
L 2900 0 
L 1881 1375 
L 863 0 
L 184 0 
L 1544 1831 
L 300 3500 
L 978 3500 
L 1906 2253 
L 2834 3500 
L 3513 3500 
z
" transform="scale(0.015625)"/>
       </defs>
       <use xlink:href="#DejaVuSans-28"/>
       <use xlink:href="#DejaVuSans-4d" transform="translate(39.013672 0)"/>
       <use xlink:href="#DejaVuSans-34" transform="translate(125.292969 0)"/>
       <use xlink:href="#DejaVuSans-20" transform="translate(188.916016 0)"/>
       <use xlink:href="#DejaVuSans-4d" transform="translate(220.703125 0)"/>
       <use xlink:href="#DejaVuSans-61" transform="translate(306.982422 0)"/>
       <use xlink:href="#DejaVuSans-78" transform="translate(368.261719 0)"/>
       <use xlink:href="#DejaVuSans-29" transform="translate(427.441406 0)"/>
      </g>
     </g>
    </g>
    <g id="xtick_7">
     <g id="line2d_22">
      <g>
       <use xlink:href="#m3129e38501" x="723.014154" y="212.624062" style="stroke: #000000; stroke-width: 0.8"/>
      </g>
     </g>
     <g id="text_28">
      <!-- GPU -->
      <g transform="translate(712.465716 227.2225) scale(0.1 -0.1)">
       <defs>
        <path id="DejaVuSans-47" d="M 3809 666 
L 3809 1919 
L 2778 1919 
L 2778 2438 
L 4434 2438 
L 4434 434 
Q 4069 175 3628 42 
Q 3188 -91 2688 -91 
Q 1594 -91 976 548 
Q 359 1188 359 2328 
Q 359 3472 976 4111 
Q 1594 4750 2688 4750 
Q 3144 4750 3555 4637 
Q 3966 4525 4313 4306 
L 4313 3634 
Q 3963 3931 3569 4081 
Q 3175 4231 2741 4231 
Q 1884 4231 1454 3753 
Q 1025 3275 1025 2328 
Q 1025 1384 1454 906 
Q 1884 428 2741 428 
Q 3075 428 3337 486 
Q 3600 544 3809 666 
z
" transform="scale(0.015625)"/>
       </defs>
       <use xlink:href="#DejaVuSans-47"/>
       <use xlink:href="#DejaVuSans-50" transform="translate(77.490234 0)"/>
       <use xlink:href="#DejaVuSans-55" transform="translate(137.792969 0)"/>
      </g>
      <!-- (Tesla T4) -->
      <g transform="translate(698.950091 238.420312) scale(0.1 -0.1)">
       <defs>
        <path id="DejaVuSans-54" d="M -19 4666 
L 3928 4666 
L 3928 4134 
L 2272 4134 
L 2272 0 
L 1638 0 
L 1638 4134 
L -19 4134 
L -19 4666 
z
" transform="scale(0.015625)"/>
       </defs>
       <use xlink:href="#DejaVuSans-28"/>
       <use xlink:href="#DejaVuSans-54" transform="translate(39.013672 0)"/>
       <use xlink:href="#DejaVuSans-65" transform="translate(83.097656 0)"/>
       <use xlink:href="#DejaVuSans-73" transform="translate(144.621094 0)"/>
       <use xlink:href="#DejaVuSans-6c" transform="translate(196.720703 0)"/>
       <use xlink:href="#DejaVuSans-61" transform="translate(224.503906 0)"/>
       <use xlink:href="#DejaVuSans-20" transform="translate(285.783203 0)"/>
       <use xlink:href="#DejaVuSans-54" transform="translate(317.570312 0)"/>
       <use xlink:href="#DejaVuSans-34" transform="translate(378.654297 0)"/>
       <use xlink:href="#DejaVuSans-29" transform="translate(442.277344 0)"/>
      </g>
     </g>
    </g>
   </g>
   <g id="matplotlib.axis_4">
    <g id="ytick_9">
     <g id="line2d_23">
      <g>
       <use xlink:href="#m54668a5af3" x="505.826541" y="212.624062" style="stroke: #000000; stroke-width: 0.8"/>
      </g>
     </g>
     <g id="text_29">
      <!-- 0 -->
      <g transform="translate(492.464041 216.423281) scale(0.1 -0.1)">
       <use xlink:href="#DejaVuSans-30"/>
      </g>
     </g>
    </g>
    <g id="ytick_10">
     <g id="line2d_24">
      <g>
       <use xlink:href="#m54668a5af3" x="505.826541" y="183.954622" style="stroke: #000000; stroke-width: 0.8"/>
      </g>
     </g>
     <g id="text_30">
      <!-- 200 -->
      <g transform="translate(479.739041 187.753841) scale(0.1 -0.1)">
       <use xlink:href="#DejaVuSans-32"/>
       <use xlink:href="#DejaVuSans-30" transform="translate(63.623047 0)"/>
       <use xlink:href="#DejaVuSans-30" transform="translate(127.246094 0)"/>
      </g>
     </g>
    </g>
    <g id="ytick_11">
     <g id="line2d_25">
      <g>
       <use xlink:href="#m54668a5af3" x="505.826541" y="155.285182" style="stroke: #000000; stroke-width: 0.8"/>
      </g>
     </g>
     <g id="text_31">
      <!-- 400 -->
      <g transform="translate(479.739041 159.084401) scale(0.1 -0.1)">
       <use xlink:href="#DejaVuSans-34"/>
       <use xlink:href="#DejaVuSans-30" transform="translate(63.623047 0)"/>
       <use xlink:href="#DejaVuSans-30" transform="translate(127.246094 0)"/>
      </g>
     </g>
    </g>
    <g id="ytick_12">
     <g id="line2d_26">
      <g>
       <use xlink:href="#m54668a5af3" x="505.826541" y="126.615742" style="stroke: #000000; stroke-width: 0.8"/>
      </g>
     </g>
     <g id="text_32">
      <!-- 600 -->
      <g transform="translate(479.739041 130.414961) scale(0.1 -0.1)">
       <use xlink:href="#DejaVuSans-36"/>
       <use xlink:href="#DejaVuSans-30" transform="translate(63.623047 0)"/>
       <use xlink:href="#DejaVuSans-30" transform="translate(127.246094 0)"/>
      </g>
     </g>
    </g>
    <g id="ytick_13">
     <g id="line2d_27">
      <g>
       <use xlink:href="#m54668a5af3" x="505.826541" y="97.946302" style="stroke: #000000; stroke-width: 0.8"/>
      </g>
     </g>
     <g id="text_33">
      <!-- 800 -->
      <g transform="translate(479.739041 101.745521) scale(0.1 -0.1)">
       <use xlink:href="#DejaVuSans-38"/>
       <use xlink:href="#DejaVuSans-30" transform="translate(63.623047 0)"/>
       <use xlink:href="#DejaVuSans-30" transform="translate(127.246094 0)"/>
      </g>
     </g>
    </g>
    <g id="ytick_14">
     <g id="line2d_28">
      <g>
       <use xlink:href="#m54668a5af3" x="505.826541" y="69.276862" style="stroke: #000000; stroke-width: 0.8"/>
      </g>
     </g>
     <g id="text_34">
      <!-- 1000 -->
      <g transform="translate(473.376541 73.076081) scale(0.1 -0.1)">
       <use xlink:href="#DejaVuSans-31"/>
       <use xlink:href="#DejaVuSans-30" transform="translate(63.623047 0)"/>
       <use xlink:href="#DejaVuSans-30" transform="translate(127.246094 0)"/>
       <use xlink:href="#DejaVuSans-30" transform="translate(190.869141 0)"/>
      </g>
     </g>
    </g>
    <g id="ytick_15">
     <g id="line2d_29">
      <g>
       <use xlink:href="#m54668a5af3" x="505.826541" y="40.607422" style="stroke: #000000; stroke-width: 0.8"/>
      </g>
     </g>
     <g id="text_35">
      <!-- 1200 -->
      <g transform="translate(473.376541 44.406641) scale(0.1 -0.1)">
       <use xlink:href="#DejaVuSans-31"/>
       <use xlink:href="#DejaVuSans-32" transform="translate(63.623047 0)"/>
       <use xlink:href="#DejaVuSans-30" transform="translate(127.246094 0)"/>
       <use xlink:href="#DejaVuSans-30" transform="translate(190.869141 0)"/>
      </g>
     </g>
    </g>
    <g id="text_36">
     <!-- tempo argmin (s) — dim 128 -->
     <g transform="translate(467.296853 195.235969) rotate(-90) scale(0.1 -0.1)">
      <defs>
       <path id="DejaVuSans-2014" d="M 313 1978 
L 6088 1978 
L 6088 1528 
L 313 1528 
L 313 1978 
z
" transform="scale(0.015625)"/>
       <path id="DejaVuSans-64" d="M 2906 2969 
L 2906 4863 
L 3481 4863 
L 3481 0 
L 2906 0 
L 2906 525 
Q 2725 213 2448 61 
Q 2172 -91 1784 -91 
Q 1150 -91 751 415 
Q 353 922 353 1747 
Q 353 2572 751 3078 
Q 1150 3584 1784 3584 
Q 2172 3584 2448 3432 
Q 2725 3281 2906 2969 
z
M 947 1747 
Q 947 1113 1208 752 
Q 1469 391 1925 391 
Q 2381 391 2643 752 
Q 2906 1113 2906 1747 
Q 2906 2381 2643 2742 
Q 2381 3103 1925 3103 
Q 1469 3103 1208 2742 
Q 947 2381 947 1747 
z
" transform="scale(0.015625)"/>
      </defs>
      <use xlink:href="#DejaVuSans-74"/>
      <use xlink:href="#DejaVuSans-65" transform="translate(39.208984 0)"/>
      <use xlink:href="#DejaVuSans-6d" transform="translate(100.732422 0)"/>
      <use xlink:href="#DejaVuSans-70" transform="translate(198.144531 0)"/>
      <use xlink:href="#DejaVuSans-6f" transform="translate(261.621094 0)"/>
      <use xlink:href="#DejaVuSans-20" transform="translate(322.802734 0)"/>
      <use xlink:href="#DejaVuSans-61" transform="translate(354.589844 0)"/>
      <use xlink:href="#DejaVuSans-72" transform="translate(415.869141 0)"/>
      <use xlink:href="#DejaVuSans-67" transform="translate(455.232422 0)"/>
      <use xlink:href="#DejaVuSans-6d" transform="translate(518.708984 0)"/>
      <use xlink:href="#DejaVuSans-69" transform="translate(616.121094 0)"/>
      <use xlink:href="#DejaVuSans-6e" transform="translate(643.904297 0)"/>
      <use xlink:href="#DejaVuSans-20" transform="translate(707.283203 0)"/>
      <use xlink:href="#DejaVuSans-28" transform="translate(739.070312 0)"/>
      <use xlink:href="#DejaVuSans-73" transform="translate(778.083984 0)"/>
      <use xlink:href="#DejaVuSans-29" transform="translate(830.183594 0)"/>
      <use xlink:href="#DejaVuSans-20" transform="translate(869.197266 0)"/>
      <use xlink:href="#DejaVuSans-2014" transform="translate(900.984375 0)"/>
      <use xlink:href="#DejaVuSans-20" transform="translate(1000.984375 0)"/>
      <use xlink:href="#DejaVuSans-64" transform="translate(1032.771484 0)"/>
      <use xlink:href="#DejaVuSans-69" transform="translate(1096.248047 0)"/>
      <use xlink:href="#DejaVuSans-6d" transform="translate(1124.03125 0)"/>
      <use xlink:href="#DejaVuSans-20" transform="translate(1221.443359 0)"/>
      <use xlink:href="#DejaVuSans-31" transform="translate(1253.230469 0)"/>
      <use xlink:href="#DejaVuSans-32" transform="translate(1316.853516 0)"/>
      <use xlink:href="#DejaVuSans-38" transform="translate(1380.476562 0)"/>
     </g>
    </g>
   </g>
   <g id="patch_8">
    <path d="M 505.826541 212.624062 
L 505.826541 33.440062 
" style="fill: none; stroke: #000000; stroke-width: 0.8; stroke-linejoin: miter; stroke-linecap: square"/>
   </g>
   <g id="patch_9">
    <path d="M 505.826541 212.624062 
L 779.619428 212.624062 
" style="fill: none; stroke: #000000; stroke-width: 0.8; stroke-linejoin: miter; stroke-linecap: square"/>
   </g>
   <g id="text_37">
    <!-- 123 s -->
    <g transform="translate(545.763378 191.838718) scale(0.11 -0.11)">
     <defs>
      <path id="DejaVuSans-Bold-32" d="M 1844 884 
L 3897 884 
L 3897 0 
L 506 0 
L 506 884 
L 2209 2388 
Q 2438 2594 2547 2791 
Q 2656 2988 2656 3200 
Q 2656 3528 2436 3728 
Q 2216 3928 1850 3928 
Q 1569 3928 1234 3808 
Q 900 3688 519 3450 
L 519 4475 
Q 925 4609 1322 4679 
Q 1719 4750 2100 4750 
Q 2938 4750 3402 4381 
Q 3866 4013 3866 3353 
Q 3866 2972 3669 2642 
Q 3472 2313 2841 1759 
L 1844 884 
z
" transform="scale(0.015625)"/>
      <path id="DejaVuSans-Bold-20" transform="scale(0.015625)"/>
     </defs>
     <use xlink:href="#DejaVuSans-Bold-31"/>
     <use xlink:href="#DejaVuSans-Bold-32" transform="translate(69.580078 0)"/>
     <use xlink:href="#DejaVuSans-Bold-33" transform="translate(139.160156 0)"/>
     <use xlink:href="#DejaVuSans-Bold-20" transform="translate(208.740234 0)"/>
     <use xlink:href="#DejaVuSans-Bold-73" transform="translate(243.554688 0)"/>
    </g>
   </g>
   <g id="text_38">
    <!-- 1082 s -->
    <g transform="translate(702.51892 54.368754) scale(0.11 -0.11)">
     <use xlink:href="#DejaVuSans-Bold-31"/>
     <use xlink:href="#DejaVuSans-Bold-30" transform="translate(69.580078 0)"/>
     <use xlink:href="#DejaVuSans-Bold-38" transform="translate(139.160156 0)"/>
     <use xlink:href="#DejaVuSans-Bold-32" transform="translate(208.740234 0)"/>
     <use xlink:href="#DejaVuSans-Bold-20" transform="translate(278.320312 0)"/>
     <use xlink:href="#DejaVuSans-Bold-73" transform="translate(313.134766 0)"/>
    </g>
   </g>
   <g id="patch_10">
    <path d="M 645.627792 92.851405 
Q 683.410559 75.602528 719.56603 59.096556 
" style="fill: none; stroke: #c0392b; stroke-width: 1.6; stroke-linecap: round"/>
    <path d="M 715.096693 58.938371 
L 719.56603 59.096556 
L 716.75788 62.577115 
" style="fill: none; stroke: #c0392b; stroke-width: 1.6; stroke-linecap: round"/>
   </g>
   <g id="text_39">
    <!-- ~9× più LENTA -->
    <g style="fill: #c0392b" transform="translate(586.519166 103.68019) scale(0.1 -0.1)">
     <defs>
      <path id="DejaVuSans-Bold-7e" d="M 4684 2656 
L 4684 1894 
Q 4353 1644 4073 1536 
Q 3794 1428 3494 1428 
Q 3159 1428 2713 1609 
Q 2669 1628 2644 1638 
Q 2622 1647 2575 1666 
Q 2091 1856 1797 1856 
Q 1522 1856 1253 1736 
Q 984 1616 678 1356 
L 678 2119 
Q 1013 2369 1291 2476 
Q 1569 2584 1869 2584 
Q 2203 2584 2650 2403 
Q 2697 2384 2719 2375 
Q 2741 2366 2788 2347 
Q 3272 2156 3566 2156 
Q 3834 2156 4098 2273 
Q 4363 2391 4684 2656 
z
" transform="scale(0.015625)"/>
      <path id="DejaVuSans-Bold-d7" d="M 4563 3359 
L 3206 2003 
L 4563 653 
L 4038 128 
L 2681 1478 
L 1325 128 
L 800 653 
L 2156 2003 
L 800 3359 
L 1325 3884 
L 2681 2528 
L 4038 3884 
L 4563 3359 
z
" transform="scale(0.015625)"/>
      <path id="DejaVuSans-Bold-70" d="M 1656 506 
L 1656 -1331 
L 538 -1331 
L 538 3500 
L 1656 3500 
L 1656 2988 
Q 1888 3294 2169 3439 
Q 2450 3584 2816 3584 
Q 3463 3584 3878 3070 
Q 4294 2556 4294 1747 
Q 4294 938 3878 423 
Q 3463 -91 2816 -91 
Q 2450 -91 2169 54 
Q 1888 200 1656 506 
z
M 2400 2772 
Q 2041 2772 1848 2508 
Q 1656 2244 1656 1747 
Q 1656 1250 1848 986 
Q 2041 722 2400 722 
Q 2759 722 2948 984 
Q 3138 1247 3138 1747 
Q 3138 2247 2948 2509 
Q 2759 2772 2400 2772 
z
" transform="scale(0.015625)"/>
      <path id="DejaVuSans-Bold-69" d="M 538 3500 
L 1656 3500 
L 1656 0 
L 538 0 
L 538 3500 
z
M 538 4863 
L 1656 4863 
L 1656 3950 
L 538 3950 
L 538 4863 
z
" transform="scale(0.015625)"/>
      <path id="DejaVuSans-Bold-f9" d="M 500 1363 
L 500 3500 
L 1625 3500 
L 1625 3150 
Q 1625 2866 1622 2436 
Q 1619 2006 1619 1863 
Q 1619 1441 1641 1255 
Q 1663 1069 1716 984 
Q 1784 875 1895 815 
Q 2006 756 2150 756 
Q 2500 756 2700 1025 
Q 2900 1294 2900 1772 
L 2900 3500 
L 4019 3500 
L 4019 0 
L 2900 0 
L 2900 506 
Q 2647 200 2364 54 
Q 2081 -91 1741 -91 
Q 1134 -91 817 281 
Q 500 653 500 1363 
z
M 1938 5119 
L 2819 3944 
L 2207 3944 
L 1054 5119 
L 1938 5119 
z
" transform="scale(0.015625)"/>
      <path id="DejaVuSans-Bold-4c" d="M 588 4666 
L 1791 4666 
L 1791 909 
L 3903 909 
L 3903 0 
L 588 0 
L 588 4666 
z
" transform="scale(0.015625)"/>
      <path id="DejaVuSans-Bold-45" d="M 588 4666 
L 3834 4666 
L 3834 3756 
L 1791 3756 
L 1791 2888 
L 3713 2888 
L 3713 1978 
L 1791 1978 
L 1791 909 
L 3903 909 
L 3903 0 
L 588 0 
L 588 4666 
z
" transform="scale(0.015625)"/>
      <path id="DejaVuSans-Bold-4e" d="M 588 4666 
L 1931 4666 
L 3628 1466 
L 3628 4666 
L 4769 4666 
L 4769 0 
L 3425 0 
L 1728 3200 
L 1728 0 
L 588 0 
L 588 4666 
z
" transform="scale(0.015625)"/>
      <path id="DejaVuSans-Bold-54" d="M 31 4666 
L 4331 4666 
L 4331 3756 
L 2784 3756 
L 2784 0 
L 1581 0 
L 1581 3756 
L 31 3756 
L 31 4666 
z
" transform="scale(0.015625)"/>
      <path id="DejaVuSans-Bold-41" d="M 3419 850 
L 1538 850 
L 1241 0 
L 31 0 
L 1759 4666 
L 3194 4666 
L 4922 0 
L 3713 0 
L 3419 850 
z
M 1838 1716 
L 3116 1716 
L 2478 3572 
L 1838 1716 
z
" transform="scale(0.015625)"/>
     </defs>
     <use xlink:href="#DejaVuSans-Bold-7e"/>
     <use xlink:href="#DejaVuSans-Bold-39" transform="translate(83.789062 0)"/>
     <use xlink:href="#DejaVuSans-Bold-d7" transform="translate(153.369141 0)"/>
     <use xlink:href="#DejaVuSans-Bold-20" transform="translate(237.158203 0)"/>
     <use xlink:href="#DejaVuSans-Bold-70" transform="translate(271.972656 0)"/>
     <use xlink:href="#DejaVuSans-Bold-69" transform="translate(343.554688 0)"/>
     <use xlink:href="#DejaVuSans-Bold-f9" transform="translate(377.832031 0)"/>
     <use xlink:href="#DejaVuSans-Bold-20" transform="translate(449.023438 0)"/>
     <use xlink:href="#DejaVuSans-Bold-4c" transform="translate(483.837891 0)"/>
     <use xlink:href="#DejaVuSans-Bold-45" transform="translate(547.558594 0)"/>
     <use xlink:href="#DejaVuSans-Bold-4e" transform="translate(615.869141 0)"/>
     <use xlink:href="#DejaVuSans-Bold-54" transform="translate(699.560547 0)"/>
     <use xlink:href="#DejaVuSans-Bold-41" transform="translate(760.023438 0)"/>
    </g>
   </g>
   <g id="text_40">
    <g id="patch_11">
     <path d="M 489.827258 297.050875 
L 795.618711 297.050875 
Q 798.938711 297.050875 798.938711 293.730875 
L 798.938711 266.379262 
Q 798.938711 263.059262 795.618711 263.059262 
L 489.827258 263.059262 
Q 486.507258 263.059262 486.507258 266.379262 
L 486.507258 293.730875 
Q 486.507258 297.050875 489.827258 297.050875 
z
" style="fill: #f7f7f7; stroke: #dddddd; stroke-linejoin: miter"/>
    </g>
    <!-- Perché: la GPU-TFHE accelera il BATCH (migliaia di bootstrap in parallelo). -->
    <g transform="translate(489.827258 273.017966) scale(0.083 -0.083)">
     <defs>
      <path id="DejaVuSans-e9" d="M 3597 1894 
L 3597 1613 
L 953 1613 
Q 991 1019 1311 708 
Q 1631 397 2203 397 
Q 2534 397 2845 478 
Q 3156 559 3463 722 
L 3463 178 
Q 3153 47 2828 -22 
Q 2503 -91 2169 -91 
Q 1331 -91 842 396 
Q 353 884 353 1716 
Q 353 2575 817 3079 
Q 1281 3584 2069 3584 
Q 2775 3584 3186 3129 
Q 3597 2675 3597 1894 
z
M 3022 2063 
Q 3016 2534 2758 2815 
Q 2500 3097 2075 3097 
Q 1594 3097 1305 2825 
Q 1016 2553 972 2059 
L 3022 2063 
z
M 2466 5119 
L 3088 5119 
L 2070 3944 
L 1591 3944 
L 2466 5119 
z
" transform="scale(0.015625)"/>
      <path id="DejaVuSans-2d" d="M 313 2009 
L 1997 2009 
L 1997 1497 
L 313 1497 
L 313 2009 
z
" transform="scale(0.015625)"/>
      <path id="DejaVuSans-46" d="M 628 4666 
L 3309 4666 
L 3309 4134 
L 1259 4134 
L 1259 2759 
L 3109 2759 
L 3109 2228 
L 1259 2228 
L 1259 0 
L 628 0 
L 628 4666 
z
" transform="scale(0.015625)"/>
      <path id="DejaVuSans-48" d="M 628 4666 
L 1259 4666 
L 1259 2753 
L 3553 2753 
L 3553 4666 
L 4184 4666 
L 4184 0 
L 3553 0 
L 3553 2222 
L 1259 2222 
L 1259 0 
L 628 0 
L 628 4666 
z
" transform="scale(0.015625)"/>
      <path id="DejaVuSans-45" d="M 628 4666 
L 3578 4666 
L 3578 4134 
L 1259 4134 
L 1259 2753 
L 3481 2753 
L 3481 2222 
L 1259 2222 
L 1259 531 
L 3634 531 
L 3634 0 
L 628 0 
L 628 4666 
z
" transform="scale(0.015625)"/>
      <path id="DejaVuSans-42" d="M 1259 2228 
L 1259 519 
L 2272 519 
Q 2781 519 3026 730 
Q 3272 941 3272 1375 
Q 3272 1813 3026 2020 
Q 2781 2228 2272 2228 
L 1259 2228 
z
M 1259 4147 
L 1259 2741 
L 2194 2741 
Q 2656 2741 2882 2914 
Q 3109 3088 3109 3444 
Q 3109 3797 2882 3972 
Q 2656 4147 2194 4147 
L 1259 4147 
z
M 628 4666 
L 2241 4666 
Q 2963 4666 3353 4366 
Q 3744 4066 3744 3513 
Q 3744 3084 3544 2831 
Q 3344 2578 2956 2516 
Q 3422 2416 3680 2098 
Q 3938 1781 3938 1306 
Q 3938 681 3513 340 
Q 3088 0 2303 0 
L 628 0 
L 628 4666 
z
" transform="scale(0.015625)"/>
      <path id="DejaVuSans-41" d="M 2188 4044 
L 1331 1722 
L 3047 1722 
L 2188 4044 
z
M 1831 4666 
L 2547 4666 
L 4325 0 
L 3669 0 
L 3244 1197 
L 1141 1197 
L 716 0 
L 50 0 
L 1831 4666 
z
" transform="scale(0.015625)"/>
      <path id="DejaVuSans-2e" d="M 684 794 
L 1344 794 
L 1344 0 
L 684 0 
L 684 794 
z
" transform="scale(0.015625)"/>
     </defs>
     <use xlink:href="#DejaVuSans-50"/>
     <use xlink:href="#DejaVuSans-65" transform="translate(56.677734 0)"/>
     <use xlink:href="#DejaVuSans-72" transform="translate(118.201172 0)"/>
     <use xlink:href="#DejaVuSans-63" transform="translate(157.064453 0)"/>
     <use xlink:href="#DejaVuSans-68" transform="translate(212.044922 0)"/>
     <use xlink:href="#DejaVuSans-e9" transform="translate(275.423828 0)"/>
     <use xlink:href="#DejaVuSans-3a" transform="translate(336.947266 0)"/>
     <use xlink:href="#DejaVuSans-20" transform="translate(370.638672 0)"/>
     <use xlink:href="#DejaVuSans-6c" transform="translate(402.425781 0)"/>
     <use xlink:href="#DejaVuSans-61" transform="translate(430.208984 0)"/>
     <use xlink:href="#DejaVuSans-20" transform="translate(491.488281 0)"/>
     <use xlink:href="#DejaVuSans-47" transform="translate(523.275391 0)"/>
     <use xlink:href="#DejaVuSans-50" transform="translate(600.765625 0)"/>
     <use xlink:href="#DejaVuSans-55" transform="translate(661.068359 0)"/>
     <use xlink:href="#DejaVuSans-2d" transform="translate(734.261719 0)"/>
     <use xlink:href="#DejaVuSans-54" transform="translate(761.220703 0)"/>
     <use xlink:href="#DejaVuSans-46" transform="translate(822.304688 0)"/>
     <use xlink:href="#DejaVuSans-48" transform="translate(879.824219 0)"/>
     <use xlink:href="#DejaVuSans-45" transform="translate(955.019531 0)"/>
     <use xlink:href="#DejaVuSans-20" transform="translate(1018.203125 0)"/>
     <use xlink:href="#DejaVuSans-61" transform="translate(1049.990234 0)"/>
     <use xlink:href="#DejaVuSans-63" transform="translate(1111.269531 0)"/>
     <use xlink:href="#DejaVuSans-63" transform="translate(1166.25 0)"/>
     <use xlink:href="#DejaVuSans-65" transform="translate(1221.230469 0)"/>
     <use xlink:href="#DejaVuSans-6c" transform="translate(1282.753906 0)"/>
     <use xlink:href="#DejaVuSans-65" transform="translate(1310.537109 0)"/>
     <use xlink:href="#DejaVuSans-72" transform="translate(1372.060547 0)"/>
     <use xlink:href="#DejaVuSans-61" transform="translate(1413.173828 0)"/>
     <use xlink:href="#DejaVuSans-20" transform="translate(1474.453125 0)"/>
     <use xlink:href="#DejaVuSans-69" transform="translate(1506.240234 0)"/>
     <use xlink:href="#DejaVuSans-6c" transform="translate(1534.023438 0)"/>
     <use xlink:href="#DejaVuSans-20" transform="translate(1561.806641 0)"/>
     <use xlink:href="#DejaVuSans-42" transform="translate(1593.59375 0)"/>
     <use xlink:href="#DejaVuSans-41" transform="translate(1662.197266 0)"/>
     <use xlink:href="#DejaVuSans-54" transform="translate(1722.855469 0)"/>
     <use xlink:href="#DejaVuSans-43" transform="translate(1778.064453 0)"/>
     <use xlink:href="#DejaVuSans-48" transform="translate(1847.888672 0)"/>
     <use xlink:href="#DejaVuSans-20" transform="translate(1923.083984 0)"/>
     <use xlink:href="#DejaVuSans-28" transform="translate(1954.871094 0)"/>
     <use xlink:href="#DejaVuSans-6d" transform="translate(1993.884766 0)"/>
     <use xlink:href="#DejaVuSans-69" transform="translate(2091.296875 0)"/>
     <use xlink:href="#DejaVuSans-67" transform="translate(2119.080078 0)"/>
     <use xlink:href="#DejaVuSans-6c" transform="translate(2182.556641 0)"/>
     <use xlink:href="#DejaVuSans-69" transform="translate(2210.339844 0)"/>
     <use xlink:href="#DejaVuSans-61" transform="translate(2238.123047 0)"/>
     <use xlink:href="#DejaVuSans-69" transform="translate(2299.402344 0)"/>
     <use xlink:href="#DejaVuSans-61" transform="translate(2327.185547 0)"/>
     <use xlink:href="#DejaVuSans-20" transform="translate(2388.464844 0)"/>
     <use xlink:href="#DejaVuSans-64" transform="translate(2420.251953 0)"/>
     <use xlink:href="#DejaVuSans-69" transform="translate(2483.728516 0)"/>
     <use xlink:href="#DejaVuSans-20" transform="translate(2511.511719 0)"/>
     <use xlink:href="#DejaVuSans-62" transform="translate(2543.298828 0)"/>
     <use xlink:href="#DejaVuSans-6f" transform="translate(2606.775391 0)"/>
     <use xlink:href="#DejaVuSans-6f" transform="translate(2667.957031 0)"/>
     <use xlink:href="#DejaVuSans-74" transform="translate(2729.138672 0)"/>
     <use xlink:href="#DejaVuSans-73" transform="translate(2768.347656 0)"/>
     <use xlink:href="#DejaVuSans-74" transform="translate(2820.447266 0)"/>
     <use xlink:href="#DejaVuSans-72" transform="translate(2859.65625 0)"/>
     <use xlink:href="#DejaVuSans-61" transform="translate(2900.769531 0)"/>
     <use xlink:href="#DejaVuSans-70" transform="translate(2962.048828 0)"/>
     <use xlink:href="#DejaVuSans-20" transform="translate(3025.525391 0)"/>
     <use xlink:href="#DejaVuSans-69" transform="translate(3057.3125 0)"/>
     <use xlink:href="#DejaVuSans-6e" transform="translate(3085.095703 0)"/>
     <use xlink:href="#DejaVuSans-20" transform="translate(3148.474609 0)"/>
     <use xlink:href="#DejaVuSans-70" transform="translate(3180.261719 0)"/>
     <use xlink:href="#DejaVuSans-61" transform="translate(3243.738281 0)"/>
     <use xlink:href="#DejaVuSans-72" transform="translate(3305.017578 0)"/>
     <use xlink:href="#DejaVuSans-61" transform="translate(3346.130859 0)"/>
     <use xlink:href="#DejaVuSans-6c" transform="translate(3407.410156 0)"/>
     <use xlink:href="#DejaVuSans-6c" transform="translate(3435.193359 0)"/>
     <use xlink:href="#DejaVuSans-65" transform="translate(3462.976562 0)"/>
     <use xlink:href="#DejaVuSans-6c" transform="translate(3524.5 0)"/>
     <use xlink:href="#DejaVuSans-6f" transform="translate(3552.283203 0)"/>
     <use xlink:href="#DejaVuSans-29" transform="translate(3613.464844 0)"/>
     <use xlink:href="#DejaVuSans-2e" transform="translate(3652.478516 0)"/>
    </g>
    <!-- Il nostro argmin è una riduzione SEQUENZIALE su una SINGOLA query → -->
    <g transform="translate(492.684274 282.71055) scale(0.083 -0.083)">
     <defs>
      <path id="DejaVuSans-49" d="M 628 4666 
L 1259 4666 
L 1259 0 
L 628 0 
L 628 4666 
z
" transform="scale(0.015625)"/>
      <path id="DejaVuSans-53" d="M 3425 4513 
L 3425 3897 
Q 3066 4069 2747 4153 
Q 2428 4238 2131 4238 
Q 1616 4238 1336 4038 
Q 1056 3838 1056 3469 
Q 1056 3159 1242 3001 
Q 1428 2844 1947 2747 
L 2328 2669 
Q 3034 2534 3370 2195 
Q 3706 1856 3706 1288 
Q 3706 609 3251 259 
Q 2797 -91 1919 -91 
Q 1588 -91 1214 -16 
Q 841 59 441 206 
L 441 856 
Q 825 641 1194 531 
Q 1563 422 1919 422 
Q 2459 422 2753 634 
Q 3047 847 3047 1241 
Q 3047 1584 2836 1778 
Q 2625 1972 2144 2069 
L 1759 2144 
Q 1053 2284 737 2584 
Q 422 2884 422 3419 
Q 422 4038 858 4394 
Q 1294 4750 2059 4750 
Q 2388 4750 2728 4690 
Q 3069 4631 3425 4513 
z
" transform="scale(0.015625)"/>
      <path id="DejaVuSans-51" d="M 2522 4238 
Q 1834 4238 1429 3725 
Q 1025 3213 1025 2328 
Q 1025 1447 1429 934 
Q 1834 422 2522 422 
Q 3209 422 3611 934 
Q 4013 1447 4013 2328 
Q 4013 3213 3611 3725 
Q 3209 4238 2522 4238 
z
M 3406 84 
L 4238 -825 
L 3475 -825 
L 2784 -78 
Q 2681 -84 2626 -87 
Q 2572 -91 2522 -91 
Q 1538 -91 948 567 
Q 359 1225 359 2328 
Q 359 3434 948 4092 
Q 1538 4750 2522 4750 
Q 3503 4750 4090 4092 
Q 4678 3434 4678 2328 
Q 4678 1516 4351 937 
Q 4025 359 3406 84 
z
" transform="scale(0.015625)"/>
      <path id="DejaVuSans-5a" d="M 359 4666 
L 4025 4666 
L 4025 4184 
L 1075 531 
L 4097 531 
L 4097 0 
L 288 0 
L 288 481 
L 3238 4134 
L 359 4134 
L 359 4666 
z
" transform="scale(0.015625)"/>
      <path id="DejaVuSans-4c" d="M 628 4666 
L 1259 4666 
L 1259 531 
L 3531 531 
L 3531 0 
L 628 0 
L 628 4666 
z
" transform="scale(0.015625)"/>
      <path id="DejaVuSans-4f" d="M 2522 4238 
Q 1834 4238 1429 3725 
Q 1025 3213 1025 2328 
Q 1025 1447 1429 934 
Q 1834 422 2522 422 
Q 3209 422 3611 934 
Q 4013 1447 4013 2328 
Q 4013 3213 3611 3725 
Q 3209 4238 2522 4238 
z
M 2522 4750 
Q 3503 4750 4090 4092 
Q 4678 3434 4678 2328 
Q 4678 1225 4090 567 
Q 3503 -91 2522 -91 
Q 1538 -91 948 565 
Q 359 1222 359 2328 
Q 359 3434 948 4092 
Q 1538 4750 2522 4750 
z
" transform="scale(0.015625)"/>
      <path id="DejaVuSans-2192" d="M 5050 2147 
L 5050 1866 
L 3822 638 
L 3447 1013 
L 4175 1741 
L 366 1741 
L 366 2272 
L 4175 2272 
L 3447 3000 
L 3822 3375 
L 5050 2147 
z
" transform="scale(0.015625)"/>
     </defs>
     <use xlink:href="#DejaVuSans-49"/>
     <use xlink:href="#DejaVuSans-6c" transform="translate(29.492188 0)"/>
     <use xlink:href="#DejaVuSans-20" transform="translate(57.275391 0)"/>
     <use xlink:href="#DejaVuSans-6e" transform="translate(89.0625 0)"/>
     <use xlink:href="#DejaVuSans-6f" transform="translate(152.441406 0)"/>
     <use xlink:href="#DejaVuSans-73" transform="translate(213.623047 0)"/>
     <use xlink:href="#DejaVuSans-74" transform="translate(265.722656 0)"/>
     <use xlink:href="#DejaVuSans-72" transform="translate(304.931641 0)"/>
     <use xlink:href="#DejaVuSans-6f" transform="translate(343.794922 0)"/>
     <use xlink:href="#DejaVuSans-20" transform="translate(404.976562 0)"/>
     <use xlink:href="#DejaVuSans-61" transform="translate(436.763672 0)"/>
     <use xlink:href="#DejaVuSans-72" transform="translate(498.042969 0)"/>
     <use xlink:href="#DejaVuSans-67" transform="translate(537.40625 0)"/>
     <use xlink:href="#DejaVuSans-6d" transform="translate(600.882812 0)"/>
     <use xlink:href="#DejaVuSans-69" transform="translate(698.294922 0)"/>
     <use xlink:href="#DejaVuSans-6e" transform="translate(726.078125 0)"/>
     <use xlink:href="#DejaVuSans-20" transform="translate(789.457031 0)"/>
     <use xlink:href="#DejaVuSans-e8" transform="translate(821.244141 0)"/>
     <use xlink:href="#DejaVuSans-20" transform="translate(882.767578 0)"/>
     <use xlink:href="#DejaVuSans-75" transform="translate(914.554688 0)"/>
     <use xlink:href="#DejaVuSans-6e" transform="translate(977.933594 0)"/>
     <use xlink:href="#DejaVuSans-61" transform="translate(1041.3125 0)"/>
     <use xlink:href="#DejaVuSans-20" transform="translate(1102.591797 0)"/>
     <use xlink:href="#DejaVuSans-72" transform="translate(1134.378906 0)"/>
     <use xlink:href="#DejaVuSans-69" transform="translate(1175.492188 0)"/>
     <use xlink:href="#DejaVuSans-64" transform="translate(1203.275391 0)"/>
     <use xlink:href="#DejaVuSans-75" transform="translate(1266.751953 0)"/>
     <use xlink:href="#DejaVuSans-7a" transform="translate(1330.130859 0)"/>
     <use xlink:href="#DejaVuSans-69" transform="translate(1382.621094 0)"/>
     <use xlink:href="#DejaVuSans-6f" transform="translate(1410.404297 0)"/>
     <use xlink:href="#DejaVuSans-6e" transform="translate(1471.585938 0)"/>
     <use xlink:href="#DejaVuSans-65" transform="translate(1534.964844 0)"/>
     <use xlink:href="#DejaVuSans-20" transform="translate(1596.488281 0)"/>
     <use xlink:href="#DejaVuSans-53" transform="translate(1628.275391 0)"/>
     <use xlink:href="#DejaVuSans-45" transform="translate(1691.751953 0)"/>
     <use xlink:href="#DejaVuSans-51" transform="translate(1754.935547 0)"/>
     <use xlink:href="#DejaVuSans-55" transform="translate(1833.646484 0)"/>
     <use xlink:href="#DejaVuSans-45" transform="translate(1906.839844 0)"/>
     <use xlink:href="#DejaVuSans-4e" transform="translate(1970.023438 0)"/>
     <use xlink:href="#DejaVuSans-5a" transform="translate(2044.828125 0)"/>
     <use xlink:href="#DejaVuSans-49" transform="translate(2113.333984 0)"/>
     <use xlink:href="#DejaVuSans-41" transform="translate(2142.826172 0)"/>
     <use xlink:href="#DejaVuSans-4c" transform="translate(2211.234375 0)"/>
     <use xlink:href="#DejaVuSans-45" transform="translate(2266.947266 0)"/>
     <use xlink:href="#DejaVuSans-20" transform="translate(2330.130859 0)"/>
     <use xlink:href="#DejaVuSans-73" transform="translate(2361.917969 0)"/>
     <use xlink:href="#DejaVuSans-75" transform="translate(2414.017578 0)"/>
     <use xlink:href="#DejaVuSans-20" transform="translate(2477.396484 0)"/>
     <use xlink:href="#DejaVuSans-75" transform="translate(2509.183594 0)"/>
     <use xlink:href="#DejaVuSans-6e" transform="translate(2572.5625 0)"/>
     <use xlink:href="#DejaVuSans-61" transform="translate(2635.941406 0)"/>
     <use xlink:href="#DejaVuSans-20" transform="translate(2697.220703 0)"/>
     <use xlink:href="#DejaVuSans-53" transform="translate(2729.007812 0)"/>
     <use xlink:href="#DejaVuSans-49" transform="translate(2792.484375 0)"/>
     <use xlink:href="#DejaVuSans-4e" transform="translate(2821.976562 0)"/>
     <use xlink:href="#DejaVuSans-47" transform="translate(2896.78125 0)"/>
     <use xlink:href="#DejaVuSans-4f" transform="translate(2974.271484 0)"/>
     <use xlink:href="#DejaVuSans-4c" transform="translate(3052.982422 0)"/>
     <use xlink:href="#DejaVuSans-41" transform="translate(3110.945312 0)"/>
     <use xlink:href="#DejaVuSans-20" transform="translate(3179.353516 0)"/>
     <use xlink:href="#DejaVuSans-71" transform="translate(3211.140625 0)"/>
     <use xlink:href="#DejaVuSans-75" transform="translate(3274.617188 0)"/>
     <use xlink:href="#DejaVuSans-65" transform="translate(3337.996094 0)"/>
     <use xlink:href="#DejaVuSans-72" transform="translate(3399.519531 0)"/>
     <use xlink:href="#DejaVuSans-79" transform="translate(3440.632812 0)"/>
     <use xlink:href="#DejaVuSans-20" transform="translate(3499.8125 0)"/>
     <use xlink:href="#DejaVuSans-2192" transform="translate(3531.599609 0)"/>
    </g>
    <!-- niente da parallelizzare, vince solo l'overhead di lancio dei kernel. -->
    <g transform="translate(505.721758 292.004734) scale(0.083 -0.083)">
     <defs>
      <path id="DejaVuSans-27" d="M 1147 4666 
L 1147 2931 
L 616 2931 
L 616 4666 
L 1147 4666 
z
" transform="scale(0.015625)"/>
      <path id="DejaVuSans-6b" d="M 581 4863 
L 1159 4863 
L 1159 1991 
L 2875 3500 
L 3609 3500 
L 1753 1863 
L 3688 0 
L 2938 0 
L 1159 1709 
L 1159 0 
L 581 0 
L 581 4863 
z
" transform="scale(0.015625)"/>
     </defs>
     <use xlink:href="#DejaVuSans-6e"/>
     <use xlink:href="#DejaVuSans-69" transform="translate(63.378906 0)"/>
     <use xlink:href="#DejaVuSans-65" transform="translate(91.162109 0)"/>
     <use xlink:href="#DejaVuSans-6e" transform="translate(152.685547 0)"/>
     <use xlink:href="#DejaVuSans-74" transform="translate(216.064453 0)"/>
     <use xlink:href="#DejaVuSans-65" transform="translate(255.273438 0)"/>
     <use xlink:href="#DejaVuSans-20" transform="translate(316.796875 0)"/>
     <use xlink:href="#DejaVuSans-64" transform="translate(348.583984 0)"/>
     <use xlink:href="#DejaVuSans-61" transform="translate(412.060547 0)"/>
     <use xlink:href="#DejaVuSans-20" transform="translate(473.339844 0)"/>
     <use xlink:href="#DejaVuSans-70" transform="translate(505.126953 0)"/>
     <use xlink:href="#DejaVuSans-61" transform="translate(568.603516 0)"/>
     <use xlink:href="#DejaVuSans-72" transform="translate(629.882812 0)"/>
     <use xlink:href="#DejaVuSans-61" transform="translate(670.996094 0)"/>
     <use xlink:href="#DejaVuSans-6c" transform="translate(732.275391 0)"/>
     <use xlink:href="#DejaVuSans-6c" transform="translate(760.058594 0)"/>
     <use xlink:href="#DejaVuSans-65" transform="translate(787.841797 0)"/>
     <use xlink:href="#DejaVuSans-6c" transform="translate(849.365234 0)"/>
     <use xlink:href="#DejaVuSans-69" transform="translate(877.148438 0)"/>
     <use xlink:href="#DejaVuSans-7a" transform="translate(904.931641 0)"/>
     <use xlink:href="#DejaVuSans-7a" transform="translate(957.421875 0)"/>
     <use xlink:href="#DejaVuSans-61" transform="translate(1009.912109 0)"/>
     <use xlink:href="#DejaVuSans-72" transform="translate(1071.191406 0)"/>
     <use xlink:href="#DejaVuSans-65" transform="translate(1110.054688 0)"/>
     <use xlink:href="#DejaVuSans-2c" transform="translate(1171.578125 0)"/>
     <use xlink:href="#DejaVuSans-20" transform="translate(1203.365234 0)"/>
     <use xlink:href="#DejaVuSans-76" transform="translate(1235.152344 0)"/>
     <use xlink:href="#DejaVuSans-69" transform="translate(1294.332031 0)"/>
     <use xlink:href="#DejaVuSans-6e" transform="translate(1322.115234 0)"/>
     <use xlink:href="#DejaVuSans-63" transform="translate(1385.494141 0)"/>
     <use xlink:href="#DejaVuSans-65" transform="translate(1440.474609 0)"/>
     <use xlink:href="#DejaVuSans-20" transform="translate(1501.998047 0)"/>
     <use xlink:href="#DejaVuSans-73" transform="translate(1533.785156 0)"/>
     <use xlink:href="#DejaVuSans-6f" transform="translate(1585.884766 0)"/>
     <use xlink:href="#DejaVuSans-6c" transform="translate(1647.066406 0)"/>
     <use xlink:href="#DejaVuSans-6f" transform="translate(1674.849609 0)"/>
     <use xlink:href="#DejaVuSans-20" transform="translate(1736.03125 0)"/>
     <use xlink:href="#DejaVuSans-6c" transform="translate(1767.818359 0)"/>
     <use xlink:href="#DejaVuSans-27" transform="translate(1795.601562 0)"/>
     <use xlink:href="#DejaVuSans-6f" transform="translate(1823.091797 0)"/>
     <use xlink:href="#DejaVuSans-76" transform="translate(1884.273438 0)"/>
     <use xlink:href="#DejaVuSans-65" transform="translate(1943.453125 0)"/>
     <use xlink:href="#DejaVuSans-72" transform="translate(2004.976562 0)"/>
     <use xlink:href="#DejaVuSans-68" transform="translate(2044.339844 0)"/>
     <use xlink:href="#DejaVuSans-65" transform="translate(2107.71875 0)"/>
     <use xlink:href="#DejaVuSans-61" transform="translate(2169.242188 0)"/>
     <use xlink:href="#DejaVuSans-64" transform="translate(2230.521484 0)"/>
     <use xlink:href="#DejaVuSans-20" transform="translate(2293.998047 0)"/>
     <use xlink:href="#DejaVuSans-64" transform="translate(2325.785156 0)"/>
     <use xlink:href="#DejaVuSans-69" transform="translate(2389.261719 0)"/>
     <use xlink:href="#DejaVuSans-20" transform="translate(2417.044922 0)"/>
     <use xlink:href="#DejaVuSans-6c" transform="translate(2448.832031 0)"/>
     <use xlink:href="#DejaVuSans-61" transform="translate(2476.615234 0)"/>
     <use xlink:href="#DejaVuSans-6e" transform="translate(2537.894531 0)"/>
     <use xlink:href="#DejaVuSans-63" transform="translate(2601.273438 0)"/>
     <use xlink:href="#DejaVuSans-69" transform="translate(2656.253906 0)"/>
     <use xlink:href="#DejaVuSans-6f" transform="translate(2684.037109 0)"/>
     <use xlink:href="#DejaVuSans-20" transform="translate(2745.21875 0)"/>
     <use xlink:href="#DejaVuSans-64" transform="translate(2777.005859 0)"/>
     <use xlink:href="#DejaVuSans-65" transform="translate(2840.482422 0)"/>
     <use xlink:href="#DejaVuSans-69" transform="translate(2902.005859 0)"/>
     <use xlink:href="#DejaVuSans-20" transform="translate(2929.789062 0)"/>
     <use xlink:href="#DejaVuSans-6b" transform="translate(2961.576172 0)"/>
     <use xlink:href="#DejaVuSans-65" transform="translate(3015.861328 0)"/>
     <use xlink:href="#DejaVuSans-72" transform="translate(3077.384766 0)"/>
     <use xlink:href="#DejaVuSans-6e" transform="translate(3116.748047 0)"/>
     <use xlink:href="#DejaVuSans-65" transform="translate(3180.126953 0)"/>
     <use xlink:href="#DejaVuSans-6c" transform="translate(3241.650391 0)"/>
     <use xlink:href="#DejaVuSans-2e" transform="translate(3269.433594 0)"/>
    </g>
   </g>
   <g id="text_41">
    <!-- La GPU non aiuta — anzi, peggiora -->
    <g transform="translate(551.395953 27.440062) scale(0.105 -0.105)">
     <use xlink:href="#DejaVuSans-4c"/>
     <use xlink:href="#DejaVuSans-61" transform="translate(55.712891 0)"/>
     <use xlink:href="#DejaVuSans-20" transform="translate(116.992188 0)"/>
     <use xlink:href="#DejaVuSans-47" transform="translate(148.779297 0)"/>
     <use xlink:href="#DejaVuSans-50" transform="translate(226.269531 0)"/>
     <use xlink:href="#DejaVuSans-55" transform="translate(286.572266 0)"/>
     <use xlink:href="#DejaVuSans-20" transform="translate(359.765625 0)"/>
     <use xlink:href="#DejaVuSans-6e" transform="translate(391.552734 0)"/>
     <use xlink:href="#DejaVuSans-6f" transform="translate(454.931641 0)"/>
     <use xlink:href="#DejaVuSans-6e" transform="translate(516.113281 0)"/>
     <use xlink:href="#DejaVuSans-20" transform="translate(579.492188 0)"/>
     <use xlink:href="#DejaVuSans-61" transform="translate(611.279297 0)"/>
     <use xlink:href="#DejaVuSans-69" transform="translate(672.558594 0)"/>
     <use xlink:href="#DejaVuSans-75" transform="translate(700.341797 0)"/>
     <use xlink:href="#DejaVuSans-74" transform="translate(763.720703 0)"/>
     <use xlink:href="#DejaVuSans-61" transform="translate(802.929688 0)"/>
     <use xlink:href="#DejaVuSans-20" transform="translate(864.208984 0)"/>
     <use xlink:href="#DejaVuSans-2014" transform="translate(895.996094 0)"/>
     <use xlink:href="#DejaVuSans-20" transform="translate(995.996094 0)"/>
     <use xlink:href="#DejaVuSans-61" transform="translate(1027.783203 0)"/>
     <use xlink:href="#DejaVuSans-6e" transform="translate(1089.0625 0)"/>
     <use xlink:href="#DejaVuSans-7a" transform="translate(1152.441406 0)"/>
     <use xlink:href="#DejaVuSans-69" transform="translate(1204.931641 0)"/>
     <use xlink:href="#DejaVuSans-2c" transform="translate(1232.714844 0)"/>
     <use xlink:href="#DejaVuSans-20" transform="translate(1264.501953 0)"/>
     <use xlink:href="#DejaVuSans-70" transform="translate(1296.289062 0)"/>
     <use xlink:href="#DejaVuSans-65" transform="translate(1359.765625 0)"/>
     <use xlink:href="#DejaVuSans-67" transform="translate(1421.289062 0)"/>
     <use xlink:href="#DejaVuSans-67" transform="translate(1484.765625 0)"/>
     <use xlink:href="#DejaVuSans-69" transform="translate(1548.242188 0)"/>
     <use xlink:href="#DejaVuSans-6f" transform="translate(1576.025391 0)"/>
     <use xlink:href="#DejaVuSans-72" transform="translate(1637.207031 0)"/>
     <use xlink:href="#DejaVuSans-61" transform="translate(1678.320312 0)"/>
    </g>
   </g>
  </g>
 </g>
 <defs>
  <clipPath id="p9edf0a3aae">
   <rect x="46.965625" y="33.440062" width="396.999687" height="179.184"/>
  </clipPath>
  <clipPath id="pfcd46dd96d">
   <rect x="505.826541" y="33.440062" width="273.792887" height="179.184"/>
  </clipPath>
 </defs>
</svg>
