<?xml version="1.0" encoding="utf-8" standalone="no"?>
<!DOCTYPE svg PUBLIC "-//W3C//DTD SVG 1.1//EN"
  "http://www.w3.org/Graphics/SVG/1.1/DTD/svg11.dtd">
<svg xmlns:xlink="http://www.w3.org/1999/xlink" width="820.315625pt" height="352.004313pt" viewBox="0 0 820.315625 352.004313" xmlns="http://www.w3.org/2000/svg" version="1.1">
 <metadata>
  <rdf:RDF xmlns:dc="http://purl.org/dc/elements/1.1/" xmlns:cc="http://creativecommons.org/ns#" xmlns:rdf="http://www.w3.org/1999/02/22-rdf-syntax-ns#">
   <cc:Work>
    <dc:type rdf:resource="http://purl.org/dc/dcmitype/StillImage"/>
    <dc:date>2026-06-26T21:41:29.035256</dc:date>
    <dc:format>image/svg+xml</dc:format>
    <dc:creator>
     <cc:Agent>
      <dc:title>Matplotlib v3.9.4, https://matplotlib.org/</dc:title>
     </cc:Agent>
    </dc:creator>
   </cc:Work>
  </rdf:RDF>
 </metadata>
 <defs>
  <style type="text/css">*{stroke-linejoin: round; stroke-linecap: butt}</style>
 </defs>
 <g id="figure_1">
  <g id="patch_1">
   <path d="M 0 352.004313 
L 820.315625 352.004313 
L 820.315625 0 
L 0 0 
z
" style="fill: #ffffff"/>
  </g>
  <g id="axes_1">
   <g id="patch_2">
    <path d="M 46.965625 314.448062 
L 463.789592 314.448062 
L 463.789592 33.440062 
L 46.965625 33.440062 
z
" style="fill: #ffffff"/>
   </g>
   <g id="matplotlib.axis_1">
    <g id="xtick_1">
     <g id="line2d_1">
      <defs>
       <path id="mc0b4c42913" d="M 0 0 
L 0 3.5 
" style="stroke: #000000; stroke-width: 0.8"/>
      </defs>
      <g>
       <use xlink:href="#mc0b4c42913" x="68.414769" y="314.448062" style="stroke: #000000; stroke-width: 0.8"/>
      </g>
     </g>
     <g id="text_1">
      <!-- 4 -->
      <g transform="translate(65.233519 329.0465) scale(0.1 -0.1)">
       <defs>
        <path id="DejaVuSans-34" d="M 2419 4116 
L 825 1625 
L 2419 1625 
L 2419 4116 
z
M 2253 4666 
L 3047 4666 
L 3047 1625 
L 3713 1625 
L 3713 1100 
L 3047 1100 
L 3047 0 
L 2419 0 
L 2419 1100 
L 313 1100 
L 313 1709 
L 2253 4666 
z
" transform="scale(0.015625)"/>
       </defs>
       <use xlink:href="#DejaVuSans-34"/>
      </g>
     </g>
    </g>
    <g id="xtick_2">
     <g id="line2d_2">
      <g>
       <use xlink:href="#mc0b4c42913" x="159.895889" y="314.448062" style="stroke: #000000; stroke-width: 0.8"/>
      </g>
     </g>
     <g id="text_2">
      <!-- 8 -->
      <g transform="translate(156.714639 329.0465) scale(0.1 -0.1)">
       <defs>
        <path id="DejaVuSans-38" d="M 2034 2216 
Q 1584 2216 1326 1975 
Q 1069 1734 1069 1313 
Q 1069 891 1326 650 
Q 1584 409 2034 409 
Q 2484 409 2743 651 
Q 3003 894 3003 1313 
Q 3003 1734 2745 1975 
Q 2488 2216 2034 2216 
z
M 1403 2484 
Q 997 2584 770 2862 
Q 544 3141 544 3541 
Q 544 4100 942 4425 
Q 1341 4750 2034 4750 
Q 2731 4750 3128 4425 
Q 3525 4100 3525 3541 
Q 3525 3141 3298 2862 
Q 3072 2584 2669 2484 
Q 3125 2378 3379 2068 
Q 3634 1759 3634 1313 
Q 3634 634 3220 271 
Q 2806 -91 2034 -91 
Q 1263 -91 848 271 
Q 434 634 434 1313 
Q 434 1759 690 2068 
Q 947 2378 1403 2484 
z
M 1172 3481 
Q 1172 3119 1398 2916 
Q 1625 2713 2034 2713 
Q 2441 2713 2670 2916 
Q 2900 3119 2900 3481 
Q 2900 3844 2670 4047 
Q 2441 4250 2034 4250 
Q 1625 4250 1398 4047 
Q 1172 3844 1172 3481 
z
" transform="scale(0.015625)"/>
       </defs>
       <use xlink:href="#DejaVuSans-38"/>
      </g>
     </g>
    </g>
    <g id="xtick_3">
     <g id="line2d_3">
      <g>
       <use xlink:href="#mc0b4c42913" x="251.377009" y="314.448062" style="stroke: #000000; stroke-width: 0.8"/>
      </g>
     </g>
     <g id="text_3">
      <!-- 16 -->
      <g transform="translate(245.014509 329.0465) scale(0.1 -0.1)">
       <defs>
        <path id="DejaVuSans-31" d="M 794 531 
L 1825 531 
L 1825 4091 
L 703 3866 
L 703 4441 
L 1819 4666 
L 2450 4666 
L 2450 531 
L 3481 531 
L 3481 0 
L 794 0 
L 794 531 
z
" transform="scale(0.015625)"/>
        <path id="DejaVuSans-36" d="M 2113 2584 
Q 1688 2584 1439 2293 
Q 1191 2003 1191 1497 
Q 1191 994 1439 701 
Q 1688 409 2113 409 
Q 2538 409 2786 701 
Q 3034 994 3034 1497 
Q 3034 2003 2786 2293 
Q 2538 2584 2113 2584 
z
M 3366 4563 
L 3366 3988 
Q 3128 4100 2886 4159 
Q 2644 4219 2406 4219 
Q 1781 4219 1451 3797 
Q 1122 3375 1075 2522 
Q 1259 2794 1537 2939 
Q 1816 3084 2150 3084 
Q 2853 3084 3261 2657 
Q 3669 2231 3669 1497 
Q 3669 778 3244 343 
Q 2819 -91 2113 -91 
Q 1303 -91 875 529 
Q 447 1150 447 2328 
Q 447 3434 972 4092 
Q 1497 4750 2381 4750 
Q 2619 4750 2861 4703 
Q 3103 4656 3366 4563 
z
" transform="scale(0.015625)"/>
       </defs>
       <use xlink:href="#DejaVuSans-31"/>
       <use xlink:href="#DejaVuSans-36" x="63.623047"/>
      </g>
     </g>
    </g>
    <g id="xtick_4">
     <g id="line2d_4">
      <g>
       <use xlink:href="#mc0b4c42913" x="342.858129" y="314.448062" style="stroke: #000000; stroke-width: 0.8"/>
      </g>
     </g>
     <g id="text_4">
      <!-- 32 -->
      <g transform="translate(336.495629 329.0465) scale(0.1 -0.1)">
       <defs>
        <path id="DejaVuSans-33" d="M 2597 2516 
Q 3050 2419 3304 2112 
Q 3559 1806 3559 1356 
Q 3559 666 3084 287 
Q 2609 -91 1734 -91 
Q 1441 -91 1130 -33 
Q 819 25 488 141 
L 488 750 
Q 750 597 1062 519 
Q 1375 441 1716 441 
Q 2309 441 2620 675 
Q 2931 909 2931 1356 
Q 2931 1769 2642 2001 
Q 2353 2234 1838 2234 
L 1294 2234 
L 1294 2753 
L 1863 2753 
Q 2328 2753 2575 2939 
Q 2822 3125 2822 3475 
Q 2822 3834 2567 4026 
Q 2313 4219 1838 4219 
Q 1578 4219 1281 4162 
Q 984 4106 628 3988 
L 628 4550 
Q 988 4650 1302 4700 
Q 1616 4750 1894 4750 
Q 2613 4750 3031 4423 
Q 3450 4097 3450 3541 
Q 3450 3153 3228 2886 
Q 3006 2619 2597 2516 
z
" transform="scale(0.015625)"/>
        <path id="DejaVuSans-32" d="M 1228 531 
L 3431 531 
L 3431 0 
L 469 0 
L 469 531 
Q 828 903 1448 1529 
Q 2069 2156 2228 2338 
Q 2531 2678 2651 2914 
Q 2772 3150 2772 3378 
Q 2772 3750 2511 3984 
Q 2250 4219 1831 4219 
Q 1534 4219 1204 4116 
Q 875 4013 500 3803 
L 500 4441 
Q 881 4594 1212 4672 
Q 1544 4750 1819 4750 
Q 2544 4750 2975 4387 
Q 3406 4025 3406 3419 
Q 3406 3131 3298 2873 
Q 3191 2616 2906 2266 
Q 2828 2175 2409 1742 
Q 1991 1309 1228 531 
z
" transform="scale(0.015625)"/>
       </defs>
       <use xlink:href="#DejaVuSans-33"/>
       <use xlink:href="#DejaVuSans-32" x="63.623047"/>
      </g>
     </g>
    </g>
    <g id="xtick_5">
     <g id="line2d_5">
      <g>
       <use xlink:href="#mc0b4c42913" x="434.339249" y="314.448062" style="stroke: #000000; stroke-width: 0.8"/>
      </g>
     </g>
     <g id="text_5">
      <!-- 64 -->
      <g transform="translate(427.976749 329.0465) scale(0.1 -0.1)">
       <use xlink:href="#DejaVuSans-36"/>
       <use xlink:href="#DejaVuSans-34" x="63.623047"/>
      </g>
     </g>
    </g>
    <g id="text_6">
     <!-- iscritti in galleria (N) -->
     <g transform="translate(204.311983 342.724625) scale(0.1 -0.1)">
      <defs>
       <path id="DejaVuSans-69" d="M 603 3500 
L 1178 3500 
L 1178 0 
L 603 0 
L 603 3500 
z
M 603 4863 
L 1178 4863 
L 1178 4134 
L 603 4134 
L 603 4863 
z
" transform="scale(0.015625)"/>
       <path id="DejaVuSans-73" d="M 2834 3397 
L 2834 2853 
Q 2591 2978 2328 3040 
Q 2066 3103 1784 3103 
Q 1356 3103 1142 2972 
Q 928 2841 928 2578 
Q 928 2378 1081 2264 
Q 1234 2150 1697 2047 
L 1894 2003 
Q 2506 1872 2764 1633 
Q 3022 1394 3022 966 
Q 3022 478 2636 193 
Q 2250 -91 1575 -91 
Q 1294 -91 989 -36 
Q 684 19 347 128 
L 347 722 
Q 666 556 975 473 
Q 1284 391 1588 391 
Q 1994 391 2212 530 
Q 2431 669 2431 922 
Q 2431 1156 2273 1281 
Q 2116 1406 1581 1522 
L 1381 1569 
Q 847 1681 609 1914 
Q 372 2147 372 2553 
Q 372 3047 722 3315 
Q 1072 3584 1716 3584 
Q 2034 3584 2315 3537 
Q 2597 3491 2834 3397 
z
" transform="scale(0.015625)"/>
       <path id="DejaVuSans-63" d="M 3122 3366 
L 3122 2828 
Q 2878 2963 2633 3030 
Q 2388 3097 2138 3097 
Q 1578 3097 1268 2742 
Q 959 2388 959 1747 
Q 959 1106 1268 751 
Q 1578 397 2138 397 
Q 2388 397 2633 464 
Q 2878 531 3122 666 
L 3122 134 
Q 2881 22 2623 -34 
Q 2366 -91 2075 -91 
Q 1284 -91 818 406 
Q 353 903 353 1747 
Q 353 2603 823 3093 
Q 1294 3584 2113 3584 
Q 2378 3584 2631 3529 
Q 2884 3475 3122 3366 
z
" transform="scale(0.015625)"/>
       <path id="DejaVuSans-72" d="M 2631 2963 
Q 2534 3019 2420 3045 
Q 2306 3072 2169 3072 
Q 1681 3072 1420 2755 
Q 1159 2438 1159 1844 
L 1159 0 
L 581 0 
L 581 3500 
L 1159 3500 
L 1159 2956 
Q 1341 3275 1631 3429 
Q 1922 3584 2338 3584 
Q 2397 3584 2469 3576 
Q 2541 3569 2628 3553 
L 2631 2963 
z
" transform="scale(0.015625)"/>
       <path id="DejaVuSans-74" d="M 1172 4494 
L 1172 3500 
L 2356 3500 
L 2356 3053 
L 1172 3053 
L 1172 1153 
Q 1172 725 1289 603 
Q 1406 481 1766 481 
L 2356 481 
L 2356 0 
L 1766 0 
Q 1100 0 847 248 
Q 594 497 594 1153 
L 594 3053 
L 172 3053 
L 172 3500 
L 594 3500 
L 594 4494 
L 1172 4494 
z
" transform="scale(0.015625)"/>
       <path id="DejaVuSans-20" transform="scale(0.015625)"/>
       <path id="DejaVuSans-6e" d="M 3513 2113 
L 3513 0 
L 2938 0 
L 2938 2094 
Q 2938 2591 2744 2837 
Q 2550 3084 2163 3084 
Q 1697 3084 1428 2787 
Q 1159 2491 1159 1978 
L 1159 0 
L 581 0 
L 581 3500 
L 1159 3500 
L 1159 2956 
Q 1366 3272 1645 3428 
Q 1925 3584 2291 3584 
Q 2894 3584 3203 3211 
Q 3513 2838 3513 2113 
z
" transform="scale(0.015625)"/>
       <path id="DejaVuSans-67" d="M 2906 1791 
Q 2906 2416 2648 2759 
Q 2391 3103 1925 3103 
Q 1463 3103 1205 2759 
Q 947 2416 947 1791 
Q 947 1169 1205 825 
Q 1463 481 1925 481 
Q 2391 481 2648 825 
Q 2906 1169 2906 1791 
z
M 3481 434 
Q 3481 -459 3084 -895 
Q 2688 -1331 1869 -1331 
Q 1566 -1331 1297 -1286 
Q 1028 -1241 775 -1147 
L 775 -588 
Q 1028 -725 1275 -790 
Q 1522 -856 1778 -856 
Q 2344 -856 2625 -561 
Q 2906 -266 2906 331 
L 2906 616 
Q 2728 306 2450 153 
Q 2172 0 1784 0 
Q 1141 0 747 490 
Q 353 981 353 1791 
Q 353 2603 747 3093 
Q 1141 3584 1784 3584 
Q 2172 3584 2450 3431 
Q 2728 3278 2906 2969 
L 2906 3500 
L 3481 3500 
L 3481 434 
z
" transform="scale(0.015625)"/>
       <path id="DejaVuSans-61" d="M 2194 1759 
Q 1497 1759 1228 1600 
Q 959 1441 959 1056 
Q 959 750 1161 570 
Q 1363 391 1709 391 
Q 2188 391 2477 730 
Q 2766 1069 2766 1631 
L 2766 1759 
L 2194 1759 
z
M 3341 1997 
L 3341 0 
L 2766 0 
L 2766 531 
Q 2569 213 2275 61 
Q 1981 -91 1556 -91 
Q 1019 -91 701 211 
Q 384 513 384 1019 
Q 384 1609 779 1909 
Q 1175 2209 1959 2209 
L 2766 2209 
L 2766 2266 
Q 2766 2663 2505 2880 
Q 2244 3097 1772 3097 
Q 1472 3097 1187 3025 
Q 903 2953 641 2809 
L 641 3341 
Q 956 3463 1253 3523 
Q 1550 3584 1831 3584 
Q 2591 3584 2966 3190 
Q 3341 2797 3341 1997 
z
" transform="scale(0.015625)"/>
       <path id="DejaVuSans-6c" d="M 603 4863 
L 1178 4863 
L 1178 0 
L 603 0 
L 603 4863 
z
" transform="scale(0.015625)"/>
       <path id="DejaVuSans-65" d="M 3597 1894 
L 3597 1613 
L 953 1613 
Q 991 1019 1311 708 
Q 1631 397 2203 397 
Q 2534 397 2845 478 
Q 3156 559 3463 722 
L 3463 178 
Q 3153 47 2828 -22 
Q 2503 -91 2169 -91 
Q 1331 -91 842 396 
Q 353 884 353 1716 
Q 353 2575 817 3079 
Q 1281 3584 2069 3584 
Q 2775 3584 3186 3129 
Q 3597 2675 3597 1894 
z
M 3022 2063 
Q 3016 2534 2758 2815 
Q 2500 3097 2075 3097 
Q 1594 3097 1305 2825 
Q 1016 2553 972 2059 
L 3022 2063 
z
" transform="scale(0.015625)"/>
       <path id="DejaVuSans-28" d="M 1984 4856 
Q 1566 4138 1362 3434 
Q 1159 2731 1159 2009 
Q 1159 1288 1364 580 
Q 1569 -128 1984 -844 
L 1484 -844 
Q 1016 -109 783 600 
Q 550 1309 550 2009 
Q 550 2706 781 3412 
Q 1013 4119 1484 4856 
L 1984 4856 
z
" transform="scale(0.015625)"/>
       <path id="DejaVuSans-4e" d="M 628 4666 
L 1478 4666 
L 3547 763 
L 3547 4666 
L 4159 4666 
L 4159 0 
L 3309 0 
L 1241 3903 
L 1241 0 
L 628 0 
L 628 4666 
z
" transform="scale(0.015625)"/>
       <path id="DejaVuSans-29" d="M 513 4856 
L 1013 4856 
Q 1481 4119 1714 3412 
Q 1947 2706 1947 2009 
Q 1947 1309 1714 600 
Q 1481 -109 1013 -844 
L 513 -844 
Q 928 -128 1133 580 
Q 1338 1288 1338 2009 
Q 1338 2731 1133 3434 
Q 928 4138 513 4856 
z
" transform="scale(0.015625)"/>
      </defs>
      <use xlink:href="#DejaVuSans-69"/>
      <use xlink:href="#DejaVuSans-73" x="27.783203"/>
      <use xlink:href="#DejaVuSans-63" x="79.882812"/>
      <use xlink:href="#DejaVuSans-72" x="134.863281"/>
      <use xlink:href="#DejaVuSans-69" x="175.976562"/>
      <use xlink:href="#DejaVuSans-74" x="203.759766"/>
      <use xlink:href="#DejaVuSans-74" x="242.96875"/>
      <use xlink:href="#DejaVuSans-69" x="282.177734"/>
      <use xlink:href="#DejaVuSans-20" x="309.960938"/>
      <use xlink:href="#DejaVuSans-69" x="341.748047"/>
      <use xlink:href="#DejaVuSans-6e" x="369.53125"/>
      <use xlink:href="#DejaVuSans-20" x="432.910156"/>
      <use xlink:href="#DejaVuSans-67" x="464.697266"/>
      <use xlink:href="#DejaVuSans-61" x="528.173828"/>
      <use xlink:href="#DejaVuSans-6c" x="589.453125"/>
      <use xlink:href="#DejaVuSans-6c" x="617.236328"/>
      <use xlink:href="#DejaVuSans-65" x="645.019531"/>
      <use xlink:href="#DejaVuSans-72" x="706.542969"/>
      <use xlink:href="#DejaVuSans-69" x="747.65625"/>
      <use xlink:href="#DejaVuSans-61" x="775.439453"/>
      <use xlink:href="#DejaVuSans-20" x="836.71875"/>
      <use xlink:href="#DejaVuSans-28" x="868.505859"/>
      <use xlink:href="#DejaVuSans-4e" x="907.519531"/>
      <use xlink:href="#DejaVuSans-29" x="982.324219"/>
     </g>
    </g>
   </g>
   <g id="matplotlib.axis_2">
    <g id="ytick_1">
     <g id="line2d_6">
      <defs>
       <path id="me73c331b82" d="M 0 0 
L -3.5 0 
" style="stroke: #000000; stroke-width: 0.8"/>
      </defs>
      <g>
       <use xlink:href="#me73c331b82" x="46.965625" y="314.448062" style="stroke: #000000; stroke-width: 0.8"/>
      </g>
     </g>
     <g id="text_7">
      <!-- 0 -->
      <g transform="translate(33.603125 318.247281) scale(0.1 -0.1)">
       <defs>
        <path id="DejaVuSans-30" d="M 2034 4250 
Q 1547 4250 1301 3770 
Q 1056 3291 1056 2328 
Q 1056 1369 1301 889 
Q 1547 409 2034 409 
Q 2525 409 2770 889 
Q 3016 1369 3016 2328 
Q 3016 3291 2770 3770 
Q 2525 4250 2034 4250 
z
M 2034 4750 
Q 2819 4750 3233 4129 
Q 3647 3509 3647 2328 
Q 3647 1150 3233 529 
Q 2819 -91 2034 -91 
Q 1250 -91 836 529 
Q 422 1150 422 2328 
Q 422 3509 836 4129 
Q 1250 4750 2034 4750 
z
" transform="scale(0.015625)"/>
       </defs>
       <use xlink:href="#DejaVuSans-30"/>
      </g>
     </g>
    </g>
    <g id="ytick_2">
     <g id="line2d_7">
      <g>
       <use xlink:href="#me73c331b82" x="46.965625" y="277.473326" style="stroke: #000000; stroke-width: 0.8"/>
      </g>
     </g>
     <g id="text_8">
      <!-- 50 -->
      <g transform="translate(27.240625 281.272544) scale(0.1 -0.1)">
       <defs>
        <path id="DejaVuSans-35" d="M 691 4666 
L 3169 4666 
L 3169 4134 
L 1269 4134 
L 1269 2991 
Q 1406 3038 1543 3061 
Q 1681 3084 1819 3084 
Q 2600 3084 3056 2656 
Q 3513 2228 3513 1497 
Q 3513 744 3044 326 
Q 2575 -91 1722 -91 
Q 1428 -91 1123 -41 
Q 819 9 494 109 
L 494 744 
Q 775 591 1075 516 
Q 1375 441 1709 441 
Q 2250 441 2565 725 
Q 2881 1009 2881 1497 
Q 2881 1984 2565 2268 
Q 2250 2553 1709 2553 
Q 1456 2553 1204 2497 
Q 953 2441 691 2322 
L 691 4666 
z
" transform="scale(0.015625)"/>
       </defs>
       <use xlink:href="#DejaVuSans-35"/>
       <use xlink:href="#DejaVuSans-30" x="63.623047"/>
      </g>
     </g>
    </g>
    <g id="ytick_3">
     <g id="line2d_8">
      <g>
       <use xlink:href="#me73c331b82" x="46.965625" y="240.498589" style="stroke: #000000; stroke-width: 0.8"/>
      </g>
     </g>
     <g id="text_9">
      <!-- 100 -->
      <g transform="translate(20.878125 244.297808) scale(0.1 -0.1)">
       <use xlink:href="#DejaVuSans-31"/>
       <use xlink:href="#DejaVuSans-30" x="63.623047"/>
       <use xlink:href="#DejaVuSans-30" x="127.246094"/>
      </g>
     </g>
    </g>
    <g id="ytick_4">
     <g id="line2d_9">
      <g>
       <use xlink:href="#me73c331b82" x="46.965625" y="203.523852" style="stroke: #000000; stroke-width: 0.8"/>
      </g>
     </g>
     <g id="text_10">
      <!-- 150 -->
      <g transform="translate(20.878125 207.323071) scale(0.1 -0.1)">
       <use xlink:href="#DejaVuSans-31"/>
       <use xlink:href="#DejaVuSans-35" x="63.623047"/>
       <use xlink:href="#DejaVuSans-30" x="127.246094"/>
      </g>
     </g>
    </g>
    <g id="ytick_5">
     <g id="line2d_10">
      <g>
       <use xlink:href="#me73c331b82" x="46.965625" y="166.549115" style="stroke: #000000; stroke-width: 0.8"/>
      </g>
     </g>
     <g id="text_11">
      <!-- 200 -->
      <g transform="translate(20.878125 170.348334) scale(0.1 -0.1)">
       <use xlink:href="#DejaVuSans-32"/>
       <use xlink:href="#DejaVuSans-30" x="63.623047"/>
       <use xlink:href="#DejaVuSans-30" x="127.246094"/>
      </g>
     </g>
    </g>
    <g id="ytick_6">
     <g id="line2d_11">
      <g>
       <use xlink:href="#me73c331b82" x="46.965625" y="129.574378" style="stroke: #000000; stroke-width: 0.8"/>
      </g>
     </g>
     <g id="text_12">
      <!-- 250 -->
      <g transform="translate(20.878125 133.373597) scale(0.1 -0.1)">
       <use xlink:href="#DejaVuSans-32"/>
       <use xlink:href="#DejaVuSans-35" x="63.623047"/>
       <use xlink:href="#DejaVuSans-30" x="127.246094"/>
      </g>
     </g>
    </g>
    <g id="ytick_7">
     <g id="line2d_12">
      <g>
       <use xlink:href="#me73c331b82" x="46.965625" y="92.599641" style="stroke: #000000; stroke-width: 0.8"/>
      </g>
     </g>
     <g id="text_13">
      <!-- 300 -->
      <g transform="translate(20.878125 96.39886) scale(0.1 -0.1)">
       <use xlink:href="#DejaVuSans-33"/>
       <use xlink:href="#DejaVuSans-30" x="63.623047"/>
       <use xlink:href="#DejaVuSans-30" x="127.246094"/>
      </g>
     </g>
    </g>
    <g id="ytick_8">
     <g id="line2d_13">
      <g>
       <use xlink:href="#me73c331b82" x="46.965625" y="55.624905" style="stroke: #000000; stroke-width: 0.8"/>
      </g>
     </g>
     <g id="text_14">
      <!-- 350 -->
      <g transform="translate(20.878125 59.424123) scale(0.1 -0.1)">
       <use xlink:href="#DejaVuSans-33"/>
       <use xlink:href="#DejaVuSans-35" x="63.623047"/>
       <use xlink:href="#DejaVuSans-30" x="127.246094"/>
      </g>
     </g>
    </g>
    <g id="text_15">
     <!-- tempo per query (s) -->
     <g transform="translate(14.798438 224.09875) rotate(-90) scale(0.1 -0.1)">
      <defs>
       <path id="DejaVuSans-6d" d="M 3328 2828 
Q 3544 3216 3844 3400 
Q 4144 3584 4550 3584 
Q 5097 3584 5394 3201 
Q 5691 2819 5691 2113 
L 5691 0 
L 5113 0 
L 5113 2094 
Q 5113 2597 4934 2840 
Q 4756 3084 4391 3084 
Q 3944 3084 3684 2787 
Q 3425 2491 3425 1978 
L 3425 0 
L 2847 0 
L 2847 2094 
Q 2847 2600 2669 2842 
Q 2491 3084 2119 3084 
Q 1678 3084 1418 2786 
Q 1159 2488 1159 1978 
L 1159 0 
L 581 0 
L 581 3500 
L 1159 3500 
L 1159 2956 
Q 1356 3278 1631 3431 
Q 1906 3584 2284 3584 
Q 2666 3584 2933 3390 
Q 3200 3197 3328 2828 
z
" transform="scale(0.015625)"/>
       <path id="DejaVuSans-70" d="M 1159 525 
L 1159 -1331 
L 581 -1331 
L 581 3500 
L 1159 3500 
L 1159 2969 
Q 1341 3281 1617 3432 
Q 1894 3584 2278 3584 
Q 2916 3584 3314 3078 
Q 3713 2572 3713 1747 
Q 3713 922 3314 415 
Q 2916 -91 2278 -91 
Q 1894 -91 1617 61 
Q 1341 213 1159 525 
z
M 3116 1747 
Q 3116 2381 2855 2742 
Q 2594 3103 2138 3103 
Q 1681 3103 1420 2742 
Q 1159 2381 1159 1747 
Q 1159 1113 1420 752 
Q 1681 391 2138 391 
Q 2594 391 2855 752 
Q 3116 1113 3116 1747 
z
" transform="scale(0.015625)"/>
       <path id="DejaVuSans-6f" d="M 1959 3097 
Q 1497 3097 1228 2736 
Q 959 2375 959 1747 
Q 959 1119 1226 758 
Q 1494 397 1959 397 
Q 2419 397 2687 759 
Q 2956 1122 2956 1747 
Q 2956 2369 2687 2733 
Q 2419 3097 1959 3097 
z
M 1959 3584 
Q 2709 3584 3137 3096 
Q 3566 2609 3566 1747 
Q 3566 888 3137 398 
Q 2709 -91 1959 -91 
Q 1206 -91 779 398 
Q 353 888 353 1747 
Q 353 2609 779 3096 
Q 1206 3584 1959 3584 
z
" transform="scale(0.015625)"/>
       <path id="DejaVuSans-71" d="M 947 1747 
Q 947 1113 1208 752 
Q 1469 391 1925 391 
Q 2381 391 2643 752 
Q 2906 1113 2906 1747 
Q 2906 2381 2643 2742 
Q 2381 3103 1925 3103 
Q 1469 3103 1208 2742 
Q 947 2381 947 1747 
z
M 2906 525 
Q 2725 213 2448 61 
Q 2172 -91 1784 -91 
Q 1150 -91 751 415 
Q 353 922 353 1747 
Q 353 2572 751 3078 
Q 1150 3584 1784 3584 
Q 2172 3584 2448 3432 
Q 2725 3281 2906 2969 
L 2906 3500 
L 3481 3500 
L 3481 -1331 
L 2906 -1331 
L 2906 525 
z
" transform="scale(0.015625)"/>
       <path id="DejaVuSans-75" d="M 544 1381 
L 544 3500 
L 1119 3500 
L 1119 1403 
Q 1119 906 1312 657 
Q 1506 409 1894 409 
Q 2359 409 2629 706 
Q 2900 1003 2900 1516 
L 2900 3500 
L 3475 3500 
L 3475 0 
L 2900 0 
L 2900 538 
Q 2691 219 2414 64 
Q 2138 -91 1772 -91 
Q 1169 -91 856 284 
Q 544 659 544 1381 
z
M 1991 3584 
L 1991 3584 
z
" transform="scale(0.015625)"/>
       <path id="DejaVuSans-79" d="M 2059 -325 
Q 1816 -950 1584 -1140 
Q 1353 -1331 966 -1331 
L 506 -1331 
L 506 -850 
L 844 -850 
Q 1081 -850 1212 -737 
Q 1344 -625 1503 -206 
L 1606 56 
L 191 3500 
L 800 3500 
L 1894 763 
L 2988 3500 
L 3597 3500 
L 2059 -325 
z
" transform="scale(0.015625)"/>
      </defs>
      <use xlink:href="#DejaVuSans-74"/>
      <use xlink:href="#DejaVuSans-65" x="39.208984"/>
      <use xlink:href="#DejaVuSans-6d" x="100.732422"/>
      <use xlink:href="#DejaVuSans-70" x="198.144531"/>
      <use xlink:href="#DejaVuSans-6f" x="261.621094"/>
      <use xlink:href="#DejaVuSans-20" x="322.802734"/>
      <use xlink:href="#DejaVuSans-70" x="354.589844"/>
      <use xlink:href="#DejaVuSans-65" x="418.066406"/>
      <use xlink:href="#DejaVuSans-72" x="479.589844"/>
      <use xlink:href="#DejaVuSans-20" x="520.703125"/>
      <use xlink:href="#DejaVuSans-71" x="552.490234"/>
      <use xlink:href="#DejaVuSans-75" x="615.966797"/>
      <use xlink:href="#DejaVuSans-65" x="679.345703"/>
      <use xlink:href="#DejaVuSans-72" x="740.869141"/>
      <use xlink:href="#DejaVuSans-79" x="781.982422"/>
      <use xlink:href="#DejaVuSans-20" x="841.162109"/>
      <use xlink:href="#DejaVuSans-28" x="872.949219"/>
      <use xlink:href="#DejaVuSans-73" x="911.962891"/>
      <use xlink:href="#DejaVuSans-29" x="964.0625"/>
     </g>
    </g>
   </g>
   <g id="line2d_14">
    <path d="M 68.414769 256.516045 
L 159.895889 181.080187 
" clip-path="url(#p16111e8aed)" style="fill: none; stroke: #264653; stroke-width: 2.2; stroke-linecap: square"/>
    <defs>
     <path id="m6fd0bdcc3c" d="M 0 4.5 
C 1.193414 4.5 2.338109 4.025852 3.181981 3.181981 
C 4.025852 2.338109 4.5 1.193414 4.5 0 
C 4.5 -1.193414 4.025852 -2.338109 3.181981 -3.181981 
C 2.338109 -4.025852 1.193414 -4.5 0 -4.5 
C -1.193414 -4.5 -2.338109 -4.025852 -3.181981 -3.181981 
C -4.025852 -2.338109 -4.5 -1.193414 -4.5 0 
C -4.5 1.193414 -4.025852 2.338109 -3.181981 3.181981 
C -2.338109 4.025852 -1.193414 4.5 0 4.5 
z
" style="stroke: #264653"/>
    </defs>
    <g clip-path="url(#p16111e8aed)">
     <use xlink:href="#m6fd0bdcc3c" x="68.414769" y="256.516045" style="fill: #264653; stroke: #264653"/>
     <use xlink:href="#m6fd0bdcc3c" x="159.895889" y="181.080187" style="fill: #264653; stroke: #264653"/>
    </g>
   </g>
   <g id="line2d_15">
    <path d="M 68.414769 287.752302 
L 159.895889 263.319396 
" clip-path="url(#p16111e8aed)" style="fill: none; stroke: #e9a000; stroke-width: 2.2; stroke-linecap: square"/>
    <defs>
     <path id="me821d3ca91" d="M -4.5 4.5 
L 4.5 4.5 
L 4.5 -4.5 
L -4.5 -4.5 
z
" style="stroke: #e9a000; stroke-linejoin: miter"/>
    </defs>
    <g clip-path="url(#p16111e8aed)">
     <use xlink:href="#me821d3ca91" x="68.414769" y="287.752302" style="fill: #e9a000; stroke: #e9a000; stroke-linejoin: miter"/>
     <use xlink:href="#me821d3ca91" x="159.895889" y="263.319396" style="fill: #e9a000; stroke: #e9a000; stroke-linejoin: miter"/>
    </g>
   </g>
   <g id="line2d_16">
    <path d="M 159.895889 291.346247 
L 434.339249 57.384902 
" clip-path="url(#p16111e8aed)" style="fill: none; stroke: #2a9d8f; stroke-width: 2.2; stroke-linecap: square"/>
    <defs>
     <path id="m1c57a08bcf" d="M 0 -4.5 
L -4.5 4.5 
L 4.5 4.5 
z
" style="stroke: #2a9d8f; stroke-linejoin: miter"/>
    </defs>
    <g clip-path="url(#p16111e8aed)">
     <use xlink:href="#m1c57a08bcf" x="159.895889" y="291.346247" style="fill: #2a9d8f; stroke: #2a9d8f; stroke-linejoin: miter"/>
     <use xlink:href="#m1c57a08bcf" x="434.339249" y="57.384902" style="fill: #2a9d8f; stroke: #2a9d8f; stroke-linejoin: miter"/>
    </g>
   </g>
   <g id="line2d_17">
    <path d="M 46.965625 270.078378 
L 463.789592 270.078378 
" clip-path="url(#p16111e8aed)" style="fill: none; stroke-dasharray: 1,1.65; stroke-dashoffset: 0; stroke: #c0392b"/>
   </g>
   <g id="patch_3">
    <path d="M 46.965625 314.448062 
L 46.965625 33.440062 
" style="fill: none; stroke: #000000; stroke-width: 0.8; stroke-linejoin: miter; stroke-linecap: square"/>
   </g>
   <g id="patch_4">
    <path d="M 46.965625 314.448062 
L 463.789592 314.448062 
" style="fill: none; stroke: #000000; stroke-width: 0.8; stroke-linejoin: miter; stroke-linecap: square"/>
   </g>
   <g id="text_16">
    <!-- 78s -->
    <g style="fill: #264653" transform="translate(74.414769 249.516045) scale(0.085 -0.085)">
     <defs>
      <path id="DejaVuSans-Bold-37" d="M 428 4666 
L 3944 4666 
L 3944 3988 
L 2125 0 
L 953 0 
L 2675 3781 
L 428 3781 
L 428 4666 
z
" transform="scale(0.015625)"/>
      <path id="DejaVuSans-Bold-38" d="M 2228 2088 
Q 1891 2088 1709 1903 
Q 1528 1719 1528 1375 
Q 1528 1031 1709 848 
Q 1891 666 2228 666 
Q 2563 666 2741 848 
Q 2919 1031 2919 1375 
Q 2919 1722 2741 1905 
Q 2563 2088 2228 2088 
z
M 1350 2484 
Q 925 2613 709 2878 
Q 494 3144 494 3541 
Q 494 4131 934 4440 
Q 1375 4750 2228 4750 
Q 3075 4750 3515 4442 
Q 3956 4134 3956 3541 
Q 3956 3144 3739 2878 
Q 3522 2613 3097 2484 
Q 3572 2353 3814 2058 
Q 4056 1763 4056 1313 
Q 4056 619 3595 264 
Q 3134 -91 2228 -91 
Q 1319 -91 855 264 
Q 391 619 391 1313 
Q 391 1763 633 2058 
Q 875 2353 1350 2484 
z
M 1631 3419 
Q 1631 3141 1786 2991 
Q 1941 2841 2228 2841 
Q 2509 2841 2662 2991 
Q 2816 3141 2816 3419 
Q 2816 3697 2662 3845 
Q 2509 3994 2228 3994 
Q 1941 3994 1786 3844 
Q 1631 3694 1631 3419 
z
" transform="scale(0.015625)"/>
      <path id="DejaVuSans-Bold-73" d="M 3272 3391 
L 3272 2541 
Q 2913 2691 2578 2766 
Q 2244 2841 1947 2841 
Q 1628 2841 1473 2761 
Q 1319 2681 1319 2516 
Q 1319 2381 1436 2309 
Q 1553 2238 1856 2203 
L 2053 2175 
Q 2913 2066 3209 1816 
Q 3506 1566 3506 1031 
Q 3506 472 3093 190 
Q 2681 -91 1863 -91 
Q 1516 -91 1145 -36 
Q 775 19 384 128 
L 384 978 
Q 719 816 1070 734 
Q 1422 653 1784 653 
Q 2113 653 2278 743 
Q 2444 834 2444 1013 
Q 2444 1163 2330 1236 
Q 2216 1309 1875 1350 
L 1678 1375 
Q 931 1469 631 1722 
Q 331 1975 331 2491 
Q 331 3047 712 3315 
Q 1094 3584 1881 3584 
Q 2191 3584 2531 3537 
Q 2872 3491 3272 3391 
z
" transform="scale(0.015625)"/>
     </defs>
     <use xlink:href="#DejaVuSans-Bold-37"/>
     <use xlink:href="#DejaVuSans-Bold-38" x="69.580078"/>
     <use xlink:href="#DejaVuSans-Bold-73" x="139.160156"/>
    </g>
   </g>
   <g id="text_17">
    <!-- 180s -->
    <g style="fill: #264653" transform="translate(165.895889 174.080187) scale(0.085 -0.085)">
     <defs>
      <path id="DejaVuSans-Bold-31" d="M 750 831 
L 1813 831 
L 1813 3847 
L 722 3622 
L 722 4441 
L 1806 4666 
L 2950 4666 
L 2950 831 
L 4013 831 
L 4013 0 
L 750 0 
L 750 831 
z
" transform="scale(0.015625)"/>
      <path id="DejaVuSans-Bold-30" d="M 2944 2338 
Q 2944 3213 2780 3570 
Q 2616 3928 2228 3928 
Q 1841 3928 1675 3570 
Q 1509 3213 1509 2338 
Q 1509 1453 1675 1090 
Q 1841 728 2228 728 
Q 2613 728 2778 1090 
Q 2944 1453 2944 2338 
z
M 4147 2328 
Q 4147 1169 3647 539 
Q 3147 -91 2228 -91 
Q 1306 -91 806 539 
Q 306 1169 306 2328 
Q 306 3491 806 4120 
Q 1306 4750 2228 4750 
Q 3147 4750 3647 4120 
Q 4147 3491 4147 2328 
z
" transform="scale(0.015625)"/>
     </defs>
     <use xlink:href="#DejaVuSans-Bold-31"/>
     <use xlink:href="#DejaVuSans-Bold-38" x="69.580078"/>
     <use xlink:href="#DejaVuSans-Bold-30" x="139.160156"/>
     <use xlink:href="#DejaVuSans-Bold-73" x="208.740234"/>
    </g>
   </g>
   <g id="text_18">
    <!-- 36s -->
    <g style="fill: #e9a000" transform="translate(74.414769 280.752303) scale(0.085 -0.085)">
     <defs>
      <path id="DejaVuSans-Bold-33" d="M 2981 2516 
Q 3453 2394 3698 2092 
Q 3944 1791 3944 1325 
Q 3944 631 3412 270 
Q 2881 -91 1863 -91 
Q 1503 -91 1142 -33 
Q 781 25 428 141 
L 428 1069 
Q 766 900 1098 814 
Q 1431 728 1753 728 
Q 2231 728 2486 893 
Q 2741 1059 2741 1369 
Q 2741 1688 2480 1852 
Q 2219 2016 1709 2016 
L 1228 2016 
L 1228 2791 
L 1734 2791 
Q 2188 2791 2409 2933 
Q 2631 3075 2631 3366 
Q 2631 3634 2415 3781 
Q 2200 3928 1806 3928 
Q 1516 3928 1219 3862 
Q 922 3797 628 3669 
L 628 4550 
Q 984 4650 1334 4700 
Q 1684 4750 2022 4750 
Q 2931 4750 3382 4451 
Q 3834 4153 3834 3553 
Q 3834 3144 3618 2883 
Q 3403 2622 2981 2516 
z
" transform="scale(0.015625)"/>
      <path id="DejaVuSans-Bold-36" d="M 2316 2303 
Q 2000 2303 1842 2098 
Q 1684 1894 1684 1484 
Q 1684 1075 1842 870 
Q 2000 666 2316 666 
Q 2634 666 2792 870 
Q 2950 1075 2950 1484 
Q 2950 1894 2792 2098 
Q 2634 2303 2316 2303 
z
M 3803 4544 
L 3803 3681 
Q 3506 3822 3243 3889 
Q 2981 3956 2731 3956 
Q 2194 3956 1894 3657 
Q 1594 3359 1544 2772 
Q 1750 2925 1990 3001 
Q 2231 3078 2516 3078 
Q 3231 3078 3670 2659 
Q 4109 2241 4109 1563 
Q 4109 813 3618 361 
Q 3128 -91 2303 -91 
Q 1394 -91 895 523 
Q 397 1138 397 2266 
Q 397 3422 980 4083 
Q 1563 4744 2578 4744 
Q 2900 4744 3203 4694 
Q 3506 4644 3803 4544 
z
" transform="scale(0.015625)"/>
     </defs>
     <use xlink:href="#DejaVuSans-Bold-33"/>
     <use xlink:href="#DejaVuSans-Bold-36" x="69.580078"/>
     <use xlink:href="#DejaVuSans-Bold-73" x="139.160156"/>
    </g>
   </g>
   <g id="text_19">
    <!-- 69s -->
    <g style="fill: #e9a000" transform="translate(165.895889 256.319396) scale(0.085 -0.085)">
     <defs>
      <path id="DejaVuSans-Bold-39" d="M 641 103 
L 641 966 
Q 928 831 1190 764 
Q 1453 697 1709 697 
Q 2247 697 2547 995 
Q 2847 1294 2900 1881 
Q 2688 1725 2447 1647 
Q 2206 1569 1925 1569 
Q 1209 1569 770 1986 
Q 331 2403 331 3084 
Q 331 3838 820 4291 
Q 1309 4744 2131 4744 
Q 3044 4744 3544 4128 
Q 4044 3513 4044 2388 
Q 4044 1231 3459 570 
Q 2875 -91 1856 -91 
Q 1528 -91 1228 -42 
Q 928 6 641 103 
z
M 2125 2350 
Q 2441 2350 2600 2554 
Q 2759 2759 2759 3169 
Q 2759 3575 2600 3781 
Q 2441 3988 2125 3988 
Q 1809 3988 1650 3781 
Q 1491 3575 1491 3169 
Q 1491 2759 1650 2554 
Q 1809 2350 2125 2350 
z
" transform="scale(0.015625)"/>
     </defs>
     <use xlink:href="#DejaVuSans-Bold-36"/>
     <use xlink:href="#DejaVuSans-Bold-39" x="69.580078"/>
     <use xlink:href="#DejaVuSans-Bold-73" x="139.160156"/>
    </g>
   </g>
   <g id="text_20">
    <!-- 31s -->
    <g style="fill: #2a9d8f" transform="translate(165.895889 284.346247) scale(0.085 -0.085)">
     <use xlink:href="#DejaVuSans-Bold-33"/>
     <use xlink:href="#DejaVuSans-Bold-31" x="69.580078"/>
     <use xlink:href="#DejaVuSans-Bold-73" x="139.160156"/>
    </g>
   </g>
   <g id="text_21">
    <!-- 348s -->
    <g style="fill: #2a9d8f" transform="translate(440.339249 50.384902) scale(0.085 -0.085)">
     <defs>
      <path id="DejaVuSans-Bold-34" d="M 2356 3675 
L 1038 1722 
L 2356 1722 
L 2356 3675 
z
M 2156 4666 
L 3494 4666 
L 3494 1722 
L 4159 1722 
L 4159 850 
L 3494 850 
L 3494 0 
L 2356 0 
L 2356 850 
L 288 850 
L 288 1881 
L 2156 4666 
z
" transform="scale(0.015625)"/>
     </defs>
     <use xlink:href="#DejaVuSans-Bold-33"/>
     <use xlink:href="#DejaVuSans-Bold-34" x="69.580078"/>
     <use xlink:href="#DejaVuSans-Bold-38" x="139.160156"/>
     <use xlink:href="#DejaVuSans-Bold-73" x="208.740234"/>
    </g>
   </g>
   <g id="text_22">
    <!-- 1 minuto -->
    <g style="fill: #c0392b" transform="translate(400.343051 267.120399) scale(0.085 -0.085)">
     <use xlink:href="#DejaVuSans-31"/>
     <use xlink:href="#DejaVuSans-20" x="63.623047"/>
     <use xlink:href="#DejaVuSans-6d" x="95.410156"/>
     <use xlink:href="#DejaVuSans-69" x="192.822266"/>
     <use xlink:href="#DejaVuSans-6e" x="220.605469"/>
     <use xlink:href="#DejaVuSans-75" x="283.984375"/>
     <use xlink:href="#DejaVuSans-74" x="347.363281"/>
     <use xlink:href="#DejaVuSans-6f" x="386.572266"/>
    </g>
   </g>
   <g id="text_23">
    <!-- Match privato sul server: lento e ~lineare in N -->
    <g transform="translate(134.056671 15.178359) scale(0.105 -0.105)">
     <defs>
      <path id="DejaVuSans-4d" d="M 628 4666 
L 1569 4666 
L 2759 1491 
L 3956 4666 
L 4897 4666 
L 4897 0 
L 4281 0 
L 4281 4097 
L 3078 897 
L 2444 897 
L 1241 4097 
L 1241 0 
L 628 0 
L 628 4666 
z
" transform="scale(0.015625)"/>
      <path id="DejaVuSans-68" d="M 3513 2113 
L 3513 0 
L 2938 0 
L 2938 2094 
Q 2938 2591 2744 2837 
Q 2550 3084 2163 3084 
Q 1697 3084 1428 2787 
Q 1159 2491 1159 1978 
L 1159 0 
L 581 0 
L 581 4863 
L 1159 4863 
L 1159 2956 
Q 1366 3272 1645 3428 
Q 1925 3584 2291 3584 
Q 2894 3584 3203 3211 
Q 3513 2838 3513 2113 
z
" transform="scale(0.015625)"/>
      <path id="DejaVuSans-76" d="M 191 3500 
L 800 3500 
L 1894 563 
L 2988 3500 
L 3597 3500 
L 2284 0 
L 1503 0 
L 191 3500 
z
" transform="scale(0.015625)"/>
      <path id="DejaVuSans-3a" d="M 750 794 
L 1409 794 
L 1409 0 
L 750 0 
L 750 794 
z
M 750 3309 
L 1409 3309 
L 1409 2516 
L 750 2516 
L 750 3309 
z
" transform="scale(0.015625)"/>
      <path id="DejaVuSans-7e" d="M 4684 2553 
L 4684 1997 
Q 4356 1750 4076 1644 
Q 3797 1538 3494 1538 
Q 3150 1538 2694 1722 
Q 2659 1734 2644 1741 
Q 2622 1750 2575 1766 
Q 2091 1959 1797 1959 
Q 1522 1959 1253 1839 
Q 984 1719 678 1459 
L 678 2016 
Q 1006 2263 1286 2370 
Q 1566 2478 1869 2478 
Q 2213 2478 2672 2291 
Q 2703 2278 2719 2272 
Q 2744 2263 2788 2247 
Q 3272 2053 3566 2053 
Q 3834 2053 4098 2172 
Q 4363 2291 4684 2553 
z
" transform="scale(0.015625)"/>
     </defs>
     <use xlink:href="#DejaVuSans-4d"/>
     <use xlink:href="#DejaVuSans-61" x="86.279297"/>
     <use xlink:href="#DejaVuSans-74" x="147.558594"/>
     <use xlink:href="#DejaVuSans-63" x="186.767578"/>
     <use xlink:href="#DejaVuSans-68" x="241.748047"/>
     <use xlink:href="#DejaVuSans-20" x="305.126953"/>
     <use xlink:href="#DejaVuSans-70" x="336.914062"/>
     <use xlink:href="#DejaVuSans-72" x="400.390625"/>
     <use xlink:href="#DejaVuSans-69" x="441.503906"/>
     <use xlink:href="#DejaVuSans-76" x="469.287109"/>
     <use xlink:href="#DejaVuSans-61" x="528.466797"/>
     <use xlink:href="#DejaVuSans-74" x="589.746094"/>
     <use xlink:href="#DejaVuSans-6f" x="628.955078"/>
     <use xlink:href="#DejaVuSans-20" x="690.136719"/>
     <use xlink:href="#DejaVuSans-73" x="721.923828"/>
     <use xlink:href="#DejaVuSans-75" x="774.023438"/>
     <use xlink:href="#DejaVuSans-6c" x="837.402344"/>
     <use xlink:href="#DejaVuSans-20" x="865.185547"/>
     <use xlink:href="#DejaVuSans-73" x="896.972656"/>
     <use xlink:href="#DejaVuSans-65" x="949.072266"/>
     <use xlink:href="#DejaVuSans-72" x="1010.595703"/>
     <use xlink:href="#DejaVuSans-76" x="1051.708984"/>
     <use xlink:href="#DejaVuSans-65" x="1110.888672"/>
     <use xlink:href="#DejaVuSans-72" x="1172.412109"/>
     <use xlink:href="#DejaVuSans-3a" x="1211.775391"/>
     <use xlink:href="#DejaVuSans-20" x="1245.466797"/>
     <use xlink:href="#DejaVuSans-6c" x="1277.253906"/>
     <use xlink:href="#DejaVuSans-65" x="1305.037109"/>
     <use xlink:href="#DejaVuSans-6e" x="1366.560547"/>
     <use xlink:href="#DejaVuSans-74" x="1429.939453"/>
     <use xlink:href="#DejaVuSans-6f" x="1469.148438"/>
     <use xlink:href="#DejaVuSans-20" x="1530.330078"/>
     <use xlink:href="#DejaVuSans-65" x="1562.117188"/>
     <use xlink:href="#DejaVuSans-20" x="1623.640625"/>
     <use xlink:href="#DejaVuSans-7e" x="1655.427734"/>
     <use xlink:href="#DejaVuSans-6c" x="1739.216797"/>
     <use xlink:href="#DejaVuSans-69" x="1767"/>
     <use xlink:href="#DejaVuSans-6e" x="1794.783203"/>
     <use xlink:href="#DejaVuSans-65" x="1858.162109"/>
     <use xlink:href="#DejaVuSans-61" x="1919.685547"/>
     <use xlink:href="#DejaVuSans-72" x="1980.964844"/>
     <use xlink:href="#DejaVuSans-65" x="2019.828125"/>
     <use xlink:href="#DejaVuSans-20" x="2081.351562"/>
     <use xlink:href="#DejaVuSans-69" x="2113.138672"/>
     <use xlink:href="#DejaVuSans-6e" x="2140.921875"/>
     <use xlink:href="#DejaVuSans-20" x="2204.300781"/>
     <use xlink:href="#DejaVuSans-4e" x="2236.087891"/>
    </g>
    <!-- (la soglia è la più economica, ma non spezza la legge) -->
    <g transform="translate(112.781866 27.440063) scale(0.105 -0.105)">
     <defs>
      <path id="DejaVuSans-e8" d="M 3597 1894 
L 3597 1613 
L 953 1613 
Q 991 1019 1311 708 
Q 1631 397 2203 397 
Q 2534 397 2845 478 
Q 3156 559 3463 722 
L 3463 178 
Q 3153 47 2828 -22 
Q 2503 -91 2169 -91 
Q 1331 -91 842 396 
Q 353 884 353 1716 
Q 353 2575 817 3079 
Q 1281 3584 2069 3584 
Q 2775 3584 3186 3129 
Q 3597 2675 3597 1894 
z
M 3022 2063 
Q 3016 2534 2758 2815 
Q 2500 3097 2075 3097 
Q 1594 3097 1305 2825 
Q 1016 2553 972 2059 
L 3022 2063 
z
M 1579 5119 
L 2460 3950 
L 1982 3950 
L 963 5119 
L 1579 5119 
z
" transform="scale(0.015625)"/>
      <path id="DejaVuSans-f9" d="M 544 1381 
L 544 3500 
L 1119 3500 
L 1119 1403 
Q 1119 906 1312 657 
Q 1506 409 1894 409 
Q 2359 409 2629 706 
Q 2900 1003 2900 1516 
L 2900 3500 
L 3475 3500 
L 3475 0 
L 2900 0 
L 2900 538 
Q 2691 219 2414 64 
Q 2138 -91 1772 -91 
Q 1169 -91 856 284 
Q 544 659 544 1381 
z
M 1991 3584 
L 1991 3584 
z
M 1531 5119 
L 2412 3950 
L 1934 3950 
L 915 5119 
L 1531 5119 
z
" transform="scale(0.015625)"/>
      <path id="DejaVuSans-2c" d="M 750 794 
L 1409 794 
L 1409 256 
L 897 -744 
L 494 -744 
L 750 256 
L 750 794 
z
" transform="scale(0.015625)"/>
      <path id="DejaVuSans-7a" d="M 353 3500 
L 3084 3500 
L 3084 2975 
L 922 459 
L 3084 459 
L 3084 0 
L 275 0 
L 275 525 
L 2438 3041 
L 353 3041 
L 353 3500 
z
" transform="scale(0.015625)"/>
     </defs>
     <use xlink:href="#DejaVuSans-28"/>
     <use xlink:href="#DejaVuSans-6c" x="39.013672"/>
     <use xlink:href="#DejaVuSans-61" x="66.796875"/>
     <use xlink:href="#DejaVuSans-20" x="128.076172"/>
     <use xlink:href="#DejaVuSans-73" x="159.863281"/>
     <use xlink:href="#DejaVuSans-6f" x="211.962891"/>
     <use xlink:href="#DejaVuSans-67" x="273.144531"/>
     <use xlink:href="#DejaVuSans-6c" x="336.621094"/>
     <use xlink:href="#DejaVuSans-69" x="364.404297"/>
     <use xlink:href="#DejaVuSans-61" x="392.1875"/>
     <use xlink:href="#DejaVuSans-20" x="453.466797"/>
     <use xlink:href="#DejaVuSans-e8" x="485.253906"/>
     <use xlink:href="#DejaVuSans-20" x="546.777344"/>
     <use xlink:href="#DejaVuSans-6c" x="578.564453"/>
     <use xlink:href="#DejaVuSans-61" x="606.347656"/>
     <use xlink:href="#DejaVuSans-20" x="667.626953"/>
     <use xlink:href="#DejaVuSans-70" x="699.414062"/>
     <use xlink:href="#DejaVuSans-69" x="762.890625"/>
     <use xlink:href="#DejaVuSans-f9" x="790.673828"/>
     <use xlink:href="#DejaVuSans-20" x="854.052734"/>
     <use xlink:href="#DejaVuSans-65" x="885.839844"/>
     <use xlink:href="#DejaVuSans-63" x="947.363281"/>
     <use xlink:href="#DejaVuSans-6f" x="1002.34375"/>
     <use xlink:href="#DejaVuSans-6e" x="1063.525391"/>
     <use xlink:href="#DejaVuSans-6f" x="1126.904297"/>
     <use xlink:href="#DejaVuSans-6d" x="1188.085938"/>
     <use xlink:href="#DejaVuSans-69" x="1285.498047"/>
     <use xlink:href="#DejaVuSans-63" x="1313.28125"/>
     <use xlink:href="#DejaVuSans-61" x="1368.261719"/>
     <use xlink:href="#DejaVuSans-2c" x="1429.541016"/>
     <use xlink:href="#DejaVuSans-20" x="1461.328125"/>
     <use xlink:href="#DejaVuSans-6d" x="1493.115234"/>
     <use xlink:href="#DejaVuSans-61" x="1590.527344"/>
     <use xlink:href="#DejaVuSans-20" x="1651.806641"/>
     <use xlink:href="#DejaVuSans-6e" x="1683.59375"/>
     <use xlink:href="#DejaVuSans-6f" x="1746.972656"/>
     <use xlink:href="#DejaVuSans-6e" x="1808.154297"/>
     <use xlink:href="#DejaVuSans-20" x="1871.533203"/>
     <use xlink:href="#DejaVuSans-73" x="1903.320312"/>
     <use xlink:href="#DejaVuSans-70" x="1955.419922"/>
     <use xlink:href="#DejaVuSans-65" x="2018.896484"/>
     <use xlink:href="#DejaVuSans-7a" x="2080.419922"/>
     <use xlink:href="#DejaVuSans-7a" x="2132.910156"/>
     <use xlink:href="#DejaVuSans-61" x="2185.400391"/>
     <use xlink:href="#DejaVuSans-20" x="2246.679688"/>
     <use xlink:href="#DejaVuSans-6c" x="2278.466797"/>
     <use xlink:href="#DejaVuSans-61" x="2306.25"/>
     <use xlink:href="#DejaVuSans-20" x="2367.529297"/>
     <use xlink:href="#DejaVuSans-6c" x="2399.316406"/>
     <use xlink:href="#DejaVuSans-65" x="2427.099609"/>
     <use xlink:href="#DejaVuSans-67" x="2488.623047"/>
     <use xlink:href="#DejaVuSans-67" x="2552.099609"/>
     <use xlink:href="#DejaVuSans-65" x="2615.576172"/>
     <use xlink:href="#DejaVuSans-29" x="2677.099609"/>
    </g>
   </g>
   <g id="legend_1">
    <g id="line2d_18">
     <path d="M 55.065625 45.228656 
L 64.065625 45.228656 
L 73.065625 45.228656 
" style="fill: none; stroke: #264653; stroke-width: 2.2; stroke-linecap: square"/>
     <g>
      <use xlink:href="#m6fd0bdcc3c" x="64.065625" y="45.228656" style="fill: #264653; stroke: #264653"/>
     </g>
    </g>
    <g id="text_24">
     <!-- argmin sequenziale -->
     <g transform="translate(80.265625 48.378656) scale(0.09 -0.09)">
      <use xlink:href="#DejaVuSans-61"/>
      <use xlink:href="#DejaVuSans-72" x="61.279297"/>
      <use xlink:href="#DejaVuSans-67" x="100.642578"/>
      <use xlink:href="#DejaVuSans-6d" x="164.119141"/>
      <use xlink:href="#DejaVuSans-69" x="261.53125"/>
      <use xlink:href="#DejaVuSans-6e" x="289.314453"/>
      <use xlink:href="#DejaVuSans-20" x="352.693359"/>
      <use xlink:href="#DejaVuSans-73" x="384.480469"/>
      <use xlink:href="#DejaVuSans-65" x="436.580078"/>
      <use xlink:href="#DejaVuSans-71" x="498.103516"/>
      <use xlink:href="#DejaVuSans-75" x="561.580078"/>
      <use xlink:href="#DejaVuSans-65" x="624.958984"/>
      <use xlink:href="#DejaVuSans-6e" x="686.482422"/>
      <use xlink:href="#DejaVuSans-7a" x="749.861328"/>
      <use xlink:href="#DejaVuSans-69" x="802.351562"/>
      <use xlink:href="#DejaVuSans-61" x="830.134766"/>
      <use xlink:href="#DejaVuSans-6c" x="891.414062"/>
      <use xlink:href="#DejaVuSans-65" x="919.197266"/>
     </g>
    </g>
    <g id="line2d_19">
     <path d="M 55.065625 58.438969 
L 64.065625 58.438969 
L 73.065625 58.438969 
" style="fill: none; stroke: #e9a000; stroke-width: 2.2; stroke-linecap: square"/>
     <g>
      <use xlink:href="#me821d3ca91" x="64.065625" y="58.438969" style="fill: #e9a000; stroke: #e9a000; stroke-linejoin: miter"/>
     </g>
    </g>
    <g id="text_25">
     <!-- argmin a torneo -->
     <g transform="translate(80.265625 61.588969) scale(0.09 -0.09)">
      <use xlink:href="#DejaVuSans-61"/>
      <use xlink:href="#DejaVuSans-72" x="61.279297"/>
      <use xlink:href="#DejaVuSans-67" x="100.642578"/>
      <use xlink:href="#DejaVuSans-6d" x="164.119141"/>
      <use xlink:href="#DejaVuSans-69" x="261.53125"/>
      <use xlink:href="#DejaVuSans-6e" x="289.314453"/>
      <use xlink:href="#DejaVuSans-20" x="352.693359"/>
      <use xlink:href="#DejaVuSans-61" x="384.480469"/>
      <use xlink:href="#DejaVuSans-20" x="445.759766"/>
      <use xlink:href="#DejaVuSans-74" x="477.546875"/>
      <use xlink:href="#DejaVuSans-6f" x="516.755859"/>
      <use xlink:href="#DejaVuSans-72" x="577.9375"/>
      <use xlink:href="#DejaVuSans-6e" x="617.300781"/>
      <use xlink:href="#DejaVuSans-65" x="680.679688"/>
      <use xlink:href="#DejaVuSans-6f" x="742.203125"/>
     </g>
    </g>
    <g id="line2d_20">
     <path d="M 55.065625 71.649281 
L 64.065625 71.649281 
L 73.065625 71.649281 
" style="fill: none; stroke: #2a9d8f; stroke-width: 2.2; stroke-linecap: square"/>
     <g>
      <use xlink:href="#m1c57a08bcf" x="64.065625" y="71.649281" style="fill: #2a9d8f; stroke: #2a9d8f; stroke-linejoin: miter"/>
     </g>
    </g>
    <g id="text_26">
     <!-- varco a soglia (1 bit) -->
     <g transform="translate(80.265625 74.799281) scale(0.09 -0.09)">
      <defs>
       <path id="DejaVuSans-62" d="M 3116 1747 
Q 3116 2381 2855 2742 
Q 2594 3103 2138 3103 
Q 1681 3103 1420 2742 
Q 1159 2381 1159 1747 
Q 1159 1113 1420 752 
Q 1681 391 2138 391 
Q 2594 391 2855 752 
Q 3116 1113 3116 1747 
z
M 1159 2969 
Q 1341 3281 1617 3432 
Q 1894 3584 2278 3584 
Q 2916 3584 3314 3078 
Q 3713 2572 3713 1747 
Q 3713 922 3314 415 
Q 2916 -91 2278 -91 
Q 1894 -91 1617 61 
Q 1341 213 1159 525 
L 1159 0 
L 581 0 
L 581 4863 
L 1159 4863 
L 1159 2969 
z
" transform="scale(0.015625)"/>
      </defs>
      <use xlink:href="#DejaVuSans-76"/>
      <use xlink:href="#DejaVuSans-61" x="59.179688"/>
      <use xlink:href="#DejaVuSans-72" x="120.458984"/>
      <use xlink:href="#DejaVuSans-63" x="159.322266"/>
      <use xlink:href="#DejaVuSans-6f" x="214.302734"/>
      <use xlink:href="#DejaVuSans-20" x="275.484375"/>
      <use xlink:href="#DejaVuSans-61" x="307.271484"/>
      <use xlink:href="#DejaVuSans-20" x="368.550781"/>
      <use xlink:href="#DejaVuSans-73" x="400.337891"/>
      <use xlink:href="#DejaVuSans-6f" x="452.4375"/>
      <use xlink:href="#DejaVuSans-67" x="513.619141"/>
      <use xlink:href="#DejaVuSans-6c" x="577.095703"/>
      <use xlink:href="#DejaVuSans-69" x="604.878906"/>
      <use xlink:href="#DejaVuSans-61" x="632.662109"/>
      <use xlink:href="#DejaVuSans-20" x="693.941406"/>
      <use xlink:href="#DejaVuSans-28" x="725.728516"/>
      <use xlink:href="#DejaVuSans-31" x="764.742188"/>
      <use xlink:href="#DejaVuSans-20" x="828.365234"/>
      <use xlink:href="#DejaVuSans-62" x="860.152344"/>
      <use xlink:href="#DejaVuSans-69" x="923.628906"/>
      <use xlink:href="#DejaVuSans-74" x="951.412109"/>
      <use xlink:href="#DejaVuSans-29" x="990.621094"/>
     </g>
    </g>
   </g>
  </g>
  <g id="axes_2">
   <g id="patch_5">
    <path d="M 525.650821 314.448062 
L 813.115625 314.448062 
L 813.115625 33.440062 
L 525.650821 33.440062 
z
" style="fill: #ffffff"/>
   </g>
   <g id="patch_6">
    <path d="M 538.717403 314.448062 
L 631.447985 314.448062 
L 631.447985 286.796875 
L 538.717403 286.796875 
z
" clip-path="url(#p2dfa59a211)" style="fill: #264653; stroke: #ffffff; stroke-linejoin: miter"/>
   </g>
   <g id="patch_7">
    <path d="M 707.318461 314.448062 
L 800.049043 314.448062 
L 800.049043 71.207538 
L 707.318461 71.207538 
z
" clip-path="url(#p2dfa59a211)" style="fill: #e76f51; stroke: #ffffff; stroke-linejoin: miter"/>
   </g>
   <g id="matplotlib.axis_3">
    <g id="xtick_6">
     <g id="line2d_21">
      <g>
       <use xlink:href="#mc0b4c42913" x="585.082694" y="314.448062" style="stroke: #000000; stroke-width: 0.8"/>
      </g>
     </g>
     <g id="text_27">
      <!-- CPU -->
      <g transform="translate(574.917069 329.0465) scale(0.1 -0.1)">
       <defs>
        <path id="DejaVuSans-43" d="M 4122 4306 
L 4122 3641 
Q 3803 3938 3442 4084 
Q 3081 4231 2675 4231 
Q 1875 4231 1450 3742 
Q 1025 3253 1025 2328 
Q 1025 1406 1450 917 
Q 1875 428 2675 428 
Q 3081 428 3442 575 
Q 3803 722 4122 1019 
L 4122 359 
Q 3791 134 3420 21 
Q 3050 -91 2638 -91 
Q 1578 -91 968 557 
Q 359 1206 359 2328 
Q 359 3453 968 4101 
Q 1578 4750 2638 4750 
Q 3056 4750 3426 4639 
Q 3797 4528 4122 4306 
z
" transform="scale(0.015625)"/>
        <path id="DejaVuSans-50" d="M 1259 4147 
L 1259 2394 
L 2053 2394 
Q 2494 2394 2734 2622 
Q 2975 2850 2975 3272 
Q 2975 3691 2734 3919 
Q 2494 4147 2053 4147 
L 1259 4147 
z
M 628 4666 
L 2053 4666 
Q 2838 4666 3239 4311 
Q 3641 3956 3641 3272 
Q 3641 2581 3239 2228 
Q 2838 1875 2053 1875 
L 1259 1875 
L 1259 0 
L 628 0 
L 628 4666 
z
" transform="scale(0.015625)"/>
        <path id="DejaVuSans-55" d="M 556 4666 
L 1191 4666 
L 1191 1831 
Q 1191 1081 1462 751 
Q 1734 422 2344 422 
Q 2950 422 3222 751 
Q 3494 1081 3494 1831 
L 3494 4666 
L 4128 4666 
L 4128 1753 
Q 4128 841 3676 375 
Q 3225 -91 2344 -91 
Q 1459 -91 1007 375 
Q 556 841 556 1753 
L 556 4666 
z
" transform="scale(0.015625)"/>
       </defs>
       <use xlink:href="#DejaVuSans-43"/>
       <use xlink:href="#DejaVuSans-50" x="69.824219"/>
       <use xlink:href="#DejaVuSans-55" x="130.126953"/>
      </g>
      <!-- (M4 Max) -->
      <g transform="translate(561.759256 340.244313) scale(0.1 -0.1)">
       <defs>
        <path id="DejaVuSans-78" d="M 3513 3500 
L 2247 1797 
L 3578 0 
L 2900 0 
L 1881 1375 
L 863 0 
L 184 0 
L 1544 1831 
L 300 3500 
L 978 3500 
L 1906 2253 
L 2834 3500 
L 3513 3500 
z
" transform="scale(0.015625)"/>
       </defs>
       <use xlink:href="#DejaVuSans-28"/>
       <use xlink:href="#DejaVuSans-4d" x="39.013672"/>
       <use xlink:href="#DejaVuSans-34" x="125.292969"/>
       <use xlink:href="#DejaVuSans-20" x="188.916016"/>
       <use xlink:href="#DejaVuSans-4d" x="220.703125"/>
       <use xlink:href="#DejaVuSans-61" x="306.982422"/>
       <use xlink:href="#DejaVuSans-78" x="368.261719"/>
       <use xlink:href="#DejaVuSans-29" x="427.441406"/>
      </g>
     </g>
    </g>
    <g id="xtick_7">
     <g id="line2d_22">
      <g>
       <use xlink:href="#mc0b4c42913" x="753.683752" y="314.448062" style="stroke: #000000; stroke-width: 0.8"/>
      </g>
     </g>
     <g id="text_28">
      <!-- GPU -->
      <g transform="translate(743.135314 329.0465) scale(0.1 -0.1)">
       <defs>
        <path id="DejaVuSans-47" d="M 3809 666 
L 3809 1919 
L 2778 1919 
L 2778 2438 
L 4434 2438 
L 4434 434 
Q 4069 175 3628 42 
Q 3188 -91 2688 -91 
Q 1594 -91 976 548 
Q 359 1188 359 2328 
Q 359 3472 976 4111 
Q 1594 4750 2688 4750 
Q 3144 4750 3555 4637 
Q 3966 4525 4313 4306 
L 4313 3634 
Q 3963 3931 3569 4081 
Q 3175 4231 2741 4231 
Q 1884 4231 1454 3753 
Q 1025 3275 1025 2328 
Q 1025 1384 1454 906 
Q 1884 428 2741 428 
Q 3075 428 3337 486 
Q 3600 544 3809 666 
z
" transform="scale(0.015625)"/>
       </defs>
       <use xlink:href="#DejaVuSans-47"/>
       <use xlink:href="#DejaVuSans-50" x="77.490234"/>
       <use xlink:href="#DejaVuSans-55" x="137.792969"/>
      </g>
      <!-- (Tesla T4) -->
      <g transform="translate(729.619689 340.244313) scale(0.1 -0.1)">
       <defs>
        <path id="DejaVuSans-54" d="M -19 4666 
L 3928 4666 
L 3928 4134 
L 2272 4134 
L 2272 0 
L 1638 0 
L 1638 4134 
L -19 4134 
L -19 4666 
z
" transform="scale(0.015625)"/>
       </defs>
       <use xlink:href="#DejaVuSans-28"/>
       <use xlink:href="#DejaVuSans-54" x="39.013672"/>
       <use xlink:href="#DejaVuSans-65" x="83.097656"/>
       <use xlink:href="#DejaVuSans-73" x="144.621094"/>
       <use xlink:href="#DejaVuSans-6c" x="196.720703"/>
       <use xlink:href="#DejaVuSans-61" x="224.503906"/>
       <use xlink:href="#DejaVuSans-20" x="285.783203"/>
       <use xlink:href="#DejaVuSans-54" x="317.570312"/>
       <use xlink:href="#DejaVuSans-34" x="378.654297"/>
       <use xlink:href="#DejaVuSans-29" x="442.277344"/>
      </g>
     </g>
    </g>
   </g>
   <g id="matplotlib.axis_4">
    <g id="ytick_9">
     <g id="line2d_23">
      <g>
       <use xlink:href="#me73c331b82" x="525.650821" y="314.448062" style="stroke: #000000; stroke-width: 0.8"/>
      </g>
     </g>
     <g id="text_29">
      <!-- 0 -->
      <g transform="translate(512.288321 318.247281) scale(0.1 -0.1)">
       <use xlink:href="#DejaVuSans-30"/>
      </g>
     </g>
    </g>
    <g id="ytick_10">
     <g id="line2d_24">
      <g>
       <use xlink:href="#me73c331b82" x="525.650821" y="269.486783" style="stroke: #000000; stroke-width: 0.8"/>
      </g>
     </g>
     <g id="text_30">
      <!-- 200 -->
      <g transform="translate(499.563321 273.286001) scale(0.1 -0.1)">
       <use xlink:href="#DejaVuSans-32"/>
       <use xlink:href="#DejaVuSans-30" x="63.623047"/>
       <use xlink:href="#DejaVuSans-30" x="127.246094"/>
      </g>
     </g>
    </g>
    <g id="ytick_11">
     <g id="line2d_25">
      <g>
       <use xlink:href="#me73c331b82" x="525.650821" y="224.525502" style="stroke: #000000; stroke-width: 0.8"/>
      </g>
     </g>
     <g id="text_31">
      <!-- 400 -->
      <g transform="translate(499.563321 228.324721) scale(0.1 -0.1)">
       <use xlink:href="#DejaVuSans-34"/>
       <use xlink:href="#DejaVuSans-30" x="63.623047"/>
       <use xlink:href="#DejaVuSans-30" x="127.246094"/>
      </g>
     </g>
    </g>
    <g id="ytick_12">
     <g id="line2d_26">
      <g>
       <use xlink:href="#me73c331b82" x="525.650821" y="179.564222" style="stroke: #000000; stroke-width: 0.8"/>
      </g>
     </g>
     <g id="text_32">
      <!-- 600 -->
      <g transform="translate(499.563321 183.363441) scale(0.1 -0.1)">
       <use xlink:href="#DejaVuSans-36"/>
       <use xlink:href="#DejaVuSans-30" x="63.623047"/>
       <use xlink:href="#DejaVuSans-30" x="127.246094"/>
      </g>
     </g>
    </g>
    <g id="ytick_13">
     <g id="line2d_27">
      <g>
       <use xlink:href="#me73c331b82" x="525.650821" y="134.602942" style="stroke: #000000; stroke-width: 0.8"/>
      </g>
     </g>
     <g id="text_33">
      <!-- 800 -->
      <g transform="translate(499.563321 138.402161) scale(0.1 -0.1)">
       <use xlink:href="#DejaVuSans-38"/>
       <use xlink:href="#DejaVuSans-30" x="63.623047"/>
       <use xlink:href="#DejaVuSans-30" x="127.246094"/>
      </g>
     </g>
    </g>
    <g id="ytick_14">
     <g id="line2d_28">
      <g>
       <use xlink:href="#me73c331b82" x="525.650821" y="89.641662" style="stroke: #000000; stroke-width: 0.8"/>
      </g>
     </g>
     <g id="text_34">
      <!-- 1000 -->
      <g transform="translate(493.200821 93.440881) scale(0.1 -0.1)">
       <use xlink:href="#DejaVuSans-31"/>
       <use xlink:href="#DejaVuSans-30" x="63.623047"/>
       <use xlink:href="#DejaVuSans-30" x="127.246094"/>
       <use xlink:href="#DejaVuSans-30" x="190.869141"/>
      </g>
     </g>
    </g>
    <g id="ytick_15">
     <g id="line2d_29">
      <g>
       <use xlink:href="#me73c331b82" x="525.650821" y="44.680382" style="stroke: #000000; stroke-width: 0.8"/>
      </g>
     </g>
     <g id="text_35">
      <!-- 1200 -->
      <g transform="translate(493.200821 48.479601) scale(0.1 -0.1)">
       <use xlink:href="#DejaVuSans-31"/>
       <use xlink:href="#DejaVuSans-32" x="63.623047"/>
       <use xlink:href="#DejaVuSans-30" x="127.246094"/>
       <use xlink:href="#DejaVuSans-30" x="190.869141"/>
      </g>
     </g>
    </g>
    <g id="text_36">
     <!-- tempo argmin (s), dim 128 -->
     <g transform="translate(487.121133 241.147969) rotate(-90) scale(0.1 -0.1)">
      <defs>
       <path id="DejaVuSans-64" d="M 2906 2969 
L 2906 4863 
L 3481 4863 
L 3481 0 
L 2906 0 
L 2906 525 
Q 2725 213 2448 61 
Q 2172 -91 1784 -91 
Q 1150 -91 751 415 
Q 353 922 353 1747 
Q 353 2572 751 3078 
Q 1150 3584 1784 3584 
Q 2172 3584 2448 3432 
Q 2725 3281 2906 2969 
z
M 947 1747 
Q 947 1113 1208 752 
Q 1469 391 1925 391 
Q 2381 391 2643 752 
Q 2906 1113 2906 1747 
Q 2906 2381 2643 2742 
Q 2381 3103 1925 3103 
Q 1469 3103 1208 2742 
Q 947 2381 947 1747 
z
" transform="scale(0.015625)"/>
      </defs>
      <use xlink:href="#DejaVuSans-74"/>
      <use xlink:href="#DejaVuSans-65" x="39.208984"/>
      <use xlink:href="#DejaVuSans-6d" x="100.732422"/>
      <use xlink:href="#DejaVuSans-70" x="198.144531"/>
      <use xlink:href="#DejaVuSans-6f" x="261.621094"/>
      <use xlink:href="#DejaVuSans-20" x="322.802734"/>
      <use xlink:href="#DejaVuSans-61" x="354.589844"/>
      <use xlink:href="#DejaVuSans-72" x="415.869141"/>
      <use xlink:href="#DejaVuSans-67" x="455.232422"/>
      <use xlink:href="#DejaVuSans-6d" x="518.708984"/>
      <use xlink:href="#DejaVuSans-69" x="616.121094"/>
      <use xlink:href="#DejaVuSans-6e" x="643.904297"/>
      <use xlink:href="#DejaVuSans-20" x="707.283203"/>
      <use xlink:href="#DejaVuSans-28" x="739.070312"/>
      <use xlink:href="#DejaVuSans-73" x="778.083984"/>
      <use xlink:href="#DejaVuSans-29" x="830.183594"/>
      <use xlink:href="#DejaVuSans-2c" x="869.197266"/>
      <use xlink:href="#DejaVuSans-20" x="900.984375"/>
      <use xlink:href="#DejaVuSans-64" x="932.771484"/>
      <use xlink:href="#DejaVuSans-69" x="996.248047"/>
      <use xlink:href="#DejaVuSans-6d" x="1024.03125"/>
      <use xlink:href="#DejaVuSans-20" x="1121.443359"/>
      <use xlink:href="#DejaVuSans-31" x="1153.230469"/>
      <use xlink:href="#DejaVuSans-32" x="1216.853516"/>
      <use xlink:href="#DejaVuSans-38" x="1280.476562"/>
     </g>
    </g>
   </g>
   <g id="patch_8">
    <path d="M 525.650821 314.448062 
L 525.650821 33.440062 
" style="fill: none; stroke: #000000; stroke-width: 0.8; stroke-linejoin: miter; stroke-linecap: square"/>
   </g>
   <g id="patch_9">
    <path d="M 525.650821 314.448062 
L 813.115625 314.448062 
" style="fill: none; stroke: #000000; stroke-width: 0.8; stroke-linejoin: miter; stroke-linecap: square"/>
   </g>
   <g id="text_37">
    <!-- 123 s -->
    <g transform="translate(568.414256 281.851135) scale(0.11 -0.11)">
     <defs>
      <path id="DejaVuSans-Bold-32" d="M 1844 884 
L 3897 884 
L 3897 0 
L 506 0 
L 506 884 
L 2209 2388 
Q 2438 2594 2547 2791 
Q 2656 2988 2656 3200 
Q 2656 3528 2436 3728 
Q 2216 3928 1850 3928 
Q 1569 3928 1234 3808 
Q 900 3688 519 3450 
L 519 4475 
Q 925 4609 1322 4679 
Q 1719 4750 2100 4750 
Q 2938 4750 3402 4381 
Q 3866 4013 3866 3353 
Q 3866 2972 3669 2642 
Q 3472 2313 2841 1759 
L 1844 884 
z
" transform="scale(0.015625)"/>
      <path id="DejaVuSans-Bold-20" transform="scale(0.015625)"/>
     </defs>
     <use xlink:href="#DejaVuSans-Bold-31"/>
     <use xlink:href="#DejaVuSans-Bold-32" x="69.580078"/>
     <use xlink:href="#DejaVuSans-Bold-33" x="139.160156"/>
     <use xlink:href="#DejaVuSans-Bold-20" x="208.740234"/>
     <use xlink:href="#DejaVuSans-Bold-73" x="243.554688"/>
    </g>
   </g>
   <g id="text_38">
    <!-- 1082 s -->
    <g transform="translate(733.188518 66.261797) scale(0.11 -0.11)">
     <use xlink:href="#DejaVuSans-Bold-31"/>
     <use xlink:href="#DejaVuSans-Bold-30" x="69.580078"/>
     <use xlink:href="#DejaVuSans-Bold-38" x="139.160156"/>
     <use xlink:href="#DejaVuSans-Bold-32" x="208.740234"/>
     <use xlink:href="#DejaVuSans-Bold-20" x="278.320312"/>
     <use xlink:href="#DejaVuSans-Bold-73" x="313.134766"/>
    </g>
   </g>
   <g id="patch_10">
    <path d="M 664.180533 132.466084 
Q 708.105888 102.402323 750.555037 73.348919 
" style="fill: none; stroke: #c0392b; stroke-width: 1.6; stroke-linecap: round"/>
    <path d="M 746.124531 73.957697 
L 750.555037 73.348919 
L 748.383756 77.258591 
" style="fill: none; stroke: #c0392b; stroke-width: 1.6; stroke-linecap: round"/>
   </g>
   <g id="text_39">
    <!-- ~9× più LENTA -->
    <g style="fill: #c0392b" transform="translate(610.372852 143.595198) scale(0.1 -0.1)">
     <defs>
      <path id="DejaVuSans-Bold-7e" d="M 4684 2656 
L 4684 1894 
Q 4353 1644 4073 1536 
Q 3794 1428 3494 1428 
Q 3159 1428 2713 1609 
Q 2669 1628 2644 1638 
Q 2622 1647 2575 1666 
Q 2091 1856 1797 1856 
Q 1522 1856 1253 1736 
Q 984 1616 678 1356 
L 678 2119 
Q 1013 2369 1291 2476 
Q 1569 2584 1869 2584 
Q 2203 2584 2650 2403 
Q 2697 2384 2719 2375 
Q 2741 2366 2788 2347 
Q 3272 2156 3566 2156 
Q 3834 2156 4098 2273 
Q 4363 2391 4684 2656 
z
" transform="scale(0.015625)"/>
      <path id="DejaVuSans-Bold-d7" d="M 4563 3359 
L 3206 2003 
L 4563 653 
L 4038 128 
L 2681 1478 
L 1325 128 
L 800 653 
L 2156 2003 
L 800 3359 
L 1325 3884 
L 2681 2528 
L 4038 3884 
L 4563 3359 
z
" transform="scale(0.015625)"/>
      <path id="DejaVuSans-Bold-70" d="M 1656 506 
L 1656 -1331 
L 538 -1331 
L 538 3500 
L 1656 3500 
L 1656 2988 
Q 1888 3294 2169 3439 
Q 2450 3584 2816 3584 
Q 3463 3584 3878 3070 
Q 4294 2556 4294 1747 
Q 4294 938 3878 423 
Q 3463 -91 2816 -91 
Q 2450 -91 2169 54 
Q 1888 200 1656 506 
z
M 2400 2772 
Q 2041 2772 1848 2508 
Q 1656 2244 1656 1747 
Q 1656 1250 1848 986 
Q 2041 722 2400 722 
Q 2759 722 2948 984 
Q 3138 1247 3138 1747 
Q 3138 2247 2948 2509 
Q 2759 2772 2400 2772 
z
" transform="scale(0.015625)"/>
      <path id="DejaVuSans-Bold-69" d="M 538 3500 
L 1656 3500 
L 1656 0 
L 538 0 
L 538 3500 
z
M 538 4863 
L 1656 4863 
L 1656 3950 
L 538 3950 
L 538 4863 
z
" transform="scale(0.015625)"/>
      <path id="DejaVuSans-Bold-f9" d="M 500 1363 
L 500 3500 
L 1625 3500 
L 1625 3150 
Q 1625 2866 1622 2436 
Q 1619 2006 1619 1863 
Q 1619 1441 1641 1255 
Q 1663 1069 1716 984 
Q 1784 875 1895 815 
Q 2006 756 2150 756 
Q 2500 756 2700 1025 
Q 2900 1294 2900 1772 
L 2900 3500 
L 4019 3500 
L 4019 0 
L 2900 0 
L 2900 506 
Q 2647 200 2364 54 
Q 2081 -91 1741 -91 
Q 1134 -91 817 281 
Q 500 653 500 1363 
z
M 1938 5119 
L 2819 3944 
L 2207 3944 
L 1054 5119 
L 1938 5119 
z
" transform="scale(0.015625)"/>
      <path id="DejaVuSans-Bold-4c" d="M 588 4666 
L 1791 4666 
L 1791 909 
L 3903 909 
L 3903 0 
L 588 0 
L 588 4666 
z
" transform="scale(0.015625)"/>
      <path id="DejaVuSans-Bold-45" d="M 588 4666 
L 3834 4666 
L 3834 3756 
L 1791 3756 
L 1791 2888 
L 3713 2888 
L 3713 1978 
L 1791 1978 
L 1791 909 
L 3903 909 
L 3903 0 
L 588 0 
L 588 4666 
z
" transform="scale(0.015625)"/>
      <path id="DejaVuSans-Bold-4e" d="M 588 4666 
L 1931 4666 
L 3628 1466 
L 3628 4666 
L 4769 4666 
L 4769 0 
L 3425 0 
L 1728 3200 
L 1728 0 
L 588 0 
L 588 4666 
z
" transform="scale(0.015625)"/>
      <path id="DejaVuSans-Bold-54" d="M 31 4666 
L 4331 4666 
L 4331 3756 
L 2784 3756 
L 2784 0 
L 1581 0 
L 1581 3756 
L 31 3756 
L 31 4666 
z
" transform="scale(0.015625)"/>
      <path id="DejaVuSans-Bold-41" d="M 3419 850 
L 1538 850 
L 1241 0 
L 31 0 
L 1759 4666 
L 3194 4666 
L 4922 0 
L 3713 0 
L 3419 850 
z
M 1838 1716 
L 3116 1716 
L 2478 3572 
L 1838 1716 
z
" transform="scale(0.015625)"/>
     </defs>
     <use xlink:href="#DejaVuSans-Bold-7e"/>
     <use xlink:href="#DejaVuSans-Bold-39" x="83.789062"/>
     <use xlink:href="#DejaVuSans-Bold-d7" x="153.369141"/>
     <use xlink:href="#DejaVuSans-Bold-20" x="237.158203"/>
     <use xlink:href="#DejaVuSans-Bold-70" x="271.972656"/>
     <use xlink:href="#DejaVuSans-Bold-69" x="343.554688"/>
     <use xlink:href="#DejaVuSans-Bold-f9" x="377.832031"/>
     <use xlink:href="#DejaVuSans-Bold-20" x="449.023438"/>
     <use xlink:href="#DejaVuSans-Bold-4c" x="483.837891"/>
     <use xlink:href="#DejaVuSans-Bold-45" x="547.558594"/>
     <use xlink:href="#DejaVuSans-Bold-4e" x="615.869141"/>
     <use xlink:href="#DejaVuSans-Bold-54" x="699.560547"/>
     <use xlink:href="#DejaVuSans-Bold-41" x="760.023438"/>
    </g>
   </g>
   <g id="text_40">
    <!-- La GPU non aiuta, anzi peggiora -->
    <g transform="translate(584.974707 27.440063) scale(0.105 -0.105)">
     <defs>
      <path id="DejaVuSans-4c" d="M 628 4666 
L 1259 4666 
L 1259 531 
L 3531 531 
L 3531 0 
L 628 0 
L 628 4666 
z
" transform="scale(0.015625)"/>
     </defs>
     <use xlink:href="#DejaVuSans-4c"/>
     <use xlink:href="#DejaVuSans-61" x="55.712891"/>
     <use xlink:href="#DejaVuSans-20" x="116.992188"/>
     <use xlink:href="#DejaVuSans-47" x="148.779297"/>
     <use xlink:href="#DejaVuSans-50" x="226.269531"/>
     <use xlink:href="#DejaVuSans-55" x="286.572266"/>
     <use xlink:href="#DejaVuSans-20" x="359.765625"/>
     <use xlink:href="#DejaVuSans-6e" x="391.552734"/>
     <use xlink:href="#DejaVuSans-6f" x="454.931641"/>
     <use xlink:href="#DejaVuSans-6e" x="516.113281"/>
     <use xlink:href="#DejaVuSans-20" x="579.492188"/>
     <use xlink:href="#DejaVuSans-61" x="611.279297"/>
     <use xlink:href="#DejaVuSans-69" x="672.558594"/>
     <use xlink:href="#DejaVuSans-75" x="700.341797"/>
     <use xlink:href="#DejaVuSans-74" x="763.720703"/>
     <use xlink:href="#DejaVuSans-61" x="802.929688"/>
     <use xlink:href="#DejaVuSans-2c" x="864.208984"/>
     <use xlink:href="#DejaVuSans-20" x="895.996094"/>
     <use xlink:href="#DejaVuSans-61" x="927.783203"/>
     <use xlink:href="#DejaVuSans-6e" x="989.0625"/>
     <use xlink:href="#DejaVuSans-7a" x="1052.441406"/>
     <use xlink:href="#DejaVuSans-69" x="1104.931641"/>
     <use xlink:href="#DejaVuSans-20" x="1132.714844"/>
     <use xlink:href="#DejaVuSans-70" x="1164.501953"/>
     <use xlink:href="#DejaVuSans-65" x="1227.978516"/>
     <use xlink:href="#DejaVuSans-67" x="1289.501953"/>
     <use xlink:href="#DejaVuSans-67" x="1352.978516"/>
     <use xlink:href="#DejaVuSans-69" x="1416.455078"/>
     <use xlink:href="#DejaVuSans-6f" x="1444.238281"/>
     <use xlink:href="#DejaVuSans-72" x="1505.419922"/>
     <use xlink:href="#DejaVuSans-61" x="1546.533203"/>
    </g>
   </g>
  </g>
 </g>
 <defs>
  <clipPath id="p16111e8aed">
   <rect x="46.965625" y="33.440063" width="416.823967" height="281.008"/>
  </clipPath>
  <clipPath id="p2dfa59a211">
   <rect x="525.650821" y="33.440063" width="287.464804" height="281.008"/>
  </clipPath>
 </defs>
</svg>
